<svg width="74" height="74" viewBox="0 0 74 74" fill="none" xmlns="http://www.w3.org/2000/svg">
<path d="M25.25 62.05H6.85C5.63 62.05 4.45998 61.5654 3.59731 60.7027C2.73464 59.84 2.25 58.67 2.25 57.45V6.85C2.25 5.63 2.73464 4.45998 3.59731 3.59731C4.45998 2.73464 5.63 2.25 6.85 2.25H52.85C54.07 2.25 55.24 2.73464 56.1027 3.59731C56.9654 4.45998 57.45 5.63 57.45 6.85V27.55M25.25 16.05H43.65M16.05 29.85H43.65M16.05 43.65H39.05M69.3517 45.5513L45.9623 68.95L34.4623 71.25L36.7623 59.75L60.164 36.3513C61.3804 35.135 63.03 34.4517 64.7502 34.4517C66.4703 34.4517 68.12 35.135 69.3364 36.3513L69.364 36.3759C69.9659 36.979 70.4431 37.6948 70.7682 38.4825C71.0934 39.2701 71.2602 40.114 71.259 40.9661C71.2579 41.8182 71.0888 42.6618 70.7616 43.4485C70.4343 44.2353 69.9553 44.9498 69.3517 45.5513Z" stroke="#4EA24E" stroke-width="4.5" stroke-linecap="round" stroke-linejoin="round"/>
</svg>
