<svg width="65" height="60" viewBox="0 0 65 60" fill="none" xmlns="http://www.w3.org/2000/svg">
<path d="M6.47238 59.998C4.69248 59.998 3.16931 59.3458 1.90288 58.0414C0.636451 56.737 0.00215746 55.1671 0 53.3316V6.66645C0 4.83317 0.634294 3.26434 1.90288 1.95994C3.17147 0.655534 4.69464 0.00222215 6.47238 0H25.8895C27.6694 0 29.1937 0.653312 30.4623 1.95994C31.7309 3.26656 32.3641 4.8354 32.3619 6.66645V13.3329H58.2515C60.0314 13.3329 61.5556 13.9862 62.8242 15.2928C64.0928 16.5995 64.726 18.1683 64.7238 19.9993V36.6655C64.7238 37.6099 65.3452 59.358 64.7238 59.998C64.7238 59.998 62.4024 60.0002 61.4877 59.998C60.5729 59.9958 59.4962 59.9981 58.2515 59.9991C57.6301 59.3614 58.2515 37.6099 58.2515 36.6655V19.9993H32.3619V26.6658H38.8343V33.3322H32.3619V39.9987H38.8343V46.6651H32.3619V53.3316H42.0705C42.9874 53.3316 64.7238 53.3316 64.7238 53.3316C65.3452 53.9716 64.6856 55.7226 64.6834 56.6648C64.6812 57.607 65.343 59.3558 64.7238 59.998C64.7238 59.998 42.9874 60.0025 42.0705 59.998H6.47238ZM6.47238 53.3316H12.9448V46.6651H6.47238V53.3316ZM6.47238 39.9987H12.9448V33.3322H6.47238V39.9987ZM6.47238 26.6658H12.9448V19.9993H6.47238V26.6658ZM6.47238 13.3329H12.9448V6.66645H6.47238V13.3329ZM19.4172 53.3316H25.8895V46.6651H19.4172V53.3316ZM19.4172 39.9987H25.8895V33.3322H19.4172V39.9987ZM19.4172 26.6658H25.8895V19.9993H19.4172V26.6658ZM19.4172 13.3329H25.8895V6.66645H19.4172V13.3329ZM45.3067 33.3322V26.6658H51.7791V33.3322H45.3067ZM45.3067 46.6651V39.9987H51.7791V46.6651H45.3067Z" fill="#4EA24E"/>
</svg>
