<svg width="24" height="22" viewBox="0 0 24 22" fill="none" xmlns="http://www.w3.org/2000/svg">
<path d="M0.820312 8.05001C0.820313 8.80588 1.12058 9.53079 1.65506 10.0653C2.18954 10.5997 2.91445 10.9 3.67031 10.9C4.42618 10.9 5.15109 10.5997 5.68557 10.0653C6.22005 9.53079 6.52031 8.80588 6.52031 8.05001C6.52031 7.29415 6.22005 6.56924 5.68557 6.03476C5.15109 5.50028 4.42618 5.20001 3.67031 5.20001C2.91445 5.20001 2.18954 5.50028 1.65506 6.03476C1.12058 6.56924 0.820313 7.29415 0.820312 8.05001Z" fill="#4EA24E"/>
<path d="M0.529116 13.45H6.80912C6.90258 13.449 6.99398 13.4224 7.07334 13.373C7.1527 13.3237 7.21697 13.2534 7.25912 13.17C7.30003 13.0844 7.31519 12.9887 7.30276 12.8946C7.29034 12.8005 7.25086 12.7121 7.18912 12.64C6.76898 12.1098 6.23373 11.6821 5.62389 11.3893C5.01405 11.0965 4.34559 10.9463 3.66912 10.95C2.99313 10.9492 2.32566 11.1007 1.71627 11.3933C1.10688 11.6859 0.571231 12.112 0.149116 12.64C0.0873763 12.7121 0.0478954 12.8005 0.035469 12.8946C0.0230426 12.9887 0.0382055 13.0844 0.0791158 13.17C0.121263 13.2534 0.185527 13.3237 0.264888 13.373C0.344248 13.4224 0.435652 13.449 0.529116 13.45ZM12.1191 5.7C12.6806 5.69991 13.2296 5.53395 13.6972 5.22294C14.1647 4.91194 14.53 4.46975 14.7471 3.95188C14.9642 3.43402 15.0234 2.86356 14.9175 2.31213C14.8115 1.76069 14.545 1.25284 14.1514 0.852346C13.7578 0.451848 13.2547 0.176543 12.7051 0.0609939C12.1556 -0.0545556 11.5842 -0.00520098 11.0627 0.202862C10.5411 0.410925 10.0926 0.768424 9.77354 1.23048C9.45445 1.69254 9.27897 2.23856 9.26912 2.8C9.26383 3.17809 9.33356 3.55348 9.4743 3.90445C9.61503 4.25541 9.82396 4.57499 10.089 4.84468C10.354 5.11437 10.6699 5.32883 11.0184 5.47565C11.3669 5.62246 11.741 5.69872 12.1191 5.7ZM8.46912 8.45H15.7591C15.8528 8.45019 15.9447 8.42404 16.0243 8.37453C16.1038 8.32502 16.1679 8.25415 16.2091 8.17C16.2514 8.0853 16.2682 7.99018 16.2575 7.89612C16.2469 7.80207 16.2092 7.71311 16.1491 7.64C15.6686 7.04024 15.06 6.55561 14.3679 6.22165C13.6757 5.8877 12.9176 5.71287 12.1491 5.71C11.3806 5.71287 10.6225 5.8877 9.93038 6.22165C9.23823 6.55561 8.62961 7.04024 8.14912 7.64C8.076 7.70472 8.023 7.78906 7.99641 7.88301C7.96982 7.97696 7.97076 8.07657 7.99912 8.17C8.04178 8.25729 8.10895 8.33026 8.19242 8.37998C8.27589 8.42971 8.37204 8.45404 8.46912 8.45ZM17.4791 8.05C17.4791 8.80587 17.7794 9.53078 18.3139 10.0653C18.8483 10.5997 19.5732 10.9 20.3291 10.9C21.085 10.9 21.8099 10.5997 22.3444 10.0653C22.8788 9.53078 23.1791 8.80587 23.1791 8.05C23.1791 7.29413 22.8788 6.56923 22.3444 6.03475C21.8099 5.50027 21.085 5.2 20.3291 5.2C19.5732 5.2 18.8483 5.50027 18.3139 6.03475C17.7794 6.56923 17.4791 7.29413 17.4791 8.05Z" fill="#4EA24E"/>
<path d="M17.2008 13.45H23.4708C23.5645 13.4502 23.6563 13.424 23.7359 13.3745C23.8155 13.325 23.8795 13.2542 23.9208 13.17C23.9607 13.0847 23.9762 12.9901 23.9656 12.8965C23.955 12.803 23.9187 12.7142 23.8608 12.64C23.4376 12.1107 22.9003 11.6838 22.2891 11.3912C21.6779 11.0985 21.0084 10.9477 20.3308 10.95C19.6549 10.9499 18.9877 11.1018 18.3784 11.3943C17.7691 11.6868 17.2334 12.1126 16.8108 12.64C16.7506 12.7131 16.713 12.8021 16.7023 12.8961C16.6917 12.9902 16.7085 13.0853 16.7508 13.17C16.792 13.2542 16.856 13.325 16.9356 13.3745C17.0152 13.424 17.1071 13.4502 17.2008 13.45Z" fill="#4EA24E"/>
<path d="M23 14.95H16.5C16.3674 14.95 16.2402 14.8973 16.1464 14.8036C16.0527 14.7098 16 14.5826 16 14.45V10.95C16 10.6848 15.8946 10.4304 15.7071 10.2429C15.5196 10.0554 15.2652 9.95001 15 9.95001H9C8.73478 9.95001 8.48043 10.0554 8.29289 10.2429C8.10536 10.4304 8 10.6848 8 10.95V14.45C8 14.5826 7.94732 14.7098 7.85355 14.8036C7.75979 14.8973 7.63261 14.95 7.5 14.95H1C0.734784 14.95 0.48043 15.0554 0.292893 15.2429C0.105357 15.4304 0 15.6848 0 15.95L0 20.45C0 20.7152 0.105357 20.9696 0.292893 21.1571C0.48043 21.3447 0.734784 21.45 1 21.45H23C23.2652 21.45 23.5196 21.3447 23.7071 21.1571C23.8946 20.9696 24 20.7152 24 20.45V15.95C24 15.6848 23.8946 15.4304 23.7071 15.2429C23.5196 15.0554 23.2652 14.95 23 14.95Z" fill="#4EA24E"/>
</svg>
