<svg width="28" height="28" viewBox="0 0 28 28" fill="none" xmlns="http://www.w3.org/2000/svg">
<path d="M0.957031 10.9085C0.957031 11.7903 1.30734 12.6361 1.9309 13.2596C2.55446 13.8832 3.40019 14.2335 4.28203 14.2335C5.16388 14.2335 6.0096 13.8832 6.63316 13.2596C7.25672 12.6361 7.60703 11.7903 7.60703 10.9085C7.60703 10.0267 7.25672 9.18092 6.63316 8.55737C6.0096 7.93381 5.16388 7.5835 4.28203 7.5835C3.40019 7.5835 2.55446 7.93381 1.9309 8.55737C1.30734 9.18092 0.957031 10.0267 0.957031 10.9085Z" fill="#4EA24E"/>
<path d="M0.617953 17.2083H7.94462C8.05366 17.2072 8.1603 17.1761 8.25289 17.1185C8.34547 17.0609 8.42045 16.9789 8.46962 16.8816C8.51735 16.7817 8.53504 16.6701 8.52054 16.5603C8.50604 16.4506 8.45998 16.3474 8.38795 16.2633C7.89779 15.6447 7.27334 15.1457 6.56185 14.8041C5.85037 14.4625 5.07051 14.2873 4.28129 14.2916C3.49264 14.2907 2.71392 14.4675 2.00296 14.8088C1.29201 15.1502 0.667087 15.6473 0.174619 16.2633C0.10259 16.3474 0.056529 16.4506 0.0420315 16.5603C0.027534 16.6701 0.0452241 16.7817 0.0929528 16.8816C0.142125 16.9789 0.2171 17.0609 0.309686 17.1185C0.402273 17.1761 0.508912 17.2072 0.617953 17.2083ZM14.1396 8.1666C14.7947 8.1665 15.4352 7.97288 15.9807 7.61004C16.5261 7.24719 16.9523 6.73131 17.2055 6.12713C17.4588 5.52296 17.528 4.85743 17.4044 4.21408C17.2807 3.57074 16.9698 2.97825 16.5106 2.51101C16.0514 2.04376 15.4644 1.72257 14.8233 1.58776C14.1822 1.45295 13.5156 1.51053 12.9071 1.75327C12.2986 1.99601 11.7754 2.4131 11.4031 2.95216C11.0308 3.49123 10.8261 4.12825 10.8146 4.78327C10.8084 5.22438 10.8898 5.66233 11.054 6.07179C11.2182 6.48125 11.4619 6.85409 11.7712 7.16873C12.0804 7.48337 12.4489 7.73357 12.8555 7.90486C13.262 8.07614 13.6985 8.1651 14.1396 8.1666ZM9.88129 11.3749H18.3863C18.4956 11.3752 18.6028 11.3446 18.6956 11.2869C18.7885 11.2291 18.8632 11.1464 18.9113 11.0483C18.9606 10.9495 18.9802 10.8385 18.9678 10.7287C18.9554 10.619 18.9114 10.5152 18.8413 10.4299C18.2807 9.73021 17.5706 9.16482 16.7631 8.7752C15.9557 8.38558 15.0712 8.18162 14.1746 8.17827C13.278 8.18162 12.3936 8.38558 11.5861 8.7752C10.7786 9.16482 10.0685 9.73021 9.50795 10.4299C9.42265 10.5054 9.36082 10.6038 9.3298 10.7134C9.29878 10.8231 9.29987 10.9393 9.33295 11.0483C9.38273 11.1501 9.4611 11.2352 9.55848 11.2932C9.65586 11.3513 9.76803 11.3796 9.88129 11.3749ZM20.393 10.9083C20.393 11.7901 20.7433 12.6358 21.3668 13.2594C21.9904 13.883 22.8361 14.2333 23.718 14.2333C24.5998 14.2333 25.4455 13.883 26.0691 13.2594C26.6926 12.6358 27.043 11.7901 27.043 10.9083C27.043 10.0264 26.6926 9.1807 26.0691 8.55714C25.4455 7.93358 24.5998 7.58327 23.718 7.58327C22.8361 7.58327 21.9904 7.93358 21.3668 8.55714C20.7433 9.1807 20.393 10.0264 20.393 10.9083Z" fill="#4EA24E"/>
<path d="M20.0676 17.2082H27.3826C27.4919 17.2084 27.5991 17.1779 27.6919 17.1202C27.7847 17.0624 27.8595 16.9797 27.9076 16.8815C27.9541 16.782 27.9722 16.6716 27.9598 16.5625C27.9475 16.4534 27.9052 16.3498 27.8376 16.2632C27.3439 15.6457 26.7171 15.1476 26.004 14.8062C25.2908 14.4648 24.5098 14.2889 23.7192 14.2915C22.9307 14.2915 22.1523 14.4686 21.4415 14.8099C20.7306 15.1512 20.1056 15.6478 19.6126 16.2632C19.5424 16.3485 19.4985 16.4523 19.4861 16.562C19.4736 16.6717 19.4933 16.7827 19.5426 16.8815C19.5907 16.9797 19.6654 17.0624 19.7582 17.1202C19.851 17.1779 19.9582 17.2084 20.0676 17.2082Z" fill="#4EA24E"/>
<path d="M26.8333 18.9583H19.25C19.0953 18.9583 18.9469 18.8969 18.8375 18.7875C18.7281 18.6781 18.6667 18.5297 18.6667 18.375V14.2917C18.6667 13.9822 18.5437 13.6855 18.325 13.4667C18.1062 13.2479 17.8094 13.125 17.5 13.125H10.5C10.1906 13.125 9.89383 13.2479 9.67504 13.4667C9.45625 13.6855 9.33333 13.9822 9.33333 14.2917V18.375C9.33333 18.5297 9.27187 18.6781 9.16248 18.7875C9.05308 18.8969 8.90471 18.9583 8.75 18.9583H1.16667C0.857247 18.9583 0.560501 19.0812 0.341709 19.3C0.122916 19.5188 0 19.8156 0 20.125L0 25.375C0 25.6844 0.122916 25.9812 0.341709 26.2C0.560501 26.4188 0.857247 26.5417 1.16667 26.5417H26.8333C27.1428 26.5417 27.4395 26.4188 27.6583 26.2C27.8771 25.9812 28 25.6844 28 25.375V20.125C28 19.8156 27.8771 19.5188 27.6583 19.3C27.4395 19.0812 27.1428 18.9583 26.8333 18.9583Z" fill="#4EA24E"/>
</svg>
