<svg width="68" height="68" viewBox="0 0 68 68" fill="none" xmlns="http://www.w3.org/2000/svg">
<path d="M24.2501 60.0012H14.5C11.0522 60.0012 7.74561 58.6316 5.30762 56.1935C2.86964 53.7555 1.5 50.4488 1.5 47.001V17.7503C1.5 14.3025 2.86964 10.9958 5.30762 8.55776C7.74561 6.11973 11.0522 4.75007 14.5 4.75007H50.2502C53.698 4.75007 57.0046 6.11973 59.4426 8.55776C61.8806 10.9958 63.2502 14.3025 63.2502 17.7503V27.5005M21.0001 1.5V8.00014M43.7501 1.5V8.00014M1.5 21.0004H63.2502M55.1252 45.8407L50.2502 50.7158" stroke="#C36363" stroke-width="3" stroke-linecap="round" stroke-linejoin="round"/>
<path d="M50.2501 66.5009C59.2247 66.5009 66.5001 59.2254 66.5001 50.2506C66.5001 41.2758 59.2247 34.0002 50.2501 34.0002C41.2754 34.0002 34 41.2758 34 50.2506C34 59.2254 41.2754 66.5009 50.2501 66.5009Z" stroke="#C36363" stroke-width="3" stroke-linecap="round" stroke-linejoin="round"/>
</svg>
