<svg width="27" height="27" viewBox="0 0 27 27" fill="none" xmlns="http://www.w3.org/2000/svg">
<path d="M9.08224 22.4167H2.41645C1.97448 22.4167 1.55061 22.2411 1.23809 21.9285C0.925572 21.616 0.75 21.192 0.75 20.75V2.41667C0.75 1.97464 0.925572 1.55072 1.23809 1.23816C1.55061 0.925595 1.97448 0.75 2.41645 0.75H19.0809C19.5229 0.75 19.9468 0.925595 20.2593 1.23816C20.5718 1.55072 20.7474 1.97464 20.7474 2.41667V9.91667M9.08224 5.75H15.748M5.74935 10.75H15.748M5.74935 15.75H14.0816M25.059 16.4389L16.5857 24.9167L12.4196 25.75L13.2528 21.5833L21.7306 13.1056C22.1712 12.6649 22.7689 12.4173 23.392 12.4173C24.0152 12.4173 24.6128 12.6649 25.0535 13.1056L25.0635 13.1144C25.2815 13.333 25.4544 13.5923 25.5722 13.8777C25.69 14.1631 25.7504 14.4689 25.75 14.7776C25.7496 15.0863 25.6883 15.3919 25.5698 15.677C25.4512 15.962 25.2777 16.2209 25.059 16.4389Z" stroke="black" stroke-width="1.5" stroke-linecap="round" stroke-linejoin="round"/>
</svg>
