<svg width="30" height="31" viewBox="0 0 30 31" fill="none" xmlns="http://www.w3.org/2000/svg">
<path d="M15 9.31034L23 13.4483V30H7V13.4483L15 9.31034ZM15 9.31034V0M0 30H30M3 30V17.5862H7M27 30V17.5862H23M13 30V23.7931H17V30M15 1.03448H21V5.17241H15M15 19.6552C14.4696 19.6552 13.9609 19.4372 13.5858 19.0492C13.2107 18.6612 13 18.1349 13 17.5862C13 17.0375 13.2107 16.5112 13.5858 16.1232C13.9609 15.7352 14.4696 15.5172 15 15.5172C15.5304 15.5172 16.0391 15.7352 16.4142 16.1232C16.7893 16.5112 17 17.0375 17 17.5862C17 18.1349 16.7893 18.6612 16.4142 19.0492C16.0391 19.4372 15.5304 19.6552 15 19.6552Z" stroke="black" stroke-width="1.86667"/>
</svg>
