<svg width="29" height="31" viewBox="0 0 29 31" fill="none" xmlns="http://www.w3.org/2000/svg">
<path d="M9.4967 28.1466H18.9935C23.7656 28.1466 24.6204 26.0867 24.8696 23.5791L25.76 13.344C26.0805 10.2223 25.2495 7.67627 20.1806 7.67627H8.3096C3.24068 7.67627 2.40971 10.2223 2.73023 13.344L3.62056 23.5791C3.86985 26.0867 4.72456 28.1466 9.4967 28.1466Z" stroke="#292D32" stroke-width="1.5" stroke-miterlimit="10" stroke-linecap="round" stroke-linejoin="round"/>
<path d="M9.49707 7.67617V6.65265C9.49707 4.38813 9.49707 2.55859 13.2958 2.55859H15.1951C18.9939 2.55859 18.9939 4.38813 18.9939 6.65265V7.67617" stroke="#292D32" stroke-width="1.5" stroke-miterlimit="10" stroke-linecap="round" stroke-linejoin="round"/>
<path d="M16.6195 16.6319V17.9113C16.6195 17.9241 16.6195 17.9241 16.6195 17.9369C16.6195 19.3315 16.6076 20.4701 14.2453 20.4701C11.8948 20.4701 11.8711 19.3442 11.8711 17.9497V16.6319C11.8711 15.3525 11.8711 15.3525 13.0582 15.3525H15.4324C16.6195 15.3525 16.6195 15.3525 16.6195 16.6319Z" stroke="#292D32" stroke-width="1.5" stroke-miterlimit="10" stroke-linecap="round" stroke-linejoin="round"/>
<path d="M25.7005 14.0732C22.9583 16.2226 19.8243 17.502 16.6191 17.937" stroke="#292D32" stroke-width="1.5" stroke-miterlimit="10" stroke-linecap="round" stroke-linejoin="round"/>
<path d="M3.11035 14.4189C5.78133 16.3892 8.79656 17.579 11.8711 17.9501" stroke="#292D32" stroke-width="1.5" stroke-miterlimit="10" stroke-linecap="round" stroke-linejoin="round"/>
</svg>
