<svg width="36" height="30" viewBox="0 0 36 30" fill="none" xmlns="http://www.w3.org/2000/svg">
<path d="M25.3041 25.941H10.4191C4.46507 25.941 2.97656 24.7057 2.97656 19.7646V9.88243C2.97656 4.94133 4.46507 3.70605 10.4191 3.70605H25.3041C31.2582 3.70605 32.7467 4.94133 32.7467 9.88243V19.7646C32.7467 24.7057 31.2582 25.941 25.3041 25.941Z" stroke="black" stroke-width="1.75" stroke-linecap="round" stroke-linejoin="round"/>
<path d="M20.8389 9.88232H28.2814" stroke="black" stroke-width="1.75" stroke-linecap="round" stroke-linejoin="round"/>
<path d="M22.3271 14.8232H28.2812" stroke="black" stroke-width="1.75" stroke-linecap="round" stroke-linejoin="round"/>
<path d="M25.3047 19.7646H28.2817" stroke="black" stroke-width="1.75" stroke-linecap="round" stroke-linejoin="round"/>
<path d="M12.6532 13.9463C14.1411 13.9463 15.3474 12.9453 15.3474 11.7105C15.3474 10.4756 14.1411 9.47461 12.6532 9.47461C11.1652 9.47461 9.95898 10.4756 9.95898 11.7105C9.95898 12.9453 11.1652 13.9463 12.6532 13.9463Z" stroke="black" stroke-width="1.75" stroke-linecap="round" stroke-linejoin="round"/>
<path d="M17.8619 20.1719C17.6535 18.3807 15.9418 16.9725 13.7834 16.8119C13.0392 16.7502 12.28 16.7502 11.5209 16.8119C9.36255 16.9849 7.65077 18.3807 7.44238 20.1719" stroke="black" stroke-width="1.75" stroke-linecap="round" stroke-linejoin="round"/>
</svg>
