<svg width="28" height="31" viewBox="0 0 28 31" fill="none" xmlns="http://www.w3.org/2000/svg">
<path d="M9.62494 28.5349H4.9232C2.58396 28.5349 1.45508 27.3684 1.45508 24.9602V5.14257C1.45508 2.73435 2.5956 1.56787 4.9232 1.56787H9.62494C11.9642 1.56787 13.0931 2.73435 13.0931 5.14257V24.9602C13.0931 27.3684 11.9525 28.5349 9.62494 28.5349ZM4.9232 3.44929C3.44517 3.44929 3.20078 3.87575 3.20078 5.14257V24.9602C3.20078 26.227 3.44517 26.6535 4.9232 26.6535H9.62494C11.103 26.6535 11.3474 26.227 11.3474 24.9602V5.14257C11.3474 3.87575 11.103 3.44929 9.62494 3.44929H4.9232Z" fill="black"/>
<path d="M23.0078 17.2464H18.306C15.9668 17.2464 14.8379 16.0799 14.8379 13.6717V5.14257C14.8379 2.73435 15.9784 1.56787 18.306 1.56787H23.0078C25.347 1.56787 26.4759 2.73435 26.4759 5.14257V13.6717C26.4759 16.0799 25.3354 17.2464 23.0078 17.2464ZM18.306 3.44929C16.828 3.44929 16.5836 3.87575 16.5836 5.14257V13.6717C16.5836 14.9385 16.828 15.365 18.306 15.365H23.0078C24.4858 15.365 24.7302 14.9385 24.7302 13.6717V5.14257C24.7302 3.87575 24.4858 3.44929 23.0078 3.44929H18.306Z" fill="black"/>
<path d="M23.0078 28.5345H18.306C15.9668 28.5345 14.8379 27.3681 14.8379 24.9598V22.7021C14.8379 20.2939 15.9784 19.1274 18.306 19.1274H23.0078C25.347 19.1274 26.4759 20.2939 26.4759 22.7021V24.9598C26.4759 27.3681 25.3354 28.5345 23.0078 28.5345ZM18.306 21.0089C16.828 21.0089 16.5836 21.4353 16.5836 22.7021V24.9598C16.5836 26.2267 16.828 26.6531 18.306 26.6531H23.0078C24.4858 26.6531 24.7302 26.2267 24.7302 24.9598V22.7021C24.7302 21.4353 24.4858 21.0089 23.0078 21.0089H18.306Z" fill="black"/>
</svg>
