<svg width="30" height="25" viewBox="0 0 30 25" fill="none" xmlns="http://www.w3.org/2000/svg">
<path d="M27.6923 0H2.30769C1.69565 0 1.10868 0.239447 0.675907 0.665666C0.243131 1.09189 0 1.66996 0 2.27273V22.7273C0 23.33 0.243131 23.9081 0.675907 24.3343C1.10868 24.7606 1.69565 25 2.30769 25H4.23894C4.45732 25.0001 4.67123 24.9391 4.85582 24.8242C5.04041 24.7093 5.1881 24.5451 5.28173 24.3509C5.84282 23.1842 6.72867 22.1984 7.83627 21.5081C8.94387 20.8177 10.2277 20.4513 11.5385 20.4513C12.8492 20.4513 14.1331 20.8177 15.2407 21.5081C16.3483 22.1984 17.2341 23.1842 17.7952 24.3509C17.8888 24.5451 18.0365 24.7093 18.2211 24.8242C18.4057 24.9391 18.6196 25.0001 18.838 25H27.6923C28.3043 25 28.8913 24.7606 29.3241 24.3343C29.7569 23.9081 30 23.33 30 22.7273V2.27273C30 1.66996 29.7569 1.09189 29.3241 0.665666C28.8913 0.239447 28.3043 0 27.6923 0ZM8.07692 14.7727C8.07692 14.0985 8.27994 13.4394 8.6603 12.8787C9.04066 12.3181 9.58127 11.8812 10.2138 11.6231C10.8463 11.3651 11.5423 11.2976 12.2138 11.4291C12.8852 11.5607 13.502 11.8854 13.9861 12.3621C14.4702 12.8389 14.7999 13.4463 14.9335 14.1076C15.0671 14.7689 14.9985 15.4544 14.7365 16.0773C14.4745 16.7003 14.0308 17.2327 13.4616 17.6073C12.8923 17.9819 12.2231 18.1818 11.5385 18.1818C10.6204 18.1818 9.73995 17.8226 9.09078 17.1833C8.44162 16.544 8.07692 15.6769 8.07692 14.7727ZM27.6923 22.7273H19.5332C18.5695 21.0958 17.1171 19.7979 15.375 19.0114C16.2484 18.2454 16.8649 17.2361 17.1426 16.1173C17.4204 14.9985 17.3463 13.8229 16.9302 12.7465C16.5141 11.67 15.7757 10.7436 14.8128 10.0899C13.8499 9.43617 12.708 9.08612 11.5385 9.08612C10.3689 9.08612 9.22705 9.43617 8.26415 10.0899C7.30124 10.7436 6.5628 11.67 6.14671 12.7465C5.73062 13.8229 5.65654 14.9985 5.93428 16.1173C6.21203 17.2361 6.82848 18.2454 7.70192 19.0114C5.95982 19.7979 4.50738 21.0958 3.54375 22.7273H2.30769V2.27273H27.6923V22.7273ZM4.61538 7.95455V5.68182C4.61538 5.38044 4.73695 5.0914 4.95334 4.87829C5.16973 4.66518 5.46321 4.54545 5.76923 4.54545H24.2308C24.5368 4.54545 24.8303 4.66518 25.0467 4.87829C25.2631 5.0914 25.3846 5.38044 25.3846 5.68182V19.3182C25.3846 19.6196 25.2631 19.9086 25.0467 20.1217C24.8303 20.3348 24.5368 20.4545 24.2308 20.4545H21.9231C21.6171 20.4545 21.3236 20.3348 21.1072 20.1217C20.8908 19.9086 20.7692 19.6196 20.7692 19.3182C20.7692 19.0168 20.8908 18.7278 21.1072 18.5147C21.3236 18.3015 21.6171 18.1818 21.9231 18.1818H23.0769V6.81818H6.92308V7.95455C6.92308 8.25593 6.80151 8.54497 6.58512 8.75808C6.36873 8.97119 6.07525 9.09091 5.76923 9.09091C5.46321 9.09091 5.16973 8.97119 4.95334 8.75808C4.73695 8.54497 4.61538 8.25593 4.61538 7.95455Z" fill="white"/>
</svg>
