<svg width="27" height="25" viewBox="0 0 27 25" fill="none" xmlns="http://www.w3.org/2000/svg">
<g clip-path="url(#clip0_2264_42225)">
<path d="M12.4728 12.4683C12.4728 12.8373 12.1378 13.1365 11.7244 13.1364H5.7375C5.1614 13.1358 4.80209 12.5786 5.09074 12.1335C5.22438 11.9274 5.47077 11.8004 5.7375 11.8001H11.7244C12.1377 11.8001 12.4728 12.0992 12.4728 12.4683ZM11.7244 8.23641H5.7375C5.1614 8.23703 4.80209 8.79424 5.09074 9.23938C5.22438 9.44548 5.47077 9.57249 5.7375 9.57278H11.7244C12.3005 9.57216 12.6598 9.01494 12.3712 8.56979C12.2376 8.3637 11.9912 8.23669 11.7244 8.23641ZM25.4445 15.21V22.2683C25.4459 22.7827 24.823 23.1054 24.3235 22.8493C24.323 22.849 24.324 22.8496 24.3235 22.8493L21.2038 21.256L18.0856 22.8485C17.5867 23.1057 16.963 22.7842 16.963 22.2699V19.3728H1.74619C0.781802 19.3728 0 18.6748 0 17.8137V3.5591C0 2.69804 0.781802 2 1.74619 2H23.6983C24.6627 2 25.4445 2.69804 25.4445 3.5591V7.05372C28.1052 9.25357 28.1052 13.0102 25.4445 15.21ZM21.2038 6.90004C17.5552 6.90004 15.2748 10.4266 17.0991 13.2478C18.9234 16.069 23.4841 16.069 25.3084 13.2478C25.7244 12.6045 25.9434 11.8747 25.9434 11.1319C25.9434 8.7947 23.8214 6.90004 21.2038 6.90004ZM16.963 18.0365V15.21C13.4532 12.2855 14.8054 7.06526 19.397 5.81364C20.9046 5.4027 22.5305 5.5167 23.9478 6.13273V3.5591C23.9478 3.43609 23.8361 3.33638 23.6983 3.33638H1.74619C1.60841 3.33637 1.49674 3.43609 1.49674 3.5591V17.8137C1.49674 17.9367 1.60843 18.0365 1.74619 18.0365H16.963ZM23.9478 16.131C22.2171 16.8898 20.1904 16.8898 18.4598 16.131V21.1168L20.8296 19.9063C21.0611 19.7869 21.3464 19.7869 21.578 19.9063L23.9478 21.1168V16.131Z" fill="black"/>
</g>
<defs>
<clipPath id="clip0_2264_42225">
<rect width="27" height="25" fill="white"/>
</clipPath>
</defs>
</svg>
