<svg width="28" height="28" viewBox="0 0 28 28" fill="none" xmlns="http://www.w3.org/2000/svg">
<path d="M9.625 27.125H0.875V21.875C0.875 21.4109 1.05937 20.9658 1.38756 20.6376C1.71575 20.3094 2.16087 20.125 2.625 20.125H9.625V27.125ZM9.625 27.125V14.875C9.625 14.4109 9.80937 13.9658 10.1376 13.6376C10.4658 13.3094 10.9109 13.125 11.375 13.125H16.625C17.0891 13.125 17.5342 13.3094 17.8624 13.6376C18.1906 13.9658 18.375 14.4109 18.375 14.875V27.125M9.625 27.125H18.375M18.375 27.125V20.125H25.375C25.8391 20.125 26.2842 20.3094 26.6124 20.6376C26.9406 20.9658 27.125 21.4109 27.125 21.875V27.125H18.375ZM17.7905 9.625C17.323 9.07585 16.7419 8.63479 16.0872 8.33232C15.4326 8.02986 14.72 7.87321 13.9988 7.87321C13.2777 7.87321 12.5651 8.02986 11.9104 8.33232C11.2558 8.63479 10.6746 9.07585 10.2072 9.625M27.125 17.5C26.4953 16.7596 25.6624 16.2202 24.7293 15.9483C23.7961 15.6765 22.8038 15.6842 21.875 15.9705M0.875 17.5C1.34373 16.9525 1.92519 16.5127 2.5796 16.2107C3.234 15.9086 3.94592 15.7515 4.66667 15.75C5.159 15.75 5.649 15.8247 6.11917 15.9693M10.9375 3.9375C10.9375 4.74973 11.2602 5.52868 11.8345 6.10301C12.4088 6.67734 13.1878 7 14 7C14.8122 7 15.5912 6.67734 16.1655 6.10301C16.7398 5.52868 17.0625 4.74973 17.0625 3.9375C17.0625 3.12527 16.7398 2.34632 16.1655 1.77199C15.5912 1.19766 14.8122 0.875 14 0.875C13.1878 0.875 12.4088 1.19766 11.8345 1.77199C11.2602 2.34632 10.9375 3.12527 10.9375 3.9375ZM20.272 11.8125C20.272 12.2147 20.3512 12.6129 20.5051 12.9845C20.659 13.356 20.8846 13.6936 21.169 13.978C21.4534 14.2624 21.791 14.488 22.1625 14.6419C22.5341 14.7958 22.9323 14.875 23.3345 14.875C23.7367 14.875 24.1349 14.7958 24.5065 14.6419C24.878 14.488 25.2156 14.2624 25.5 13.978C25.7844 13.6936 26.01 13.356 26.1639 12.9845C26.3178 12.6129 26.397 12.2147 26.397 11.8125C26.397 11.0003 26.0743 10.2213 25.5 9.64699C24.9257 9.07265 24.1467 8.75 23.3345 8.75C22.5223 8.75 21.7433 9.07265 21.169 9.64699C20.5947 10.2213 20.272 11.0003 20.272 11.8125ZM1.603 11.8125C1.603 12.6247 1.92566 13.4037 2.49999 13.978C3.07432 14.5523 3.85327 14.875 4.6655 14.875C5.47773 14.875 6.25668 14.5523 6.83101 13.978C7.40534 13.4037 7.728 12.6247 7.728 11.8125C7.728 11.0003 7.40534 10.2213 6.83101 9.64699C6.25668 9.07265 5.47773 8.75 4.6655 8.75C3.85327 8.75 3.07432 9.07265 2.49999 9.64699C1.92566 10.2213 1.603 11.0003 1.603 11.8125Z" stroke="black" stroke-width="1.75" stroke-linecap="round" stroke-linejoin="round"/>
</svg>
