<svg width="61" height="61" viewBox="0 0 61 61" fill="none" xmlns="http://www.w3.org/2000/svg">
<path d="M21 59H2V47.6C2 46.5922 2.40036 45.6256 3.11299 44.913C3.82563 44.2004 4.79218 43.8 5.8 43.8H21V59ZM21 59V32.4C21 31.3922 21.4004 30.4256 22.113 29.713C22.8256 29.0004 23.7922 28.6 24.8 28.6H36.2C37.2078 28.6 38.1744 29.0004 38.887 29.713C39.5996 30.4256 40 31.3922 40 32.4V59M21 59H40M40 59V43.8H55.2C56.2078 43.8 57.1744 44.2004 57.887 44.913C58.5996 45.6256 59 46.5922 59 47.6V59H40ZM38.7308 21C37.7158 19.8076 36.4538 18.8498 35.0323 18.193C33.6107 17.5363 32.0634 17.1961 30.4975 17.1961C28.9315 17.1961 27.3842 17.5363 25.9627 18.193C24.5411 18.8498 23.2792 19.8076 22.2641 21M59 38.1C57.6327 36.4924 55.824 35.3209 53.7978 34.7306C51.7716 34.1403 49.6168 34.1571 47.6 34.7788M2 38.1C3.01782 36.9111 4.28041 35.9561 5.70141 35.3003C7.12241 34.6444 8.66829 34.3032 10.2333 34.3C11.3024 34.3 12.3664 34.4621 13.3873 34.7763M23.85 8.65C23.85 10.4137 24.5506 12.1051 25.7977 13.3523C27.0449 14.5994 28.7363 15.3 30.5 15.3C32.2637 15.3 33.9551 14.5994 35.2023 13.3523C36.4494 12.1051 37.15 10.4137 37.15 8.65C37.15 6.88631 36.4494 5.19486 35.2023 3.94774C33.9551 2.70062 32.2637 2 30.5 2C28.7363 2 27.0449 2.70062 25.7977 3.94774C24.5506 5.19486 23.85 6.88631 23.85 8.65ZM44.1192 25.75C44.1192 26.6233 44.2912 27.488 44.6254 28.2948C44.9596 29.1017 45.4494 29.8348 46.0669 30.4523C46.6844 31.0698 47.4175 31.5596 48.2244 31.8938C49.0312 32.228 49.8959 32.4 50.7692 32.4C51.6425 32.4 52.5072 32.228 53.314 31.8938C54.1209 31.5596 54.8539 31.0698 55.4715 30.4523C56.089 29.8348 56.5788 29.1017 56.913 28.2948C57.2472 27.488 57.4192 26.6233 57.4192 25.75C57.4192 23.9863 56.7186 22.2949 55.4715 21.0477C54.2243 19.8006 52.5329 19.1 50.7692 19.1C49.0055 19.1 47.3141 19.8006 46.0669 21.0477C44.8198 22.2949 44.1192 23.9863 44.1192 25.75ZM3.5808 25.75C3.5808 27.5137 4.28142 29.2051 5.52854 30.4523C6.77566 31.6994 8.46711 32.4 10.2308 32.4C11.9945 32.4 13.6859 31.6994 14.9331 30.4523C16.1802 29.2051 16.8808 27.5137 16.8808 25.75C16.8808 23.9863 16.1802 22.2949 14.9331 21.0477C13.6859 19.8006 11.9945 19.1 10.2308 19.1C8.46711 19.1 6.77566 19.8006 5.52854 21.0477C4.28142 22.2949 3.5808 23.9863 3.5808 25.75Z" stroke="#2868BF" stroke-width="4" stroke-linecap="round" stroke-linejoin="round"/>
</svg>
