<svg width="55" height="57" viewBox="0 0 55 57" fill="none" xmlns="http://www.w3.org/2000/svg">
<path d="M20.333 0.875H35.8721C36.6181 0.874682 37.3562 1.01234 38.043 1.2793C38.7295 1.54617 39.3499 1.93645 39.8701 2.4248L52.4932 14.293L52.4941 14.2939C53.5436 15.2789 54.1226 16.603 54.124 17.9717V48.8574C54.1239 50.7667 53.317 52.6098 51.8613 53.9775C50.4038 55.3468 48.4162 56.1249 46.333 56.125H34.7803C35.4558 55.4112 36.0552 54.634 36.5684 53.8037H46.333C47.6972 53.8036 49.0158 53.295 49.9961 52.374C50.9782 51.4513 51.5409 50.1874 51.541 48.8574V19.4824H39.833C38.3242 19.4824 36.8872 18.9184 35.8359 17.9307C34.7865 16.9446 34.208 15.6194 34.208 14.25V3.19629H20.333C18.9687 3.19629 17.6493 3.70489 16.6689 4.62598C15.6869 5.54873 15.1241 6.81263 15.124 8.14258V15.7266C14.2367 15.9147 13.372 16.1855 12.541 16.5332V8.14258C12.5411 6.23335 13.348 4.39019 14.8037 3.02246C16.2613 1.65303 18.2496 0.875 20.333 0.875ZM36.791 14.25C36.791 15.0401 37.1254 15.7861 37.7012 16.3271C38.2752 16.8665 39.0433 17.1611 39.833 17.1611H51.9785L50.3682 15.6484L38.2656 4.27637L36.791 2.8916V14.25Z" fill="#B84349" stroke="#B84349" stroke-width="1.75"/>
<mask id="path-2-inside-1_3810_23139" fill="white">
<path d="M38.9477 21.641L20.4864 15.0841C20.1706 14.972 19.8291 14.972 19.5133 15.0841L1.05191 21.641C0.772678 21.7413 0.526366 21.925 0.342273 22.1702C0.15818 22.4154 0.0440522 22.7118 0.0134621 23.0241C0.00443617 23.0809 -6.69131e-05 23.1385 7.51286e-07 23.1962V39.5883C7.51286e-07 40.023 0.162087 40.4399 0.450602 40.7474C0.739117 41.0548 1.13043 41.2275 1.53845 41.2275C1.94647 41.2275 2.33778 41.0548 2.6263 40.7474C2.91481 40.4399 3.0769 40.023 3.0769 39.5883V25.4706L9.53646 27.7634C7.82024 30.7177 7.27449 34.2769 8.01904 37.6595C8.76359 41.0422 10.7376 43.9717 13.5076 45.805C10.0461 47.2516 7.05379 49.8682 4.86534 53.4457C4.75153 53.626 4.67247 53.8285 4.63277 54.0416C4.59307 54.2547 4.59351 54.474 4.63408 54.6869C4.67464 54.8998 4.75452 55.102 4.86906 55.2817C4.98361 55.4614 5.13054 55.6151 5.30131 55.7338C5.47208 55.8524 5.66328 55.9338 5.86381 55.973C6.06434 56.0123 6.27019 56.0087 6.4694 55.9624C6.66861 55.9161 6.8572 55.8281 7.02421 55.7035C7.19122 55.5789 7.33332 55.4202 7.44225 55.2366C10.3403 50.4992 14.9172 47.7843 19.9998 47.7843C25.0825 47.7843 29.6594 50.4992 32.5574 55.2366C32.7831 55.5939 33.1316 55.8423 33.5278 55.9279C33.9239 56.0136 34.3357 55.9298 34.6743 55.6945C35.0129 55.4592 35.2509 55.0914 35.337 54.6706C35.4231 54.2498 35.3503 53.8098 35.1343 53.4457C32.9459 49.8682 29.9421 47.2516 26.4921 45.805C29.2594 43.9718 31.2315 41.0442 31.976 37.664C32.7204 34.2838 32.1764 30.7271 30.4632 27.7737L38.9477 24.7616C39.2541 24.6529 39.5207 24.4441 39.7095 24.165C39.8984 23.8859 40 23.5505 40 23.2064C40 22.8623 39.8984 22.5269 39.7095 22.2478C39.5207 21.9687 39.2541 21.76 38.9477 21.6512V21.641ZM29.2305 34.6706C29.2309 36.2255 28.8853 37.7584 28.2221 39.1434C27.5588 40.5285 26.5969 41.7262 25.415 42.6384C24.2332 43.5506 22.8653 44.1512 21.4234 44.391C19.9815 44.6308 18.5068 44.5029 17.1203 44.0179C15.7338 43.5328 14.475 42.7044 13.4472 41.6006C12.4193 40.4969 11.6518 39.1491 11.2074 37.6681C10.7631 36.187 10.6547 34.6148 10.891 33.0804C11.1274 31.546 11.7018 30.0932 12.5672 28.8412L19.5133 31.3C19.8291 31.4122 20.1706 31.4122 20.4864 31.3L27.4325 28.8412C28.6011 30.5296 29.2313 32.5727 29.2305 34.6706ZM19.9998 28.0257L6.40379 23.1962L19.9998 18.3666L33.5959 23.1962L19.9998 28.0257Z"/>
</mask>
<path d="M38.9477 21.641L20.4864 15.0841C20.1706 14.972 19.8291 14.972 19.5133 15.0841L1.05191 21.641C0.772678 21.7413 0.526366 21.925 0.342273 22.1702C0.15818 22.4154 0.0440522 22.7118 0.0134621 23.0241C0.00443617 23.0809 -6.69131e-05 23.1385 7.51286e-07 23.1962V39.5883C7.51286e-07 40.023 0.162087 40.4399 0.450602 40.7474C0.739117 41.0548 1.13043 41.2275 1.53845 41.2275C1.94647 41.2275 2.33778 41.0548 2.6263 40.7474C2.91481 40.4399 3.0769 40.023 3.0769 39.5883V25.4706L9.53646 27.7634C7.82024 30.7177 7.27449 34.2769 8.01904 37.6595C8.76359 41.0422 10.7376 43.9717 13.5076 45.805C10.0461 47.2516 7.05379 49.8682 4.86534 53.4457C4.75153 53.626 4.67247 53.8285 4.63277 54.0416C4.59307 54.2547 4.59351 54.474 4.63408 54.6869C4.67464 54.8998 4.75452 55.102 4.86906 55.2817C4.98361 55.4614 5.13054 55.6151 5.30131 55.7338C5.47208 55.8524 5.66328 55.9338 5.86381 55.973C6.06434 56.0123 6.27019 56.0087 6.4694 55.9624C6.66861 55.9161 6.8572 55.8281 7.02421 55.7035C7.19122 55.5789 7.33332 55.4202 7.44225 55.2366C10.3403 50.4992 14.9172 47.7843 19.9998 47.7843C25.0825 47.7843 29.6594 50.4992 32.5574 55.2366C32.7831 55.5939 33.1316 55.8423 33.5278 55.9279C33.9239 56.0136 34.3357 55.9298 34.6743 55.6945C35.0129 55.4592 35.2509 55.0914 35.337 54.6706C35.4231 54.2498 35.3503 53.8098 35.1343 53.4457C32.9459 49.8682 29.9421 47.2516 26.4921 45.805C29.2594 43.9718 31.2315 41.0442 31.976 37.664C32.7204 34.2838 32.1764 30.7271 30.4632 27.7737L38.9477 24.7616C39.2541 24.6529 39.5207 24.4441 39.7095 24.165C39.8984 23.8859 40 23.5505 40 23.2064C40 22.8623 39.8984 22.5269 39.7095 22.2478C39.5207 21.9687 39.2541 21.76 38.9477 21.6512V21.641ZM29.2305 34.6706C29.2309 36.2255 28.8853 37.7584 28.2221 39.1434C27.5588 40.5285 26.5969 41.7262 25.415 42.6384C24.2332 43.5506 22.8653 44.1512 21.4234 44.391C19.9815 44.6308 18.5068 44.5029 17.1203 44.0179C15.7338 43.5328 14.475 42.7044 13.4472 41.6006C12.4193 40.4969 11.6518 39.1491 11.2074 37.6681C10.7631 36.187 10.6547 34.6148 10.891 33.0804C11.1274 31.546 11.7018 30.0932 12.5672 28.8412L19.5133 31.3C19.8291 31.4122 20.1706 31.4122 20.4864 31.3L27.4325 28.8412C28.6011 30.5296 29.2313 32.5727 29.2305 34.6706ZM19.9998 28.0257L6.40379 23.1962L19.9998 18.3666L33.5959 23.1962L19.9998 28.0257Z" fill="#B84349"/>
<path d="M38.9477 21.641H62.9477V4.69617L46.9801 -0.97497L38.9477 21.641ZM20.4864 15.0841L12.4534 37.6999L12.454 37.7001L20.4864 15.0841ZM19.5133 15.0841L27.5457 37.7001L27.5462 37.6999L19.5133 15.0841ZM1.05191 21.641L-6.98048 -0.974971L-7.02273 -0.959965L-7.06492 -0.944801L1.05191 21.641ZM0.0134621 23.0241L23.7167 26.7863L23.8292 26.0777L23.8991 25.3637L0.0134621 23.0241ZM7.51286e-07 23.1962H24V23.1821L24 23.168L7.51286e-07 23.1962ZM7.51286e-07 39.5883H-24H7.51286e-07ZM3.0769 25.4706L11.105 2.85313L-20.9231 -8.51539V25.4706H3.0769ZM9.53646 27.7634L30.2888 39.8191L44.8128 14.8178L17.5646 5.14597L9.53646 27.7634ZM13.5076 45.805L22.7618 67.949L64.2533 50.6093L26.7531 25.7911L13.5076 45.805ZM4.86534 53.4457L25.1581 66.26L25.2494 66.1154L25.3386 65.9695L4.86534 53.4457ZM7.44225 55.2366L-13.0307 42.7122L-13.116 42.8517L-13.1994 42.9923L7.44225 55.2366ZM32.5574 55.2366L12.0845 67.7609L12.1735 67.9065L12.2647 68.0508L32.5574 55.2366ZM35.1343 53.4457L55.776 41.2015L55.6927 41.0612L55.6076 40.922L35.1343 53.4457ZM26.4921 45.805L13.2381 25.7967L-24.179 50.5826L17.2115 67.938L26.4921 45.805ZM30.4632 27.7737L22.434 5.15657L-4.79461 14.8229L9.70306 39.8159L30.4632 27.7737ZM38.9477 24.7616L30.9204 2.14389L30.9186 2.14453L38.9477 24.7616ZM38.9477 21.6512H14.9477V38.6L30.9204 44.2689L38.9477 21.6512ZM29.2305 34.6706L5.23052 34.6616L5.23052 34.6693L5.23052 34.677L29.2305 34.6706ZM12.5672 28.8412L20.5759 6.21685L3.26516 0.0891104L-7.17586 15.1953L12.5672 28.8412ZM19.5133 31.3L27.5462 8.68427L27.5341 8.67996L27.522 8.67567L19.5133 31.3ZM20.4864 31.3L12.4777 8.67567L12.4655 8.67996L12.4534 8.68427L20.4864 31.3ZM27.4325 28.8412L47.1663 15.182L36.7225 0.0933714L19.4238 6.21685L27.4325 28.8412ZM19.9998 28.0257L11.9664 50.6413L19.9998 53.4949L28.0332 50.6413L19.9998 28.0257ZM6.40379 23.1962L-1.62961 0.580588L-65.2969 23.1962L-1.62961 45.8117L6.40379 23.1962ZM19.9998 18.3666L28.0332 -4.24893L19.9998 -7.10252L11.9664 -4.24893L19.9998 18.3666ZM33.5959 23.1962L41.6293 45.8117L105.297 23.1962L41.6293 0.580588L33.5959 23.1962ZM38.9477 21.641L46.9801 -0.97497L28.5188 -7.53181L20.4864 15.0841L12.454 37.7001L30.9153 44.2569L38.9477 21.641ZM20.4864 15.0841L28.5193 -7.53161C23.0072 -9.48946 16.9924 -9.48946 11.4803 -7.53161L19.5133 15.0841L27.5462 37.6999C22.6658 39.4334 17.3339 39.4334 12.4534 37.6999L20.4864 15.0841ZM19.5133 15.0841L11.4809 -7.53181L-6.98048 -0.974971L1.05191 21.641L9.08431 44.2569L27.5457 37.7001L19.5133 15.0841ZM1.05191 21.641L-7.06492 -0.944801C-11.9081 0.795725 -15.9509 3.89871 -18.8501 7.76007L0.342273 22.1702L19.5347 36.5803C17.0037 39.9513 13.4534 42.6869 9.16875 44.2267L1.05191 21.641ZM0.342273 22.1702L-18.8501 7.76007C-21.7395 11.6084 -23.4234 16.1025 -23.8722 20.6844L0.0134621 23.0241L23.8991 25.3637C23.5115 29.321 22.0559 33.2224 19.5347 36.5803L0.342273 22.1702ZM0.0134621 23.0241L-23.6898 19.2618C-23.8982 20.5744 -24.0015 21.8995 -24 23.2243L7.51286e-07 23.1962L24 23.168C24.0014 24.3775 23.907 25.5874 23.7167 26.7863L0.0134621 23.0241ZM7.51286e-07 23.1962H-24V39.5883H7.51286e-07H24V23.1962H7.51286e-07ZM7.51286e-07 39.5883H-24C-24 45.9142 -21.6557 52.2635 -17.0493 57.1715L0.450602 40.7474L17.9505 24.3232C21.9799 28.6164 24 34.1318 24 39.5883H7.51286e-07ZM0.450602 40.7474L-17.0493 57.1715C-12.3945 62.1312 -5.74373 65.2275 1.53845 65.2275V41.2275V17.2275C8.00459 17.2275 13.8727 19.9783 17.9505 24.3232L0.450602 40.7474ZM1.53845 41.2275V65.2275C8.82064 65.2275 15.4714 62.1312 20.1262 57.1715L2.6263 40.7474L-14.8736 24.3232C-10.7958 19.9783 -4.92769 17.2275 1.53845 17.2275V41.2275ZM2.6263 40.7474L20.1262 57.1715C24.7326 52.2635 27.0769 45.9142 27.0769 39.5883H3.0769H-20.9231C-20.9231 34.1318 -18.9029 28.6164 -14.8736 24.3232L2.6263 40.7474ZM3.0769 39.5883H27.0769V25.4706H3.0769H-20.9231V39.5883H3.0769ZM3.0769 25.4706L-4.95125 48.088L1.50831 50.3809L9.53646 27.7634L17.5646 5.14597L11.105 2.85313L3.0769 25.4706ZM9.53646 27.7634L-11.2159 15.7078C-15.9982 23.94 -17.4372 33.6534 -15.4199 42.8187L8.01904 37.6595L31.458 32.5004C31.9862 34.9004 31.6387 37.4954 30.2888 39.8191L9.53646 27.7634ZM8.01904 37.6595L-15.4199 42.8187C-13.399 52.0002 -7.94711 60.3859 0.26205 65.8189L13.5076 45.805L26.7531 25.7911C29.4223 27.5576 30.9261 30.0842 31.458 32.5004L8.01904 37.6595ZM13.5076 45.805L4.25334 23.6609C-4.2841 27.2288 -11.0312 33.44 -15.608 40.922L4.86534 53.4457L25.3386 65.9695C25.1387 66.2963 24.3762 67.2743 22.7618 67.949L13.5076 45.805ZM4.86534 53.4457L-15.4274 40.6315C-17.1928 43.4271 -18.374 46.494 -18.9612 49.6455L4.63277 54.0416L28.2267 58.4377C27.7189 61.1631 26.6958 63.8248 25.1581 66.26L4.86534 53.4457ZM4.63277 54.0416L-18.9612 49.6455C-19.5482 52.7963 -19.5418 56.0301 -18.9418 59.1791L4.63408 54.6869L28.2099 50.1948C28.7288 52.918 28.7344 55.713 28.2267 58.4377L4.63277 54.0416ZM4.63408 54.6869L-18.9418 59.1791C-18.3416 62.3288 -17.1475 65.3918 -15.3696 68.1813L4.86906 55.2817L25.1077 42.3822C26.6565 44.8122 27.6909 47.4708 28.2099 50.1948L4.63408 54.6869ZM4.86906 55.2817L-15.3696 68.1813C-13.59 70.9733 -11.2413 73.4639 -8.39501 75.4419L5.30131 55.7338L18.9976 36.0256C21.5024 37.7663 23.5572 39.9495 25.1077 42.3822L4.86906 55.2817ZM5.30131 55.7338L-8.39501 75.4419C-5.54429 77.423 -2.26815 78.8368 1.25381 79.5261L5.86381 55.973L10.4738 32.4199C13.5947 33.0308 16.4884 34.2819 18.9976 36.0256L5.30131 55.7338ZM5.86381 55.973L1.25381 79.5261C4.77866 80.216 8.40574 80.1514 11.8986 79.3402L6.4694 55.9624L1.04022 32.5845C4.13464 31.8659 7.35003 31.8085 10.4738 32.4199L5.86381 55.973ZM6.4694 55.9624L11.8986 79.3402C15.388 78.5299 18.6042 77.0076 21.376 74.9396L7.02421 55.7035L-7.32763 36.4675C-4.88976 34.6486 -2.05083 33.3024 1.04022 32.5845L6.4694 55.9624ZM7.02421 55.7035L21.376 74.9396C24.1436 72.8747 26.4008 70.3182 28.0839 67.4808L7.44225 55.2366L-13.1994 42.9923C-11.7342 40.5222 -9.76118 38.2832 -7.32763 36.4675L7.02421 55.7035ZM7.44225 55.2366L27.9152 67.7609C27.4869 68.461 26.6275 69.4966 25.149 70.3738C23.6358 71.2718 21.8282 71.7843 19.9998 71.7843V47.7843V23.7843C5.67627 23.7843 -6.25377 31.6343 -13.0307 42.7122L7.44225 55.2366ZM19.9998 47.7843V71.7843C18.1715 71.7843 16.3638 71.2718 14.8506 70.3738C13.3722 69.4966 12.5128 68.461 12.0845 67.7609L32.5574 55.2366L53.0304 42.7122C46.2534 31.6343 34.3234 23.7843 19.9998 23.7843V47.7843ZM32.5574 55.2366L12.2647 68.0508C15.765 73.594 21.4672 77.8741 28.4535 79.3854L33.5278 55.9279L38.602 32.4705C44.796 33.8104 49.8011 37.5938 52.8502 42.4223L32.5574 55.2366ZM33.5278 55.9279L28.4535 79.3854C35.4823 80.9058 42.6731 79.3621 48.3706 75.4026L34.6743 55.6945L20.978 35.9863C25.9984 32.4974 32.3655 31.1214 38.602 32.4705L33.5278 55.9279ZM34.6743 55.6945L48.3706 75.4026C54.0039 71.4877 57.585 65.6648 58.8501 59.4805L35.337 54.6706L11.8239 49.8607C12.9168 44.518 16.0218 39.4307 20.978 35.9863L34.6743 55.6945ZM35.337 54.6706L58.8501 59.4805C60.1122 53.3107 59.0843 46.7787 55.776 41.2015L35.1343 53.4457L14.4926 65.69C11.6163 60.8409 10.734 55.1889 11.8239 49.8607L35.337 54.6706ZM35.1343 53.4457L55.6076 40.922C51.016 33.4159 44.2546 27.2285 35.7727 23.6719L26.4921 45.805L17.2115 67.938C15.6295 67.2746 14.8757 66.3204 14.661 65.9695L35.1343 53.4457ZM26.4921 45.805L39.7461 65.8133C47.9469 60.3808 53.3936 52.0008 55.4143 42.8259L31.976 37.664L8.53765 32.5021C9.06943 30.0875 10.5719 27.5628 13.2381 25.7967L26.4921 45.805ZM31.976 37.664L55.4143 42.8259C57.4313 33.6672 55.9969 23.9606 51.2233 15.7314L30.4632 27.7737L9.70306 39.8159C8.3559 37.4935 8.00945 34.9004 8.53765 32.5021L31.976 37.664ZM30.4632 27.7737L38.4924 50.3907L46.9769 47.3787L38.9477 24.7616L30.9186 2.14453L22.434 5.15657L30.4632 27.7737ZM38.9477 24.7616L46.9751 47.3793C52.2943 45.4915 56.6401 41.9698 59.5871 37.6143L39.7095 24.165L19.832 10.7158C22.4012 6.9185 26.2139 3.81428 30.9204 2.14389L38.9477 24.7616ZM39.7095 24.165L59.5871 37.6143C62.522 33.2765 64 28.2375 64 23.2064H40H16C16 18.8636 17.2747 14.4953 19.832 10.7158L39.7095 24.165ZM40 23.2064H64C64 18.1754 62.522 13.1363 59.5871 8.79855L39.7095 22.2478L19.832 35.6971C17.2747 31.9176 16 27.5493 16 23.2064H40ZM39.7095 22.2478L59.5871 8.79855C56.6401 4.44306 52.2944 0.921376 46.9751 -0.966507L38.9477 21.6512L30.9204 44.2689C26.2139 42.5985 22.4012 39.4943 19.832 35.6971L39.7095 22.2478ZM38.9477 21.6512H62.9477V21.641H38.9477H14.9477V21.6512H38.9477ZM29.2305 34.6706L5.23052 34.677C5.22999 32.6887 5.66876 30.6723 6.57597 28.7778L28.2221 39.1434L49.8682 49.509C52.1019 44.8445 53.2319 39.7624 53.2305 34.6642L29.2305 34.6706ZM28.2221 39.1434L6.57597 28.7778C7.48517 26.8792 8.87567 25.0868 10.7507 23.6395L25.415 42.6384L40.0793 61.6373C44.318 58.3657 47.6325 54.1777 49.8682 49.509L28.2221 39.1434ZM25.415 42.6384L10.7507 23.6395C12.6342 22.1858 14.9351 21.1404 17.486 20.7162L21.4234 44.391L25.3608 68.0658C30.7954 67.162 35.8322 64.9154 40.0793 61.6373L25.415 42.6384ZM21.4234 44.391L17.486 20.7162C20.0419 20.2911 22.646 20.5247 25.0454 21.3641L17.1203 44.0179L9.19522 66.6716C14.3676 68.4812 19.9212 68.9705 25.3608 68.0658L21.4234 44.391ZM17.1203 44.0179L25.0454 21.3641C27.4363 22.2006 29.4586 23.5778 31.0113 25.2451L13.4472 41.6006L-4.11691 57.9562C-0.50859 61.8311 4.03132 64.8651 9.19522 66.6716L17.1203 44.0179ZM13.4472 41.6006L31.0113 25.2451C32.5577 26.9059 33.6089 28.8173 34.1952 30.7715L11.2074 37.6681L-11.7804 44.5646C-10.3054 49.481 -7.71908 54.0878 -4.11691 57.9562L13.4472 41.6006ZM11.2074 37.6681L34.1952 30.7715C34.7807 32.7233 34.916 34.7559 34.6112 36.7345L10.891 33.0804L-12.8292 29.4263C-13.6067 34.4736 -13.2546 39.6507 -11.7804 44.5646L11.2074 37.6681ZM10.891 33.0804L34.6112 36.7345C34.3062 38.7143 33.5517 40.691 32.3103 42.4871L12.5672 28.8412L-7.17586 15.1953C-10.1481 19.4955 -12.0514 24.3777 -12.8292 29.4263L10.891 33.0804ZM12.5672 28.8412L4.55852 51.4655L11.5046 53.9244L19.5133 31.3L27.522 8.67567L20.5759 6.21685L12.5672 28.8412ZM19.5133 31.3L11.4803 53.9158C16.9924 55.8736 23.0072 55.8736 28.5193 53.9158L20.4864 31.3L12.4534 8.68427C17.3339 6.95077 22.6658 6.95077 27.5462 8.68427L19.5133 31.3ZM20.4864 31.3L28.4951 53.9244L35.4411 51.4655L27.4325 28.8412L19.4238 6.21685L12.4777 8.67567L20.4864 31.3ZM27.4325 28.8412L7.69857 42.5004C6.02401 40.0811 5.22951 37.3347 5.23052 34.6616L29.2305 34.6706L53.2305 34.6797C53.2331 27.8106 51.1783 20.9782 47.1663 15.182L27.4325 28.8412ZM19.9998 28.0257L28.0332 5.41011L14.4372 0.580587L6.40379 23.1962L-1.62961 45.8117L11.9664 50.6413L19.9998 28.0257ZM6.40379 23.1962L14.4372 45.8117L28.0332 40.9822L19.9998 18.3666L11.9664 -4.24893L-1.62961 0.580588L6.40379 23.1962ZM19.9998 18.3666L11.9664 40.9822L25.5625 45.8117L33.5959 23.1962L41.6293 0.580588L28.0332 -4.24893L19.9998 18.3666ZM33.5959 23.1962L25.5625 0.580588L11.9664 5.41011L19.9998 28.0257L28.0332 50.6413L41.6293 45.8117L33.5959 23.1962Z" fill="#B84349" mask="url(#path-2-inside-1_3810_23139)"/>
</svg>
