<svg width="65" height="60" viewBox="0 0 65 60" fill="none" xmlns="http://www.w3.org/2000/svg">
<path d="M5.90909 54C4.28409 54 2.89348 53.413 1.73727 52.239C0.581061 51.065 0.0019697 49.652 0 48V6C0 4.35 0.579091 2.938 1.73727 1.764C2.89545 0.59 4.28606 0.002 5.90909 0H23.6364C25.2614 0 26.653 0.588 27.8111 1.764C28.9693 2.94 29.5474 4.352 29.5455 6V12H53.1818C54.8068 12 56.1984 12.588 57.3566 13.764C58.5148 14.94 59.0929 16.352 59.0909 18V33C59.0909 33.85 58.8073 34.563 58.24 35.139C57.6727 35.715 56.9715 36.002 56.1364 36C55.3012 35.998 54.6 35.71 54.0327 35.136C53.4654 34.562 53.1818 33.85 53.1818 33V18H29.5455V24H35.4545V30H29.5455V36H35.4545V42H29.5455V48H38.4091C39.2462 48 39.9484 48.288 40.5157 48.864C41.0829 49.44 41.3656 50.152 41.3636 51C41.3617 51.848 41.078 52.561 40.5127 53.139C39.9474 53.717 39.2462 54.004 38.4091 54H5.90909ZM5.90909 48H11.8182V42H5.90909V48ZM5.90909 36H11.8182V30H5.90909V36ZM5.90909 24H11.8182V18H5.90909V24ZM5.90909 12H11.8182V6H5.90909V12ZM17.7273 48H23.6364V42H17.7273V48ZM17.7273 36H23.6364V30H17.7273V36ZM17.7273 24H23.6364V18H17.7273V24ZM17.7273 12H23.6364V6H17.7273V12ZM54.0327 59.139C53.4654 58.563 53.1818 57.85 53.1818 57V54H50.2273C49.3901 54 48.6889 53.712 48.1236 53.136C47.5583 52.56 47.2747 51.848 47.2727 51C47.2708 50.152 47.5544 49.44 48.1236 48.864C48.6929 48.288 49.3941 48 50.2273 48H53.1818V45C53.1818 44.15 53.4654 43.438 54.0327 42.864C54.6 42.29 55.3012 42.002 56.1364 42C56.9715 41.998 57.6737 42.286 58.2429 42.864C58.8122 43.442 59.0948 44.154 59.0909 45V48H62.0454C62.8826 48 63.5848 48.288 64.152 48.864C64.7193 49.44 65.002 50.152 65 51C64.998 51.848 64.7144 52.561 64.1491 53.139C63.5838 53.717 62.8826 54.004 62.0454 54H59.0909V57C59.0909 57.85 58.8073 58.563 58.24 59.139C57.6727 59.715 56.9715 60.002 56.1364 60C55.3012 59.998 54.6 59.713 54.0327 59.139ZM41.3636 30V24H47.2727V30H41.3636ZM41.3636 42V36H47.2727V42H41.3636Z" fill="#4EA24E"/>
</svg>
