<svg width="28" height="26" viewBox="0 0 28 26" fill="none" xmlns="http://www.w3.org/2000/svg">
<g clip-path="url(#clip0_2264_42512)">
<mask id="path-1-inside-1_2264_42512" fill="white">
<path fill-rule="evenodd" clip-rule="evenodd" d="M0 0H1.75V24.375H28V26H0V0ZM17.5 5.6875C17.5 5.47201 17.5922 5.26535 17.7563 5.11298C17.9204 4.9606 18.1429 4.875 18.375 4.875H25.375C25.6071 4.875 25.8296 4.9606 25.9937 5.11298C26.1578 5.26535 26.25 5.47201 26.25 5.6875V12.1875C26.25 12.403 26.1578 12.6097 25.9937 12.762C25.8296 12.9144 25.6071 13 25.375 13C25.1429 13 24.9204 12.9144 24.7563 12.762C24.5922 12.6097 24.5 12.403 24.5 12.1875V7.9625L18.1772 15.1401C18.0998 15.2279 18.0035 15.2996 17.8945 15.3506C17.7854 15.4017 17.6661 15.431 17.5441 15.4367C17.4221 15.4424 17.3002 15.4242 17.1862 15.3835C17.0722 15.3428 16.9687 15.2804 16.8822 15.2003L12.355 10.9964L5.957 19.1652C5.81704 19.3305 5.61354 19.439 5.38927 19.4678C5.165 19.4967 4.93742 19.4437 4.75435 19.3199C4.57128 19.1962 4.44698 19.0115 4.40757 18.8044C4.36816 18.5974 4.4167 18.3842 4.543 18.2098L11.543 9.27225C11.6173 9.17721 11.7129 9.09826 11.8232 9.04083C11.9335 8.9834 12.056 8.94886 12.182 8.9396C12.3081 8.93033 12.4349 8.94655 12.5536 8.98715C12.6722 9.02775 12.78 9.09175 12.8695 9.17475L17.4353 13.416L23.5287 6.5H18.375C18.1429 6.5 17.9204 6.4144 17.7563 6.26202C17.5922 6.10965 17.5 5.90299 17.5 5.6875Z"/>
</mask>
<path fill-rule="evenodd" clip-rule="evenodd" d="M0 0H1.75V24.375H28V26H0V0ZM17.5 5.6875C17.5 5.47201 17.5922 5.26535 17.7563 5.11298C17.9204 4.9606 18.1429 4.875 18.375 4.875H25.375C25.6071 4.875 25.8296 4.9606 25.9937 5.11298C26.1578 5.26535 26.25 5.47201 26.25 5.6875V12.1875C26.25 12.403 26.1578 12.6097 25.9937 12.762C25.8296 12.9144 25.6071 13 25.375 13C25.1429 13 24.9204 12.9144 24.7563 12.762C24.5922 12.6097 24.5 12.403 24.5 12.1875V7.9625L18.1772 15.1401C18.0998 15.2279 18.0035 15.2996 17.8945 15.3506C17.7854 15.4017 17.6661 15.431 17.5441 15.4367C17.4221 15.4424 17.3002 15.4242 17.1862 15.3835C17.0722 15.3428 16.9687 15.2804 16.8822 15.2003L12.355 10.9964L5.957 19.1652C5.81704 19.3305 5.61354 19.439 5.38927 19.4678C5.165 19.4967 4.93742 19.4437 4.75435 19.3199C4.57128 19.1962 4.44698 19.0115 4.40757 18.8044C4.36816 18.5974 4.4167 18.3842 4.543 18.2098L11.543 9.27225C11.6173 9.17721 11.7129 9.09826 11.8232 9.04083C11.9335 8.9834 12.056 8.94886 12.182 8.9396C12.3081 8.93033 12.4349 8.94655 12.5536 8.98715C12.6722 9.02775 12.78 9.09175 12.8695 9.17475L17.4353 13.416L23.5287 6.5H18.375C18.1429 6.5 17.9204 6.4144 17.7563 6.26202C17.5922 6.10965 17.5 5.90299 17.5 5.6875Z" fill="#DB6268"/>
<path d="M0 0V-10H-10V0H0ZM1.75 0H11.75V-10H1.75V0ZM1.75 24.375H-8.25V34.375H1.75V24.375ZM28 24.375H38V14.375H28V24.375ZM28 26V36H38V26H28ZM0 26H-10V36H0V26ZM18.375 4.875V14.875V4.875ZM24.5 7.9625H34.5V-18.518L16.9962 1.35243L24.5 7.9625ZM18.1772 15.1401L25.6758 21.7562L25.681 21.7502L18.1772 15.1401ZM16.8822 15.2003L10.0777 22.5282L10.0844 22.5344L16.8822 15.2003ZM12.355 10.9964L19.1595 3.66844L11.189 -3.73274L4.48227 4.83032L12.355 10.9964ZM5.957 19.1652L13.588 25.6281L13.7117 25.482L13.8297 25.3313L5.957 19.1652ZM4.543 18.2098L-3.32973 12.0437L-3.44654 12.1928L-3.55762 12.3463L4.543 18.2098ZM11.543 9.27225L19.4157 15.4383L19.4212 15.4313L11.543 9.27225ZM12.8695 9.17475L19.6754 1.84811L19.6703 1.84339L12.8695 9.17475ZM17.4353 13.416L10.6293 20.7426L18.1513 27.73L24.9384 20.0268L17.4353 13.416ZM23.5287 6.5L31.0319 13.1108L45.6672 -3.5H23.5287V6.5ZM0 0V10H1.75V0V-10H0V0ZM1.75 0H-8.25V24.375H1.75H11.75V0H1.75ZM1.75 24.375V34.375H28V24.375V14.375H1.75V24.375ZM28 24.375H18V26H28H38V24.375H28ZM28 26V16H0V26V36H28V26ZM0 26H10V0H0H-10V26H0ZM17.5 5.6875H27.5C27.5 8.37336 26.3442 10.7849 24.5608 12.4409L17.7563 5.11298L10.9518 -2.21496C8.84014 -0.254159 7.5 2.57066 7.5 5.6875H17.5ZM17.7563 5.11298L24.5608 12.4409C22.8024 14.0737 20.5658 14.875 18.375 14.875V4.875V-5.125C15.7201 -5.125 13.0384 -4.15254 10.9518 -2.21496L17.7563 5.11298ZM18.375 4.875V14.875H25.375V4.875V-5.125H18.375V4.875ZM25.375 4.875V14.875C23.1842 14.875 20.9476 14.0737 19.1892 12.4409L25.9937 5.11298L32.7982 -2.21496C30.7116 -4.15254 28.0299 -5.125 25.375 -5.125V4.875ZM25.9937 5.11298L19.1892 12.4409C17.4058 10.7849 16.25 8.37336 16.25 5.6875H26.25H36.25C36.25 2.57066 34.9099 -0.254159 32.7982 -2.21496L25.9937 5.11298ZM26.25 5.6875H16.25V12.1875H26.25H36.25V5.6875H26.25ZM26.25 12.1875H16.25C16.25 9.50164 17.4058 7.09014 19.1892 5.43409L25.9937 12.762L32.7982 20.09C34.9099 18.1292 36.25 15.3043 36.25 12.1875H26.25ZM25.9937 12.762L19.1892 5.43409C20.9476 3.80125 23.1842 3 25.375 3V13V23C28.0299 23 30.7116 22.0275 32.7982 20.09L25.9937 12.762ZM25.375 13V3C27.5658 3 29.8024 3.80125 31.5608 5.43409L24.7563 12.762L17.9518 20.09C20.0384 22.0275 22.7201 23 25.375 23V13ZM24.7563 12.762L31.5608 5.43409C33.3442 7.09014 34.5 9.50164 34.5 12.1875H24.5H14.5C14.5 15.3043 15.8401 18.1292 17.9518 20.09L24.7563 12.762ZM24.5 12.1875H34.5V7.9625H24.5H14.5V12.1875H24.5ZM24.5 7.9625L16.9962 1.35243L10.6735 8.53005L18.1772 15.1401L25.681 21.7502L32.0038 14.5726L24.5 7.9625ZM18.1772 15.1401L10.6787 8.52409C11.535 7.55354 12.5577 6.80774 13.6528 6.29481L17.8945 15.3506L22.1362 24.4065C23.4494 23.7914 24.6647 22.9022 25.6758 21.7562L18.1772 15.1401ZM17.8945 15.3506L13.6528 6.29481C14.7468 5.78238 15.9129 5.50165 17.0803 5.44745L17.5441 15.4367L18.0079 25.4259C19.4192 25.3604 20.8241 25.021 22.1362 24.4065L17.8945 15.3506ZM17.5441 15.4367L17.0803 5.44745C18.2476 5.39325 19.4268 5.56498 20.5504 5.96639L17.1862 15.3835L13.8221 24.8007C15.1737 25.2835 16.5966 25.4915 18.0079 25.4259L17.5441 15.4367ZM17.1862 15.3835L20.5504 5.96639C21.6748 6.36808 22.7475 7.00177 23.6801 7.86614L16.8822 15.2003L10.0844 22.5344C11.1898 23.559 12.4696 24.3175 13.8221 24.8007L17.1862 15.3835ZM16.8822 15.2003L23.6868 7.87231L19.1595 3.66844L12.355 10.9964L5.55049 18.3243L10.0777 22.5282L16.8822 15.2003ZM12.355 10.9964L4.48227 4.83032L-1.91573 12.9992L5.957 19.1652L13.8297 25.3313L20.2277 17.1624L12.355 10.9964ZM5.957 19.1652L-1.67398 12.7024C-0.124415 10.8728 1.98242 9.82364 4.11348 9.54952L5.38927 19.4678L6.66506 29.3861C9.24466 29.0543 11.7585 27.7882 13.588 25.6281L5.957 19.1652ZM5.38927 19.4678L4.11348 9.54952C6.241 9.27586 8.46853 9.76069 10.3533 11.0343L4.75435 19.3199L-0.844604 27.6056C1.40631 29.1266 4.089 29.7174 6.66506 29.3861L5.38927 19.4678ZM4.75435 19.3199L10.3533 11.0343C12.2574 12.321 13.7464 14.3879 14.2311 16.9343L4.40757 18.8044L-5.41601 20.6746C-4.85242 23.635 -3.11487 26.0715 -0.844604 27.6056L4.75435 19.3199ZM4.40757 18.8044L14.2311 16.9343C14.7194 19.4993 14.0916 22.0728 12.6436 24.0732L4.543 18.2098L-3.55762 12.3463C-5.2582 14.6957 -5.98313 17.6955 -5.41601 20.6746L4.40757 18.8044ZM4.543 18.2098L12.4157 24.3758L19.4157 15.4383L11.543 9.27225L3.67027 3.1062L-3.32973 12.0437L4.543 18.2098ZM11.543 9.27225L19.4212 15.4313C18.5873 16.498 17.5581 17.3293 16.4405 17.911L11.8232 9.04083L7.20591 0.170633C5.86768 0.867237 4.64734 1.8564 3.66477 3.11323L11.543 9.27225ZM11.8232 9.04083L16.4405 17.911C15.3244 18.492 14.1224 18.824 12.9151 18.9127L12.182 8.9396L11.449 -1.0335C9.98954 -0.926226 8.54273 -0.525237 7.20591 0.170633L11.8232 9.04083ZM12.182 8.9396L12.9151 18.9127C11.708 19.0014 10.4839 18.8481 9.31703 18.4489L12.5536 8.98715L15.7901 -0.474611C14.3859 -0.954944 12.9083 -1.14076 11.449 -1.0335L12.182 8.9396ZM12.5536 8.98715L9.31703 18.4489C8.14931 18.0495 7.03395 17.4015 6.06868 16.5061L12.8695 9.17475L19.6703 1.84339C18.5261 0.781974 17.1952 0.0060162 15.7901 -0.474611L12.5536 8.98715ZM12.8695 9.17475L6.06359 16.5014L10.6293 20.7426L17.4353 13.416L24.2412 6.08936L19.6754 1.84811L12.8695 9.17475ZM17.4353 13.416L24.9384 20.0268L31.0319 13.1108L23.5287 6.5L16.0256 -0.110814L9.93211 6.80519L17.4353 13.416ZM23.5287 6.5V-3.5H18.375V6.5V16.5H23.5287V6.5ZM18.375 6.5V-3.5C20.5658 -3.5 22.8024 -2.69875 24.5608 -1.06591L17.7563 6.26202L10.9518 13.59C13.0384 15.5275 15.7201 16.5 18.375 16.5V6.5ZM17.7563 6.26202L24.5608 -1.06591C26.3442 0.590143 27.5 3.00164 27.5 5.6875H17.5H7.5C7.5 8.80434 8.84014 11.6292 10.9518 13.59L17.7563 6.26202Z" fill="#D23B42" mask="url(#path-1-inside-1_2264_42512)"/>
</g>
<defs>
<clipPath id="clip0_2264_42512">
<rect width="28" height="26" fill="white"/>
</clipPath>
</defs>
</svg>
