<svg width="62" height="62" viewBox="0 0 62 62" fill="none" xmlns="http://www.w3.org/2000/svg">
<path d="M29.5602 6.38452H9.29115C7.75524 6.38452 6.28224 6.9946 5.19619 8.08055C4.11014 9.1665 3.5 10.6394 3.5 12.1751V52.7094C3.5 54.2452 4.11014 55.718 5.19619 56.804C6.28224 57.8899 7.75524 58.5 9.29115 58.5H49.8292C51.3651 58.5 52.8381 57.8899 53.9242 56.804C55.0102 55.718 55.6204 54.2452 55.6204 52.7094V32.4423" stroke="#0063B3" stroke-width="7" stroke-linecap="round" stroke-linejoin="round"/>
<path d="M48.0141 5.29891C49.1661 4.14709 50.7284 3.5 52.3575 3.5C53.9866 3.5 55.5489 4.14709 56.7009 5.29891C57.8528 6.45074 58.4999 8.01294 58.4999 9.64187C58.4999 11.2708 57.8528 12.833 56.7009 13.9848L30.603 40.0831C29.9155 40.77 29.0661 41.2728 28.1331 41.5452L19.8141 43.9773C19.5649 44.05 19.3008 44.0543 19.0494 43.9899C18.798 43.9255 18.5685 43.7947 18.385 43.6112C18.2015 43.4277 18.0706 43.1982 18.0062 42.9468C17.9418 42.6954 17.9462 42.4313 18.0188 42.1822L20.4511 33.864C20.7248 32.9319 21.2287 32.0836 21.9163 31.3972L48.0141 5.29891Z" stroke="#0063B3" stroke-width="7" stroke-linecap="round" stroke-linejoin="round"/>
</svg>
