<svg width="23" height="26" viewBox="0 0 23 26" fill="none" xmlns="http://www.w3.org/2000/svg">
<path d="M10.2435 10.3217C12.831 10.3217 14.9285 8.20698 14.9285 5.59835C14.9285 2.98971 12.831 0.875 10.2435 0.875C7.65611 0.875 5.55859 2.98971 5.55859 5.59835C5.55859 8.20698 7.65611 10.3217 10.2435 10.3217Z" stroke="#A4A4A4" stroke-width="1.75"/>
<path d="M13.7586 14.2504C12.6052 13.9907 11.4267 13.8612 10.2449 13.8643C5.07037 13.8643 0.875 16.2437 0.875 19.1781C0.875 22.1125 0.875 24.4918 10.2449 24.4918C16.9057 24.4918 18.8312 23.2898 19.3887 21.5398" stroke="#A4A4A4" stroke-width="1.75"/>
<path d="M20.585 14.0661C21.0201 14.5047 21.3652 15.0254 21.6006 15.5985C21.8361 16.1716 21.9572 16.7858 21.9572 17.4061C21.9572 18.0264 21.8361 18.6406 21.6006 19.2137C21.3652 19.7868 21.0201 20.3075 20.585 20.7461C20.15 21.1847 19.6335 21.5326 19.0651 21.77C18.4967 22.0074 17.8874 22.1296 17.2722 22.1296C16.6569 22.1296 16.0477 22.0074 15.4793 21.77C14.9109 21.5326 14.3944 21.1847 13.9593 20.7461L20.5838 14.0673M13.9582 20.7461C13.0795 19.8603 12.5859 18.6588 12.5859 17.4061C12.5859 16.7858 12.7071 16.1716 12.9426 15.5985C13.178 15.0254 13.5231 14.5047 13.9582 14.0661C14.3932 13.6275 14.9097 13.2795 15.4781 13.0422C16.0465 12.8048 16.6558 12.6826 17.271 12.6826C18.5136 12.6826 19.7052 13.1803 20.5838 14.0661" stroke="#A4A4A4" stroke-width="1.75" stroke-linejoin="round"/>
</svg>
