<svg width="48" height="34" viewBox="0 0 48 34" fill="none" xmlns="http://www.w3.org/2000/svg">
<path d="M24.2264 0.549805C24.8213 0.549805 25.4088 0.652617 25.9669 0.850898L46.5661 8.29012C47.2638 8.54715 47.7264 9.20809 47.7264 9.9498C47.7264 10.6915 47.2638 11.3525 46.5661 11.6095L42.3141 13.1443C43.5184 15.039 44.2014 17.2789 44.2014 19.6362V21.6998C44.2014 23.7854 44.9945 25.9371 45.8391 27.6336C46.3164 28.5882 46.8598 29.5282 47.4914 30.3948C47.7264 30.7106 47.7925 31.1218 47.6603 31.4964C47.5281 31.8709 47.2197 32.15 46.8378 32.2454L42.1378 33.4204C41.8294 33.5012 41.4989 33.4425 41.2272 33.2736C40.9555 33.1046 40.7645 32.8256 40.7058 32.5098C40.0742 29.3667 40.39 26.5467 40.86 24.5271C41.095 23.4843 41.4108 22.4195 41.8514 21.4428V19.6362C41.8514 17.4184 41.1023 15.3254 39.8025 13.6511C38.8552 12.5128 37.6287 11.5948 36.1894 11.0293L24.6597 6.49824C24.0575 6.26324 23.3745 6.55699 23.1395 7.15918C22.9045 7.76137 23.1983 8.44433 23.8005 8.67934L35.3302 13.2104C36.2408 13.5703 37.0412 14.1211 37.6948 14.7967L25.9742 19.0267C25.4161 19.225 24.8286 19.3278 24.2337 19.3278C23.6389 19.3278 23.0514 19.225 22.4933 19.0267L1.88671 11.6095C1.18906 11.3598 0.726401 10.6915 0.726401 9.9498C0.726401 9.20809 1.18906 8.54715 1.88671 8.29012L22.4859 0.850898C23.0441 0.652617 23.6316 0.549805 24.2264 0.549805ZM38.3264 28.1623C38.3264 30.7546 32.0108 33.4498 24.2264 33.4498C16.442 33.4498 10.1264 30.7546 10.1264 28.1623L11.25 17.4845L21.6928 21.2592C22.508 21.5529 23.3672 21.6998 24.2264 21.6998C25.0856 21.6998 25.9522 21.5529 26.76 21.2592L37.2028 17.4845L38.3264 28.1623Z" fill="#4EA24E"/>
</svg>
