<svg width="48" height="53" viewBox="0 0 48 53" fill="none" xmlns="http://www.w3.org/2000/svg">
<path d="M21.3333 32.8095V37.8571C17.0899 37.8571 13.0202 39.4525 10.0196 42.2924C7.01904 45.1322 5.33333 48.9839 5.33333 53H0C0 47.6452 2.24761 42.5096 6.24839 38.7232C10.2492 34.9367 15.6754 32.8095 21.3333 32.8095ZM21.3333 30.2857C12.4933 30.2857 5.33333 23.5093 5.33333 15.1429C5.33333 6.77643 12.4933 0 21.3333 0C30.1733 0 37.3333 6.77643 37.3333 15.1429C37.3333 23.5093 30.1733 30.2857 21.3333 30.2857ZM21.3333 25.2381C27.2267 25.2381 32 20.7205 32 15.1429C32 9.56524 27.2267 5.04762 21.3333 5.04762C15.44 5.04762 10.6667 9.56524 10.6667 15.1429C10.6667 20.7205 15.44 25.2381 21.3333 25.2381ZM45.3333 40.381H48V53H26.6667V40.381H29.3333V37.8571C29.3333 35.8491 30.1762 33.9233 31.6765 32.5033C33.1768 31.0834 35.2116 30.2857 37.3333 30.2857C39.4551 30.2857 41.4899 31.0834 42.9902 32.5033C44.4905 33.9233 45.3333 35.8491 45.3333 37.8571V40.381ZM40 40.381V37.8571C40 37.1878 39.7191 36.5458 39.219 36.0725C38.7189 35.5992 38.0406 35.3333 37.3333 35.3333C36.6261 35.3333 35.9478 35.5992 35.4477 36.0725C34.9476 36.5458 34.6667 37.1878 34.6667 37.8571V40.381H40Z" fill="#4EA24E"/>
</svg>
