<svg width="29" height="29" viewBox="0 0 29 29" fill="none" xmlns="http://www.w3.org/2000/svg">
<path d="M9.74882 24.15H2.54976C2.07244 24.15 1.61466 23.9604 1.27714 23.6228C0.939618 23.2852 0.75 22.8274 0.75 22.35V2.55C0.75 2.07261 0.939618 1.61477 1.27714 1.27721C1.61466 0.939642 2.07244 0.75 2.54976 0.75H20.5474C21.0247 0.75 21.4825 0.939642 21.82 1.27721C22.1576 1.61477 22.3472 2.07261 22.3472 2.55V10.65M9.74882 6.15H16.9479M6.14929 11.55H16.9479M6.14929 16.95H15.1481M27.0038 17.694L17.8526 26.85L13.3532 27.75L14.253 23.25L23.409 14.094C23.8849 13.6181 24.5304 13.3507 25.2034 13.3507C25.8764 13.3507 26.5219 13.6181 26.9978 14.094L27.0086 14.1036C27.2441 14.3396 27.4308 14.6197 27.558 14.9279C27.6852 15.2361 27.7504 15.5664 27.75 15.8998C27.7496 16.2332 27.6834 16.5633 27.5554 16.8712C27.4273 17.179 27.2399 17.4586 27.0038 17.694Z" stroke="#000000" stroke-width="1.5" stroke-linecap="round" stroke-linejoin="round"/>
</svg>
