<svg width="50" height="52" viewBox="0 0 50 52" fill="none" xmlns="http://www.w3.org/2000/svg">
<path d="M25 15.5172L38.3333 22.4138V50H11.6667V22.4138L25 15.5172ZM25 15.5172V0M0 50H50M5 50V29.3103H11.6667M45 50V29.3103H38.3333M21.6667 50V39.6552H28.3333V50M25 1.72414H35V8.62069H25M25 32.7586C24.1159 32.7586 23.2681 32.3953 22.643 31.7486C22.0179 31.102 21.6667 30.2249 21.6667 29.3103C21.6667 28.3958 22.0179 27.5187 22.643 26.872C23.2681 26.2254 24.1159 25.8621 25 25.8621C25.8841 25.8621 26.7319 26.2254 27.357 26.872C27.9821 27.5187 28.3333 28.3958 28.3333 29.3103C28.3333 30.2249 27.9821 31.102 27.357 31.7486C26.7319 32.3953 25.8841 32.7586 25 32.7586Z" stroke="#CC252C" stroke-opacity="0.9" stroke-width="3"/>
</svg>
