<svg width="74" height="74" viewBox="0 0 74 74" fill="none" xmlns="http://www.w3.org/2000/svg">
<path d="M48.5625 69.375C44.9036 69.375 41.3268 68.29 38.2845 66.2572C35.2422 64.2244 32.871 61.3351 31.4707 57.9547C30.0705 54.5742 29.7042 50.8545 30.418 47.2658C31.1318 43.6772 32.8938 40.3808 35.481 37.7935C38.0683 35.2063 41.3647 33.4443 44.9533 32.7305C48.542 32.0167 52.2617 32.383 55.6422 33.7832C59.0226 35.1835 61.9119 37.5547 63.9447 40.597C65.9775 43.6393 67.0625 47.2161 67.0625 50.875C67.0625 55.7815 65.1134 60.4871 61.644 63.9565C58.1746 67.4259 53.469 69.375 48.5625 69.375ZM48.5625 37C45.8183 37 43.1357 37.8138 40.854 39.3384C38.5722 40.863 36.7938 43.03 35.7437 45.5653C34.6935 48.1006 34.4187 50.8904 34.9541 53.5819C35.4895 56.2734 36.8109 58.7457 38.7514 60.6861C40.6919 62.6266 43.1641 63.948 45.8556 64.4834C48.5471 65.0188 51.3369 64.744 53.8722 63.6938C56.4076 62.6437 58.5745 60.8653 60.0992 58.5835C61.6238 56.3018 62.4375 53.6192 62.4375 50.875C62.4375 47.1951 60.9757 43.666 58.3736 41.0639C55.7716 38.4618 52.2424 37 48.5625 37Z" fill="#C837AB"/>
<path d="M52.2394 57.8125L46.25 51.8231V41.625H50.875V49.9269L55.5 54.5519L52.2394 57.8125Z" fill="#C837AB"/>
<path d="M64.75 13.875C64.75 12.6484 64.2627 11.472 63.3954 10.6046C62.528 9.73728 61.3516 9.25 60.125 9.25H50.875V4.625H46.25V9.25H27.75V4.625H23.125V9.25H13.875C12.6484 9.25 11.472 9.73728 10.6046 10.6046C9.73728 11.472 9.25 12.6484 9.25 13.875V60.125C9.25 61.3516 9.73728 62.528 10.6046 63.3954C11.472 64.2627 12.6484 64.75 13.875 64.75H23.125V60.125H13.875V13.875H23.125V18.5H27.75V13.875H46.25V18.5H50.875V13.875H60.125V27.75H64.75V13.875Z" fill="#C837AB"/>
</svg>
