<svg width="22" height="25" viewBox="0 0 22 25" fill="none" xmlns="http://www.w3.org/2000/svg">
<path d="M19.954 19C21.084 19 22 19.915 22 21.045V21.25C22 23.118 20.429 25 16.5 25C12.571 25 11 23.125 11 21.25V21.045C11 19.915 11.916 19 13.046 19H19.954ZM14.25 0C14.4489 0 14.6397 0.0790175 14.7803 0.21967C14.921 0.360322 15 0.551088 15 0.75V2H15.25C15.9793 2 16.6788 2.28973 17.1945 2.80546C17.7103 3.32118 18 4.02065 18 4.75V11.292C17.1249 10.9384 16.1529 10.9057 15.256 11.1996C14.3591 11.4936 13.595 12.0952 13.0988 12.8981C12.6027 13.701 12.4064 14.6535 12.5448 15.5872C12.6832 16.5209 13.1473 17.3755 13.855 18H13.045C12.2374 18 11.4629 18.3208 10.8919 18.8919C10.3208 19.4629 10 20.2374 10 21.045V21.25C9.99907 21.8538 10.1283 22.4507 10.379 23H2.75C2.02065 23 1.32118 22.7103 0.805456 22.1945C0.289731 21.6788 0 20.9793 0 20.25V4.75C0 4.02065 0.289731 3.32118 0.805456 2.80546C1.32118 2.28973 2.02065 2 2.75 2H3V0.75C3 0.551088 3.07902 0.360322 3.21967 0.21967C3.36032 0.0790175 3.55109 0 3.75 0C3.94891 0 4.13968 0.0790175 4.28033 0.21967C4.42098 0.360322 4.5 0.551088 4.5 0.75V2H8.25V0.75C8.25 0.551088 8.32902 0.360322 8.46967 0.21967C8.61032 0.0790175 8.80109 0 9 0C9.19891 0 9.38968 0.0790175 9.53033 0.21967C9.67098 0.360322 9.75 0.551088 9.75 0.75V2H13.5V0.75C13.5 0.551088 13.579 0.360322 13.7197 0.21967C13.8603 0.0790175 14.0511 0 14.25 0ZM16.5 12C17.2956 12 18.0587 12.3161 18.6213 12.8787C19.1839 13.4413 19.5 14.2044 19.5 15C19.5 15.7956 19.1839 16.5587 18.6213 17.1213C18.0587 17.6839 17.2956 18 16.5 18C15.7044 18 14.9413 17.6839 14.3787 17.1213C13.8161 16.5587 13.5 15.7956 13.5 15C13.5 14.2044 13.8161 13.4413 14.3787 12.8787C14.9413 12.3161 15.7044 12 16.5 12ZM4.75 16C4.55109 16 4.36032 16.079 4.21967 16.2197C4.07902 16.3603 4 16.5511 4 16.75C4 16.9489 4.07902 17.1397 4.21967 17.2803C4.36032 17.421 4.55109 17.5 4.75 17.5H8.25L8.327 17.496C8.51153 17.4769 8.68242 17.39 8.80665 17.2522C8.93088 17.1145 8.99964 16.9355 8.99964 16.75C8.99964 16.5645 8.93088 16.3855 8.80665 16.2478C8.68242 16.11 8.51153 16.0231 8.327 16.004L8.25 16H4.75ZM4.75 11.5C4.55109 11.5 4.36032 11.579 4.21967 11.7197C4.07902 11.8603 4 12.0511 4 12.25C4 12.4489 4.07902 12.6397 4.21967 12.7803C4.36032 12.921 4.55109 13 4.75 13H10.75L10.827 12.996C11.0115 12.9769 11.1824 12.89 11.3067 12.7522C11.4309 12.6145 11.4996 12.4355 11.4996 12.25C11.4996 12.0645 11.4309 11.8855 11.3067 11.7478C11.1824 11.61 11.0115 11.5231 10.827 11.504L10.75 11.5H4.75ZM4.75 7C4.55109 7 4.36032 7.07902 4.21967 7.21967C4.07902 7.36032 4 7.55109 4 7.75C4 7.94891 4.07902 8.13968 4.21967 8.28033C4.36032 8.42098 4.55109 8.5 4.75 8.5H13.25L13.327 8.496C13.5115 8.47687 13.6824 8.39002 13.8067 8.25224C13.9309 8.11446 13.9996 7.93552 13.9996 7.75C13.9996 7.56448 13.9309 7.38554 13.8067 7.24776C13.6824 7.10998 13.5115 7.02313 13.327 7.004L13.25 7H4.75Z" fill="#4EA24E"/>
</svg>
