<svg width="23" height="26" viewBox="0 0 23 26" fill="none" xmlns="http://www.w3.org/2000/svg">
<path d="M10.2455 10.3217C12.8329 10.3217 14.9304 8.20698 14.9304 5.59835C14.9304 2.98971 12.8329 0.875 10.2455 0.875C7.65807 0.875 5.56055 2.98971 5.56055 5.59835C5.56055 8.20698 7.65807 10.3217 10.2455 10.3217Z" stroke="#D23B42" stroke-width="1.75"/>
<path d="M13.7586 14.2504C12.6052 13.9907 11.4267 13.8612 10.2449 13.8643C5.07037 13.8643 0.875 16.2437 0.875 19.1781C0.875 22.1125 0.875 24.4918 10.2449 24.4918C16.9057 24.4918 18.8312 23.2898 19.3887 21.5398" stroke="#D23B42" stroke-width="1.75"/>
<path d="M20.587 14.0661C21.022 14.5047 21.3671 15.0254 21.6026 15.5985C21.838 16.1716 21.9592 16.7858 21.9592 17.4061C21.9592 18.0264 21.838 18.6406 21.6026 19.2137C21.3671 19.7868 21.022 20.3075 20.587 20.7461C20.1519 21.1847 19.6354 21.5326 19.067 21.77C18.4986 22.0074 17.8894 22.1296 17.2741 22.1296C16.6589 22.1296 16.0496 22.0074 15.4812 21.77C14.9128 21.5326 14.3963 21.1847 13.9613 20.7461L20.5858 14.0673M13.9601 20.7461C13.0815 19.8603 12.5879 18.6588 12.5879 17.4061C12.5879 16.7858 12.7091 16.1716 12.9445 15.5985C13.18 15.0254 13.5251 14.5047 13.9601 14.0661C14.3952 13.6275 14.9116 13.2795 15.4801 13.0422C16.0485 12.8048 16.6577 12.6826 17.273 12.6826C18.5155 12.6826 19.7072 13.1803 20.5858 14.0661" stroke="#D23B42" stroke-width="1.75" stroke-linejoin="round"/>
</svg>
