<svg width="27" height="29" viewBox="0 0 27 29" fill="none" xmlns="http://www.w3.org/2000/svg">
<path d="M13.6799 13.8936C13.6461 13.8936 13.6236 13.8936 13.5899 13.8936C13.5336 13.8816 13.4549 13.8816 13.3874 13.8936C10.1249 13.786 7.66113 11.0599 7.66113 7.70008C7.66113 4.2805 10.2824 1.49463 13.4999 1.49463C16.7174 1.49463 19.3386 4.2805 19.3386 7.70008C19.3274 11.0599 16.8524 13.786 13.7136 13.8936C13.7024 13.8936 13.6911 13.8936 13.6799 13.8936ZM13.4999 3.28811C11.2161 3.28811 9.34863 5.2729 9.34863 7.70008C9.34863 10.0914 11.1036 12.0164 13.3424 12.1001C13.3986 12.0881 13.5561 12.0881 13.7024 12.1001C15.9074 11.9925 17.6399 10.0675 17.6511 7.70008C17.6511 5.2729 15.7836 3.28811 13.4999 3.28811Z" fill="#0C0C0D"/>
<path d="M13.6901 26.9622C11.4851 26.9622 9.26883 26.3643 7.59258 25.1687C6.02883 24.0687 5.17383 22.5621 5.17383 20.9241C5.17383 19.286 6.02883 17.7676 7.59258 16.6556C10.9676 14.2763 16.4351 14.2763 19.7876 16.6556C21.3401 17.7556 22.2063 19.2621 22.2063 20.9002C22.2063 22.5382 21.3513 24.0567 19.7876 25.1687C18.1001 26.3643 15.8951 26.9622 13.6901 26.9622ZM8.52633 18.1621C7.44633 18.9274 6.86133 19.9078 6.86133 20.9361C6.86133 21.9524 7.45758 22.9328 8.52633 23.6861C11.3276 25.6828 16.0526 25.6828 18.8538 23.6861C19.9338 22.9208 20.5188 21.9404 20.5188 20.9121C20.5188 19.8958 19.9226 18.9154 18.8538 18.1621C16.0526 16.1773 11.3276 16.1773 8.52633 18.1621Z" fill="#0C0C0D"/>
</svg>
