<svg width="25" height="25" viewBox="0 0 25 25" fill="none" xmlns="http://www.w3.org/2000/svg">
<path d="M12.5 25C8.84792 25 5.85156 24.5349 3.51094 23.6047C1.17031 22.6745 0 21.4766 0 20.0109V4.6875C0 3.38958 1.21875 2.28385 3.65625 1.37031C6.09375 0.456771 9.04167 0 12.5 0C15.9583 0 18.9062 0.456771 21.3438 1.37031C23.7812 2.28385 25 3.38958 25 4.6875V20.0125C25 21.476 23.8297 22.6734 21.4891 23.6047C19.1484 24.5359 16.1521 25.001 12.5 25ZM12.5 7.64062C14.7375 7.64062 16.9927 7.32865 19.2656 6.70469C21.5406 6.08073 22.901 5.40104 23.3469 4.66562C22.9198 3.89062 21.5812 3.17969 19.3312 2.53281C17.0812 1.88594 14.8042 1.5625 12.5 1.5625C10.2302 1.5625 7.95625 1.87448 5.67812 2.49844C3.4 3.1224 2.03802 3.80469 1.59219 4.54531C2.01719 5.32656 3.35885 6.03802 5.61719 6.67969C7.87552 7.32135 10.1698 7.64062 12.5 7.64062ZM12.5 15.5047C13.5729 15.5047 14.6276 15.4526 15.6641 15.3484C16.7005 15.2443 17.6906 15.0896 18.6344 14.8844C19.5781 14.6792 20.4557 14.4234 21.2672 14.1172C22.0786 13.8109 22.8021 13.4646 23.4375 13.0781V6.67969C22.801 7.0651 22.0771 7.41094 21.2656 7.71719C20.4563 8.02344 19.5792 8.27864 18.6344 8.48281C17.6896 8.68906 16.6995 8.84427 15.6641 8.94844C14.6286 9.0526 13.574 9.10469 12.5 9.10469C11.3854 9.10469 10.3026 9.04739 9.25156 8.93281C8.20052 8.81823 7.20781 8.65885 6.27344 8.45469C5.33906 8.25052 4.47292 7.99948 3.675 7.70156C2.87708 7.40364 2.17292 7.06302 1.5625 6.67969V13.0797C2.17396 13.4651 2.87813 13.8057 3.675 14.1016C4.47188 14.3974 5.33802 14.6484 6.27344 14.8547C7.20677 15.0599 8.19948 15.2198 9.25156 15.3344C10.3036 15.449 11.3865 15.5057 12.5 15.5047ZM12.5 23.4375C13.8385 23.4375 15.1109 23.3615 16.3172 23.2094C17.5234 23.0573 18.6078 22.8417 19.5703 22.5625C20.5328 22.2833 21.3505 21.9495 22.0234 21.5609C22.6964 21.1724 23.1677 20.7531 23.4375 20.3031V14.6422C22.801 15.0276 22.0771 15.3734 21.2656 15.6797C20.4563 15.9859 19.5792 16.2417 18.6344 16.4469C17.6896 16.6521 16.6995 16.8068 15.6641 16.9109C14.6286 17.0151 13.574 17.0672 12.5 17.0672C11.3854 17.0672 10.3026 17.0099 9.25156 16.8953C8.20052 16.7807 7.20781 16.6214 6.27344 16.4172C5.33906 16.213 4.47292 15.962 3.675 15.6641C2.87708 15.3682 2.17292 15.0276 1.5625 14.6422V20.3125C1.83333 20.7833 2.30365 21.2062 2.97344 21.5812C3.64323 21.9562 4.45885 22.2828 5.42031 22.5609C6.38177 22.8391 7.46771 23.0552 8.67812 23.2094C9.88854 23.3635 11.1625 23.4396 12.5 23.4375Z" fill="black"/>
</svg>
