<svg width="17" height="21" viewBox="0 0 17 21" fill="none" xmlns="http://www.w3.org/2000/svg">
<path d="M5.71875 11.6719L8.01562 9.9375L10.3125 11.6719L9.46875 8.8125L11.7656 6.98438H8.90625L8.01562 4.17188L7.125 6.98438H4.26562L6.5625 8.8125L5.71875 11.6719ZM16.0312 7.96875C16.0312 3.5625 12.4219 0 8.01562 0C3.60938 0 0 3.5625 0 7.96875C0 10.0312 0.796875 11.8594 2.01562 13.2656V21L8.01562 18.9844L14.0156 21V13.2656C15.2344 11.8594 16.0312 10.0312 16.0312 7.96875ZM8.01562 1.96875C11.3438 1.96875 14.0156 4.6875 14.0156 7.96875C14.0156 11.2969 11.3438 13.9688 8.01562 13.9688C4.6875 13.9688 2.01562 11.2969 2.01562 7.96875C2.01562 4.6875 4.6875 1.96875 8.01562 1.96875ZM8.01562 16.9688L4.03125 18V14.9062C5.20312 15.5625 6.5625 15.9844 8.01562 15.9844C9.46875 15.9844 10.8281 15.5625 12 14.9062V18L8.01562 16.9688Z" fill="white"/>
</svg>
