<svg width="28" height="22" viewBox="0 0 28 22" fill="none" xmlns="http://www.w3.org/2000/svg">
<path d="M12.7267 11.1738C12.7267 11.5429 12.3917 11.842 11.9783 11.842H5.9914C5.4153 11.8414 5.05599 11.2842 5.34465 10.839C5.47829 10.6329 5.72468 10.5059 5.9914 10.5056H11.9783C12.3917 10.5056 12.7267 10.8048 12.7267 11.1738ZM11.9783 6.94197H5.9914C5.4153 6.9426 5.05599 7.4998 5.34465 7.94495C5.47829 8.15104 5.72468 8.27806 5.9914 8.27835H11.9783C12.5544 8.27772 12.9137 7.72051 12.6251 7.27536C12.4915 7.06927 12.2451 6.94226 11.9783 6.94197ZM25.6984 13.9156V20.9739C25.6998 21.4883 25.077 21.811 24.5774 21.5549C24.5769 21.5546 24.5779 21.5551 24.5774 21.5549L21.4577 19.9616L18.3395 21.5541C17.8406 21.8113 17.2169 21.4898 17.2169 20.9754V18.0784H2.0001C1.03571 18.0784 0.253906 17.3804 0.253906 16.5193V2.26467C0.253906 1.4036 1.03571 0.705566 2.0001 0.705566H23.9522C24.9166 0.705566 25.6984 1.4036 25.6984 2.26467V5.75929C28.3591 7.95914 28.3591 11.7158 25.6984 13.9156ZM21.4577 5.60561C17.8091 5.60561 15.5287 9.13214 17.353 11.9534C19.1773 14.7746 23.7381 14.7746 25.5624 11.9534C25.9783 11.31 26.1973 10.5803 26.1973 9.83745C26.1973 7.50026 24.0753 5.60561 21.4577 5.60561ZM17.2169 16.742V13.9156C13.7071 10.9911 15.0594 5.77083 19.6509 4.51921C21.1585 4.10826 22.7844 4.22227 24.2017 4.8383V2.26467C24.2017 2.14166 24.09 2.04194 23.9522 2.04194H2.0001C1.86232 2.04193 1.75065 2.14166 1.75065 2.26467V16.5193C1.75065 16.6423 1.86233 16.742 2.0001 16.742H17.2169ZM24.2017 14.8366C22.4711 15.5954 20.4443 15.5954 18.7137 14.8366V19.8224L21.0835 18.6118C21.315 18.4925 21.6003 18.4925 21.8319 18.6118L24.2017 19.8224V14.8366Z" fill="black"/>
</svg>
