<svg width="57" height="65" viewBox="0 0 57 65" fill="none" xmlns="http://www.w3.org/2000/svg">
<path d="M2.5 59.7727H28.75M20 18.4091H22.9167M20 31.1364H22.9167M20 43.8636H22.9167M34.5833 18.4091H37.5M34.5833 31.1364H37.5M8.33333 59.7727V8.86364C8.33333 7.17589 8.94791 5.55728 10.0419 4.36387C11.1358 3.17045 12.6196 2.5 14.1667 2.5H43.3333C44.8804 2.5 46.3642 3.17045 47.4581 4.36387C48.5521 5.55728 49.1667 7.17589 49.1667 8.86364V31.1364" stroke="#5932EA" stroke-width="5" stroke-linecap="round" stroke-linejoin="round"/>
<path d="M50.3146 52.561C50.3146 52.2958 50.1973 52.0415 49.9886 51.8539C49.7799 51.6664 49.4968 51.561 49.2017 51.561H40.2985C40.0033 51.561 39.7202 51.6664 39.5115 51.8539C39.3028 52.0415 39.1855 52.2958 39.1855 52.561C39.1855 52.8263 39.3028 53.0806 39.5115 53.2681C39.7202 53.4557 40.0033 53.561 40.2985 53.561H49.2017C49.4968 53.561 49.7799 53.4557 49.9886 53.2681C50.1973 53.0806 50.3146 52.8263 50.3146 52.561ZM50.3146 57.8944C50.3146 57.6292 50.1973 57.3748 49.9886 57.1873C49.7799 56.9997 49.4968 56.8944 49.2017 56.8944H40.2985C40.0033 56.8944 39.7202 56.9997 39.5115 57.1873C39.3028 57.3748 39.1855 57.6292 39.1855 57.8944C39.1855 58.1596 39.3028 58.4139 39.5115 58.6015C39.7202 58.789 40.0033 58.8944 40.2985 58.8944H49.2017C49.4968 58.8944 49.7799 58.789 49.9886 58.6015C50.1973 58.4139 50.3146 58.1596 50.3146 57.8944Z" fill="#1C7085"/>
<path fill-rule="evenodd" clip-rule="evenodd" d="M37.3306 38.2275C36.2484 38.2275 35.2105 38.6138 34.4452 39.3015C33.6799 39.9891 33.25 40.9217 33.25 41.8942V60.5609C33.25 61.5333 33.6799 62.466 34.4452 63.1536C35.2105 63.8412 36.2484 64.2275 37.3306 64.2275H52.1694C53.2516 64.2275 54.2895 63.8412 55.0548 63.1536C55.8201 62.466 56.25 61.5333 56.25 60.5609V45.8515C56.25 45.3435 56.066 44.8502 55.7247 44.4449L51.2761 39.1542C51.034 38.8664 50.721 38.6329 50.3615 38.4721C50.0021 38.3113 49.6061 38.2276 49.2046 38.2275H37.3306ZM35.4758 41.8942C35.4758 40.9742 36.3068 40.2275 37.3306 40.2275H48.0887V46.0902C48.0887 46.6422 48.5873 47.0902 49.2016 47.0902H54.0242V60.5609C54.0242 61.4809 53.1932 62.2275 52.1694 62.2275H37.3306C36.3068 62.2275 35.4758 61.4809 35.4758 60.5609V41.8942Z" fill="#1C7085"/>
</svg>
