<svg width="29" height="31" viewBox="0 0 29 31" fill="none" xmlns="http://www.w3.org/2000/svg">
<path d="M10.1601 28.9558H5.45835C3.11912 28.9558 1.99023 27.7893 1.99023 25.3811V5.56347C1.99023 3.15525 3.13076 1.98877 5.45835 1.98877H10.1601C12.4993 1.98877 13.6282 3.15525 13.6282 5.56347V25.3811C13.6282 27.7893 12.4877 28.9558 10.1601 28.9558ZM5.45835 3.87019C3.98033 3.87019 3.73593 4.29664 3.73593 5.56347V25.3811C3.73593 26.6479 3.98033 27.0744 5.45835 27.0744H10.1601C11.6381 27.0744 11.8825 26.6479 11.8825 25.3811V5.56347C11.8825 4.29664 11.6381 3.87019 10.1601 3.87019H5.45835Z" fill="black"/>
<path d="M23.5429 17.6673H18.8412C16.5019 17.6673 15.373 16.5008 15.373 14.0926V5.56347C15.373 3.15525 16.5136 1.98877 18.8412 1.98877H23.5429C25.8821 1.98877 27.011 3.15525 27.011 5.56347V14.0926C27.011 16.5008 25.8705 17.6673 23.5429 17.6673ZM18.8412 3.87019C17.3631 3.87019 17.1187 4.29664 17.1187 5.56347V14.0926C17.1187 15.3594 17.3631 15.7859 18.8412 15.7859H23.5429C25.0209 15.7859 25.2653 15.3594 25.2653 14.0926V5.56347C25.2653 4.29664 25.0209 3.87019 23.5429 3.87019H18.8412Z" fill="black"/>
<path d="M23.5429 28.9554H18.8412C16.5019 28.9554 15.373 27.789 15.373 25.3807V23.123C15.373 20.7148 16.5136 19.5483 18.8412 19.5483H23.5429C25.8821 19.5483 27.011 20.7148 27.011 23.123V25.3807C27.011 27.789 25.8705 28.9554 23.5429 28.9554ZM18.8412 21.4298C17.3631 21.4298 17.1187 21.8562 17.1187 23.123V25.3807C17.1187 26.6476 17.3631 27.074 18.8412 27.074H23.5429C25.0209 27.074 25.2653 26.6476 25.2653 25.3807V23.123C25.2653 21.8562 25.0209 21.4298 23.5429 21.4298H18.8412Z" fill="black"/>
</svg>
