<svg width="29" height="32" viewBox="0 0 29 32" fill="none" xmlns="http://www.w3.org/2000/svg">
<path d="M9.84436 28.5993H19.3412C24.1133 28.5993 24.968 26.5395 25.2173 24.0319L26.1076 13.7967C26.4281 10.675 25.5972 8.12903 20.5283 8.12903H8.65726C3.58834 8.12903 2.75737 10.675 3.07789 13.7967L3.96821 24.0319C4.2175 26.5395 5.07221 28.5993 9.84436 28.5993Z" stroke="#292D32" stroke-width="1.5" stroke-miterlimit="10" stroke-linecap="round" stroke-linejoin="round"/>
<path d="M9.84375 8.12905V7.10553C9.84375 4.84101 9.84375 3.01147 13.6425 3.01147H15.5418C19.3405 3.01147 19.3405 4.84101 19.3405 7.10553V8.12905" stroke="#292D32" stroke-width="1.5" stroke-miterlimit="10" stroke-linecap="round" stroke-linejoin="round"/>
<path d="M16.9671 17.0847V18.3641C16.9671 18.3769 16.9671 18.3769 16.9671 18.3897C16.9671 19.7842 16.9553 20.9229 14.5929 20.9229C12.2425 20.9229 12.2188 19.797 12.2188 18.4025V17.0847C12.2188 15.8053 12.2188 15.8053 13.4058 15.8053H15.78C16.9671 15.8053 16.9671 15.8053 16.9671 17.0847Z" stroke="#292D32" stroke-width="1.5" stroke-miterlimit="10" stroke-linecap="round" stroke-linejoin="round"/>
<path d="M26.0481 14.526C23.3059 16.6754 20.172 17.9548 16.9668 18.3898" stroke="#292D32" stroke-width="1.5" stroke-miterlimit="10" stroke-linecap="round" stroke-linejoin="round"/>
<path d="M3.45703 14.8713C6.12801 16.8416 9.14324 18.0314 12.2178 18.4025" stroke="#292D32" stroke-width="1.5" stroke-miterlimit="10" stroke-linecap="round" stroke-linejoin="round"/>
</svg>
