<svg width="29" height="31" viewBox="0 0 29 31" fill="none" xmlns="http://www.w3.org/2000/svg">
<path d="M9.75061 28.1466H19.2474C24.0195 28.1466 24.8743 26.0867 25.1235 23.5791L26.0139 13.344C26.3344 10.2223 25.5034 7.67627 20.4345 7.67627H8.56351C3.49459 7.67627 2.66362 10.2223 2.98414 13.344L3.87446 23.5791C4.12375 26.0867 4.97846 28.1466 9.75061 28.1466Z" stroke="#292D32" stroke-width="1.5" stroke-miterlimit="10" stroke-linecap="round" stroke-linejoin="round"/>
<path d="M9.75 7.67641V6.6529C9.75 4.38837 9.75 2.55884 13.5487 2.55884H15.4481C19.2468 2.55884 19.2468 4.38837 19.2468 6.6529V7.67641" stroke="#292D32" stroke-width="1.5" stroke-miterlimit="10" stroke-linecap="round" stroke-linejoin="round"/>
<path d="M16.8734 16.6319V17.9113C16.8734 17.9241 16.8734 17.9241 16.8734 17.9369C16.8734 19.3315 16.8615 20.4701 14.4992 20.4701C12.1487 20.4701 12.125 19.3442 12.125 17.9497V16.6319C12.125 15.3525 12.125 15.3525 13.3121 15.3525H15.6863C16.8734 15.3525 16.8734 15.3525 16.8734 16.6319Z" stroke="#292D32" stroke-width="1.5" stroke-miterlimit="10" stroke-linecap="round" stroke-linejoin="round"/>
<path d="M25.9544 14.0732C23.2122 16.2226 20.0782 17.502 16.873 17.937" stroke="#292D32" stroke-width="1.5" stroke-miterlimit="10" stroke-linecap="round" stroke-linejoin="round"/>
<path d="M3.36328 14.4189C6.03426 16.3892 9.04949 17.579 12.1241 17.9501" stroke="#292D32" stroke-width="1.5" stroke-miterlimit="10" stroke-linecap="round" stroke-linejoin="round"/>
</svg>
