<svg width="37" height="32" viewBox="0 0 37 32" fill="none" xmlns="http://www.w3.org/2000/svg">
<path d="M25.7377 27.1039H10.8527C4.89866 27.1039 3.41016 25.8686 3.41016 20.9275V11.0453C3.41016 6.10417 4.89866 4.8689 10.8527 4.8689H25.7377C31.6918 4.8689 33.1803 6.10417 33.1803 11.0453V20.9275C33.1803 25.8686 31.6918 27.1039 25.7377 27.1039Z" stroke="black" stroke-width="1.75" stroke-linecap="round" stroke-linejoin="round"/>
<path d="M21.2725 11.0454H28.715" stroke="black" stroke-width="1.75" stroke-linecap="round" stroke-linejoin="round"/>
<path d="M22.7607 15.9863H28.7148" stroke="black" stroke-width="1.75" stroke-linecap="round" stroke-linejoin="round"/>
<path d="M25.7383 20.9275H28.7153" stroke="black" stroke-width="1.75" stroke-linecap="round" stroke-linejoin="round"/>
<path d="M13.0868 15.1091C14.5747 15.1091 15.781 14.1081 15.781 12.8733C15.781 11.6385 14.5747 10.6375 13.0868 10.6375C11.5988 10.6375 10.3926 11.6385 10.3926 12.8733C10.3926 14.1081 11.5988 15.1091 13.0868 15.1091Z" stroke="black" stroke-width="1.75" stroke-linecap="round" stroke-linejoin="round"/>
<path d="M18.2955 21.3347C18.0871 19.5436 16.3753 18.1354 14.217 17.9748C13.4728 17.913 12.7136 17.913 11.9545 17.9748C9.79615 18.1477 8.08437 19.5436 7.87598 21.3347" stroke="black" stroke-width="1.75" stroke-linecap="round" stroke-linejoin="round"/>
</svg>
