<svg width="55" height="63" viewBox="0 0 55 63" fill="none" xmlns="http://www.w3.org/2000/svg">
<path d="M3 60.2727H29.25M20.5 18.9091H23.4167M20.5 31.6364H23.4167M20.5 44.3636H23.4167M35.0833 18.9091H38M35.0833 31.6364H38M8.83333 60.2727V9.36364C8.83333 7.67589 9.44791 6.05728 10.5419 4.86387C11.6358 3.67045 13.1196 3 14.6667 3H43.8333C45.3804 3 46.8642 3.67045 47.9581 4.86387C49.0521 6.05728 49.6667 7.67589 49.6667 9.36364V31.6364" stroke="#5932EA" stroke-width="5" stroke-linecap="round" stroke-linejoin="round"/>
<path d="M44.25 40.29C46.9657 40.29 49.5722 41.3873 51.4951 43.3438C53.4183 45.3005 54.5 47.9566 54.5 50.7275C54.5 53.4985 53.4183 56.1546 51.4951 58.1113C49.5722 60.0678 46.9657 61.165 44.25 61.165C41.5343 61.165 38.9278 60.0678 37.0049 58.1113C35.0817 56.1546 34 53.4985 34 50.7275C34 47.9566 35.0817 45.3005 37.0049 43.3438C38.9278 41.3873 41.5343 40.29 44.25 40.29ZM48.3887 44.7812C48.1231 44.7412 47.8521 44.7549 47.5918 44.8213C47.3318 44.8877 47.0875 45.0051 46.873 45.167C46.7121 45.2885 46.5697 45.4331 46.4512 45.5957L46.3408 45.7646L43.0781 51.2988L41.8545 50.0527V50.0518C41.4732 49.6639 40.9541 49.4444 40.4111 49.4443C39.868 49.4443 39.3482 49.6637 38.9668 50.0518C38.5856 50.4396 38.373 50.964 38.373 51.5088C38.373 52.0536 38.5856 52.578 38.9668 52.9658L41.3438 55.3799V55.3809C41.6444 55.6873 42.0103 55.9207 42.4141 56.0625C42.818 56.2043 43.2493 56.2502 43.6738 56.1973C44.0982 56.1443 44.5048 55.9942 44.8623 55.7578C45.1752 55.5509 45.4429 55.2826 45.6514 54.9707L45.7373 54.835L49.8379 47.8779C49.9745 47.6458 50.0647 47.3889 50.1035 47.1221C50.1423 46.8553 50.1289 46.583 50.0645 46.3213C49.9999 46.0596 49.8851 45.8132 49.7266 45.5957C49.5679 45.3781 49.3682 45.1936 49.1387 45.0537C48.9091 44.9138 48.6542 44.8213 48.3887 44.7812Z" fill="#296991" stroke="#5932EA"/>
</svg>
