<svg width="50" height="50" viewBox="0 0 50 50" fill="none" xmlns="http://www.w3.org/2000/svg">
<path d="M27.6042 5.72917H32.8125C33.6413 5.72917 34.4362 6.05841 35.0222 6.64446C35.6083 7.23051 35.9375 8.02537 35.9375 8.85417M27.1875 39.875L19.4375 40.9792L20.5417 33.3333L40.4375 13.4583C41.3261 12.6303 42.5014 12.1796 43.7158 12.201C44.9302 12.2224 46.0888 12.7144 46.9477 13.5732C47.8065 14.432 48.2984 15.5907 48.3199 16.8051C48.3413 18.0194 47.8905 19.1947 47.0625 20.0833L27.1875 39.875ZM11.4583 1.5625H26.0417C26.0417 1.5625 27.6042 1.5625 27.6042 3.125V8.33333C27.6042 8.33333 27.6042 9.89583 26.0417 9.89583H11.4583C11.4583 9.89583 9.89584 9.89583 9.89584 8.33333V3.125C9.89584 3.125 9.89584 1.5625 11.4583 1.5625Z" stroke="white" stroke-width="2" stroke-linecap="round" stroke-linejoin="round"/>
<path d="M35.9375 39.0628V45.3128C35.9375 46.1416 35.6083 46.9365 35.0222 47.5225C34.4362 48.1086 33.6413 48.4378 32.8125 48.4378H4.6875C3.8587 48.4378 3.06384 48.1086 2.47779 47.5225C1.89174 46.9365 1.5625 46.1416 1.5625 45.3128V8.85449C1.5625 8.02569 1.89174 7.23083 2.47779 6.64478C3.06384 6.05873 3.8587 5.72949 4.6875 5.72949H9.89583M10.9375 18.2295H25.5208M10.9375 27.6045H16.1458" stroke="white" stroke-width="2" stroke-linecap="round" stroke-linejoin="round"/>
</svg>
