<svg width="46" height="46" viewBox="0 0 46 46" fill="none" xmlns="http://www.w3.org/2000/svg">
<path d="M15.75 44.25H30M15.75 44.25V32.375M15.75 44.25H2.925C2.54707 44.25 2.18461 44.0999 1.91737 43.8326C1.65013 43.5654 1.5 43.2029 1.5 42.825V33.8C1.5 33.4221 1.65013 33.0596 1.91737 32.7924C2.18461 32.5251 2.54707 32.375 2.925 32.375H15.75M30 44.25V15.75M30 44.25H42.825C43.2029 44.25 43.5654 44.0999 43.8326 43.8326C44.0999 43.5654 44.25 43.2029 44.25 42.825V2.925C44.25 2.54707 44.0999 2.18461 43.8326 1.91737C43.5654 1.65013 43.2029 1.5 42.825 1.5H31.425C31.0471 1.5 30.6846 1.65013 30.4174 1.91737C30.1501 2.18461 30 2.54707 30 2.925V15.75M15.75 32.375V17.175C15.75 16.7971 15.9001 16.4346 16.1674 16.1674C16.4346 15.9001 16.7971 15.75 17.175 15.75H30" stroke="#AA52C4" stroke-width="3"/>
</svg>
