<svg width="57" height="57" viewBox="0 0 57 57" fill="none" xmlns="http://www.w3.org/2000/svg">
<path opacity="0.4" d="M54.8083 11.3949L28.5008 20.5105L2.19336 11.3949L28.5008 2.2793L54.8083 11.3949Z" fill="#2868BF"/>
<path d="M55.5005 9.23257L29.1931 0.116963C28.743 -0.0389875 28.2565 -0.0389875 27.8064 0.116963L1.49898 9.23257C1.10107 9.37208 0.750072 9.62746 0.48774 9.96833C0.225407 10.3092 0.0627744 10.7212 0.0191835 11.1554C0.00632154 11.2344 -9.53511e-05 11.3145 1.07058e-06 11.3947V34.1837C1.07058e-06 34.7881 0.230974 35.3677 0.642107 35.7951C1.05324 36.2225 1.61086 36.4626 2.19229 36.4626C2.77372 36.4626 3.33134 36.2225 3.74247 35.7951C4.15361 35.3677 4.38458 34.7881 4.38458 34.1837V14.5566L13.5895 17.7443C11.1438 21.8514 10.3661 26.7996 11.4271 31.5023C12.4881 36.205 15.3011 40.2778 19.2483 42.8264C14.3156 44.8375 10.0516 48.4752 6.93311 53.4489C6.77093 53.6995 6.65827 53.9811 6.6017 54.2773C6.54512 54.5736 6.54576 54.8785 6.60356 55.1745C6.66137 55.4705 6.77519 55.7516 6.93842 56.0014C7.10164 56.2513 7.31101 56.4649 7.55436 56.6299C7.79771 56.7949 8.07018 56.9079 8.35593 56.9625C8.64169 57.0171 8.93502 57.012 9.21889 56.9477C9.50276 56.8834 9.7715 56.7611 10.0095 56.5878C10.2475 56.4146 10.45 56.1939 10.6052 55.9386C14.7349 49.3526 21.257 45.5782 28.4998 45.5782C35.7425 45.5782 42.2646 49.3526 46.3943 55.9386C46.7159 56.4354 47.2126 56.7807 47.777 56.8998C48.3415 57.019 48.9284 56.9024 49.4109 56.5753C49.8933 56.2481 50.2326 55.7368 50.3552 55.1518C50.4779 54.5668 50.3741 53.9551 50.0664 53.4489C46.9479 48.4752 42.6674 44.8375 37.7512 42.8264C41.6947 40.2779 44.5049 36.2077 45.5658 31.5085C46.6266 26.8092 45.8513 21.8645 43.4101 17.7585L55.5005 13.571C55.9371 13.4198 56.3169 13.1297 56.5861 12.7416C56.8552 12.3536 57 11.8873 57 11.4089C57 10.9305 56.8552 10.4643 56.5861 10.0762C56.3169 9.68817 55.9371 9.39799 55.5005 9.24681V9.23257ZM41.6535 27.347C41.6541 29.5087 41.1616 31.6397 40.2165 33.5653C39.2714 35.4908 37.9005 37.156 36.2164 38.4241C34.5323 39.6923 32.583 40.5273 30.5283 40.8607C28.4737 41.1941 26.3722 41.0163 24.3965 40.3419C22.4207 39.6676 20.6269 38.5159 19.1622 36.9814C17.6976 35.4468 16.6038 33.5732 15.9706 31.5141C15.3374 29.4551 15.1829 27.2693 15.5197 25.1361C15.8565 23.003 16.6751 20.9833 17.9083 19.2426L27.8064 22.661C28.2565 22.8169 28.743 22.8169 29.1931 22.661L39.0912 19.2426C40.7566 21.59 41.6546 24.4303 41.6535 27.347ZM28.4998 18.1089L9.1254 11.3947L28.4998 4.68046L47.8741 11.3947L28.4998 18.1089Z" fill="#2868BF"/>
</svg>
