<svg width="19" height="15" viewBox="0 0 19 15" fill="none" xmlns="http://www.w3.org/2000/svg">
<path fill-rule="evenodd" clip-rule="evenodd" d="M0.458749 1.44269C0.534314 1.26044 0.662223 1.10468 0.826304 0.995116C0.990384 0.885552 1.18327 0.827099 1.38057 0.827148H11.357C12.274 0.827148 13.1821 1.00778 14.0294 1.35873C14.8767 1.70969 15.6465 2.22408 16.295 2.87256C16.9435 3.52103 17.4579 4.29089 17.8088 5.13816C18.1598 5.98543 18.3404 6.89354 18.3404 7.81062C18.3404 8.7277 18.1598 9.6358 17.8088 10.4831C17.4579 11.3303 16.9435 12.1002 16.295 12.7487C15.6465 13.3972 14.8767 13.9116 14.0294 14.2625C13.1821 14.6135 12.274 14.7941 11.357 14.7941H2.37821C2.11361 14.7941 1.85986 14.689 1.67277 14.5019C1.48567 14.3148 1.38057 14.061 1.38057 13.7964C1.38057 13.5319 1.48567 13.2781 1.67277 13.091C1.85986 12.9039 2.11361 12.7988 2.37821 12.7988H11.357C12.6799 12.7988 13.9487 12.2733 14.8841 11.3378C15.8196 10.4023 16.3451 9.13357 16.3451 7.81062C16.3451 6.48767 15.8196 5.2189 14.8841 4.28343C13.9487 3.34797 12.6799 2.82243 11.357 2.82243H3.78887L5.57763 4.61119C5.75936 4.79935 5.85992 5.05135 5.85764 5.31293C5.85537 5.57451 5.75045 5.82473 5.56548 6.0097C5.38051 6.19467 5.13029 6.29959 4.86871 6.30186C4.60713 6.30414 4.35513 6.20358 4.16697 6.02185L0.675236 2.53012C0.535634 2.3906 0.44055 2.21282 0.402014 2.01925C0.363478 1.82568 0.383223 1.62503 0.458749 1.44269Z" fill="white"/>
</svg>
