<svg width="50" height="50" viewBox="0 0 50 50" fill="none" xmlns="http://www.w3.org/2000/svg">
<path opacity="0.3" fill-rule="evenodd" clip-rule="evenodd" d="M21.6286 1.39452C22.4726 0.551591 23.6019 0.0555999 24.7936 0.00439852C25.9854 -0.0468028 27.153 0.350504 28.0662 1.11793L28.3714 1.3969L32.9015 5.92476H39.3057C40.5084 5.92498 41.6665 6.37962 42.5481 7.1976C43.4298 8.01559 43.9698 9.1365 44.06 10.3358L44.0743 10.6934V17.0978L48.6044 21.628C49.448 22.4722 49.9444 23.6019 49.9956 24.7942C50.0468 25.9866 49.6491 27.1547 48.881 28.0681L48.602 28.3709L44.0719 32.9011V39.3055C44.0723 40.5086 43.6179 41.6673 42.7999 42.5495C41.9819 43.4316 40.8606 43.972 39.661 44.0622L39.3057 44.0742H32.9039L28.3738 48.6044C27.5296 49.448 26.3999 49.9444 25.2076 49.9956C24.0153 50.0468 22.8472 49.6491 21.9338 48.881L21.631 48.6044L17.1009 44.0742H10.6943C9.49123 44.0745 8.33249 43.6202 7.45035 42.8021C6.56821 41.9841 6.02787 40.8628 5.93764 39.6631L5.92572 39.3055V32.9011L1.39557 28.3709C0.552 27.5268 0.0556004 26.397 0.00439518 25.2047C-0.0468101 24.0124 0.350902 22.8442 1.119 21.9308L1.39557 21.628L5.92572 17.0978V10.6934C5.92594 9.49076 6.38057 8.33259 7.19854 7.45094C8.0165 6.56928 9.13739 6.02926 10.3366 5.93906L10.6943 5.92476H17.0985L21.6286 1.39452Z" fill="#D23B42"/>
<path fill-rule="evenodd" clip-rule="evenodd" d="M32.3384 17.8055L22.2195 27.9247L18.0041 23.7092C17.5567 23.2621 16.95 23.011 16.3175 23.0113C15.685 23.0115 15.0786 23.263 14.6315 23.7104C14.1844 24.1578 13.9334 24.7644 13.9336 25.3969C13.9338 26.0294 14.1853 26.6359 14.6327 27.083L20.3645 32.8149C20.6081 33.0586 20.8972 33.2519 21.2155 33.3838C21.5338 33.5157 21.8749 33.5836 22.2195 33.5836C22.564 33.5836 22.9051 33.5157 23.2234 33.3838C23.5417 33.2519 23.8309 33.0586 24.0744 32.8149L35.7098 21.177C36.1441 20.7273 36.3844 20.125 36.379 19.4998C36.3735 18.8747 36.1228 18.2767 35.6807 17.8346C35.2386 17.3925 34.6406 17.1418 34.0155 17.1363C33.3903 17.1309 32.7881 17.3712 32.3384 17.8055Z" fill="#D23B42"/>
</svg>
