<svg width="48" height="63" viewBox="0 0 48 63" fill="none" xmlns="http://www.w3.org/2000/svg">
<path d="M2.5 60.5H40.5V8.94444C40.5 7.23527 39.9996 5.5961 39.1088 4.38753C38.218 3.17897 37.0098 2.5 35.75 2.5H12C10.7402 2.5 9.53204 3.17897 8.64124 4.38753C7.75044 5.5961 7.25 7.23527 7.25 8.94444V60.5M16.75 18.6111H19.125M16.75 31.5H19.125M28.625 18.6111H31M28.625 31.5H31" stroke="#D23B42" stroke-width="5" stroke-linecap="round" stroke-linejoin="round"/>
<path d="M28.625 44.3887H31" stroke="#D23B42" stroke-width="5" stroke-linecap="round" stroke-linejoin="round"/>
<path d="M42.5 58H40V63H42.5V60.5V58ZM44.875 63C46.2557 63 47.375 61.8807 47.375 60.5C47.375 59.1193 46.2557 58 44.875 58V60.5V63ZM42.5 60.5V63H44.875V60.5V58H42.5V60.5Z" fill="#D23B42"/>
<path d="M16.75 44.3887H19.125" stroke="#D23B42" stroke-width="5" stroke-linecap="round" stroke-linejoin="round"/>
</svg>
