<svg width="50" height="50" viewBox="0 0 50 50" fill="none" xmlns="http://www.w3.org/2000/svg">
<path d="M10.2384 2.86622H40.2511C40.1118 1.00028 38.9915 0 36.8463 0H13.6432C11.498 0 10.3787 1.00028 10.2384 2.86622ZM5.20178 9.02152H44.845C44.4957 7.00009 43.4689 5.88888 41.1377 5.88888H8.88621C6.55397 5.88888 5.55102 7.00009 5.20178 9.02152ZM7.32309 50H42.7008C47.5513 50 50 47.6884 50 43.1108V19.5098C50 14.9322 47.5523 12.6207 42.7008 12.6207H7.32309C2.44965 12.6207 0 14.9095 0 19.5098V43.1089C0 47.6875 2.44965 49.9981 7.32309 49.9981M25.0239 35.2195C21.0817 35.1749 17.9097 32.0195 17.8878 27.7757C17.8878 23.7973 21.0817 20.5537 25.0229 20.5537C28.964 20.5537 32.136 23.7973 32.136 27.7757C32.136 32.0195 28.965 35.2422 25.0239 35.2195ZM10.5409 46.4217C12.4294 42.7771 17.0938 38.3104 24.9761 38.3104C32.8813 38.3104 37.5925 42.7771 39.5039 46.4217H10.5409Z" fill="#D23B42"/>
</svg>
