<svg width="53" height="53" viewBox="0 0 53 53" fill="none" xmlns="http://www.w3.org/2000/svg">
<path d="M18.0417 51.375H1.375V41.375C1.375 40.4909 1.72619 39.6431 2.35131 39.018C2.97643 38.3929 3.82428 38.0417 4.70833 38.0417H18.0417V51.375ZM18.0417 51.375V28.0417C18.0417 27.1576 18.3929 26.3098 19.018 25.6846C19.6431 25.0595 20.4909 24.7083 21.375 24.7083H31.375C32.2591 24.7083 33.1069 25.0595 33.732 25.6846C34.3571 26.3098 34.7083 27.1576 34.7083 28.0417V51.375M18.0417 51.375H34.7083M34.7083 51.375V38.0417H48.0417C48.9257 38.0417 49.7736 38.3929 50.3987 39.018C51.0238 39.6431 51.375 40.4909 51.375 41.375V51.375H34.7083ZM33.595 18.0417C32.7046 16.9957 31.5977 16.1555 30.3507 15.5794C29.1037 15.0033 27.7464 14.7049 26.3728 14.7049C24.9991 14.7049 23.6419 15.0033 22.3949 15.5794C21.1479 16.1555 20.0409 16.9957 19.1506 18.0417M51.375 33.0417C50.1756 31.6315 48.5891 30.6039 46.8117 30.0861C45.0343 29.5683 43.1441 29.583 41.375 30.1283M1.375 33.0417C2.26783 31.9988 3.37536 31.1611 4.62185 30.5858C5.86834 30.0105 7.22438 29.7112 8.59722 29.7083C9.535 29.7083 10.4683 29.8506 11.3639 30.1261M20.5417 7.20833C20.5417 8.75543 21.1562 10.2392 22.2502 11.3331C23.3442 12.4271 24.8279 13.0417 26.375 13.0417C27.9221 13.0417 29.4058 12.4271 30.4998 11.3331C31.5938 10.2392 32.2083 8.75543 32.2083 7.20833C32.2083 5.66124 31.5938 4.17751 30.4998 3.08354C29.4058 1.98958 27.9221 1.375 26.375 1.375C24.8279 1.375 23.3442 1.98958 22.2502 3.08354C21.1562 4.17751 20.5417 5.66124 20.5417 7.20833ZM38.3217 22.2083C38.3217 22.9744 38.4726 23.7329 38.7657 24.4407C39.0589 25.1484 39.4885 25.7914 40.0302 26.3331C40.5719 26.8748 41.2149 27.3045 41.9227 27.5976C42.6304 27.8908 43.389 28.0417 44.155 28.0417C44.921 28.0417 45.6796 27.8908 46.3873 27.5976C47.0951 27.3045 47.7381 26.8748 48.2798 26.3331C48.8215 25.7914 49.2511 25.1484 49.5443 24.4407C49.8375 23.7329 49.9883 22.9744 49.9883 22.2083C49.9883 20.6612 49.3738 19.1775 48.2798 18.0835C47.1858 16.9896 45.7021 16.375 44.155 16.375C42.6079 16.375 41.1242 16.9896 40.0302 18.0835C38.9362 19.1775 38.3217 20.6612 38.3217 22.2083ZM2.76167 22.2083C2.76167 23.7554 3.37625 25.2392 4.47021 26.3331C5.56417 27.4271 7.0479 28.0417 8.595 28.0417C10.1421 28.0417 11.6258 27.4271 12.7198 26.3331C13.8138 25.2392 14.4283 23.7554 14.4283 22.2083C14.4283 20.6612 13.8138 19.1775 12.7198 18.0835C11.6258 16.9896 10.1421 16.375 8.595 16.375C7.0479 16.375 5.56417 16.9896 4.47021 18.0835C3.37625 19.1775 2.76167 20.6612 2.76167 22.2083Z" stroke="#D23B42" stroke-width="2.75" stroke-linecap="round" stroke-linejoin="round"/>
</svg>
