<svg width="96" height="94" viewBox="0 0 96 94" fill="none" xmlns="http://www.w3.org/2000/svg">
<path d="M11.9822 93.1188C8.68709 93.1188 5.86728 91.9489 3.52276 89.6093C1.17825 87.2696 0.00399406 84.4536 0 81.1613V69.2039C0 67.5099 0.575146 66.091 1.72544 64.947C2.87573 63.8031 4.29761 63.2291 5.99109 63.2251C7.68458 63.2212 9.10846 63.7951 10.2627 64.947C11.417 66.0989 11.9902 67.5179 11.9822 69.2039V81.1613H83.8753V69.2039C83.8753 67.5099 84.4505 66.091 85.6008 64.947C86.751 63.8031 88.1729 63.2291 89.8664 63.2251C91.5599 63.2212 92.9838 63.7951 94.138 64.947C95.2923 66.0989 95.8655 67.5179 95.8575 69.2039V81.1613C95.8575 84.4496 94.6852 87.2656 92.3407 89.6093C89.9962 91.9529 87.1744 93.1228 83.8753 93.1188H11.9822ZM41.9377 20.4772L30.7044 31.6874C29.5061 32.8831 28.0843 33.4571 26.4387 33.4092C24.7931 33.3614 23.3693 32.7376 22.167 31.5379C21.0687 30.3421 20.4935 28.9471 20.4416 27.3528C20.3897 25.7584 20.9648 24.3634 22.167 23.1677L43.735 1.64424C44.3341 1.04637 44.9831 0.623871 45.6821 0.37675C46.3811 0.129629 47.1299 0.0040778 47.9287 9.19816e-05C48.7276 -0.00389384 49.4765 0.121658 50.1754 0.37675C50.8744 0.631843 51.5234 1.05434 52.1225 1.64424L73.6905 23.1677C74.8887 24.3634 75.4638 25.7584 75.4159 27.3528C75.368 28.9471 74.7928 30.3421 73.6905 31.5379C72.4922 32.7336 71.0704 33.3574 69.4248 33.4092C67.7792 33.461 66.3554 32.8871 65.1532 31.6874L53.9198 20.4772V63.2251C53.9198 64.9191 53.3447 66.3401 52.1944 67.488C51.0441 68.6359 49.6222 69.2079 47.9287 69.2039C46.2353 69.1999 44.8134 68.6259 43.6631 67.482C42.5128 66.3381 41.9377 64.9191 41.9377 63.2251V20.4772Z" fill="#D23B42"/>
</svg>
