<svg width="49" height="41" viewBox="0 0 49 41" fill="none" xmlns="http://www.w3.org/2000/svg">
<path d="M8.77284 39.2235C8.53397 40.437 9.87532 41.3854 11.0574 40.8442L24.5016 34.6783L37.9426 40.8442C39.1247 41.3854 40.4661 40.437 40.2272 39.2262L37.6854 26.2985L48.4713 17.1262C49.4819 16.268 48.9613 14.6991 47.6077 14.5297L32.6078 12.6274L25.9195 0.801199C25.7921 0.561473 25.591 0.358933 25.3398 0.217109C25.0885 0.0752852 24.7973 0 24.5 0C24.2027 0 23.9115 0.0752852 23.6603 0.217109C23.409 0.358933 23.208 0.561473 23.0806 0.801199L16.3922 12.6302L1.39235 14.5324C0.0418129 14.7019 -0.481865 16.2707 0.525679 17.1289L11.3147 26.3013L8.77284 39.2289V39.2235ZM23.7941 31.6609L12.506 36.8375L14.6313 26.0225C14.6825 25.7735 14.6636 25.5171 14.5765 25.2762C14.4894 25.0354 14.3367 24.8175 14.1321 24.6423L5.23266 17.0715L17.6417 15.4972C17.8982 15.4615 18.1414 15.3714 18.3508 15.2344C18.5602 15.0974 18.7298 14.9176 18.8452 14.7101L24.4954 4.7123L30.1518 14.7101C30.2672 14.9176 30.4368 15.0974 30.6462 15.2344C30.8556 15.3714 31.0988 15.4615 31.3553 15.4972L43.7643 17.0688L34.8649 24.6395C34.6598 24.8151 34.5068 25.0334 34.4197 25.2748C34.3325 25.5162 34.314 25.7731 34.3657 26.0225L36.491 36.8375L25.2029 31.6609C24.9848 31.5598 24.7427 31.507 24.497 31.507C24.2512 31.507 24.0122 31.5598 23.7941 31.6609Z" fill="#D23B42"/>
</svg>
