<svg width="55" height="56" viewBox="0 0 55 56" fill="none" xmlns="http://www.w3.org/2000/svg">
<path d="M50 7.69231C50 6.67224 49.561 5.69396 48.7796 4.97267C47.9982 4.25137 46.9384 3.84615 45.8333 3.84615H37.5V0H33.3333V3.84615H16.6667V0H12.5V3.84615H4.16667C3.0616 3.84615 2.00179 4.25137 1.22039 4.97267C0.438987 5.69396 0 6.67224 0 7.69231V46.1538C0 47.1739 0.438987 48.1522 1.22039 48.8735C2.00179 49.5948 3.0616 50 4.16667 50H12.5V46.1538H4.16667V7.69231H12.5V11.5385H16.6667V7.69231H33.3333V11.5385H37.5V7.69231H45.8333V19.2308H50V7.69231Z" fill="#D23B42"/>
<path d="M38.25 55.6251C35.0855 55.6251 31.9921 54.7873 29.3609 53.2176C26.7297 51.6478 24.6789 49.4167 23.4679 46.8063C22.2569 44.196 21.9401 41.3236 22.5574 38.5524C23.1748 35.7813 24.6987 33.2358 26.9363 31.2379C29.1739 29.24 32.0249 27.8794 35.1286 27.3282C38.2323 26.777 41.4493 27.0599 44.3729 28.1412C47.2966 29.2224 49.7954 31.0534 51.5535 33.4027C53.3116 35.752 54.25 38.514 54.25 41.3394C54.25 45.1282 52.5643 48.7619 49.5637 51.441C46.5631 54.12 42.4935 55.6251 38.25 55.6251ZM38.25 30.6251C35.8766 30.6251 33.5566 31.2535 31.5832 32.4308C29.6098 33.6081 28.0717 35.2815 27.1635 37.2392C26.2552 39.197 26.0176 41.3513 26.4806 43.4297C26.9436 45.508 28.0865 47.4172 29.7647 48.9156C31.443 50.414 33.5811 51.4344 35.9089 51.8478C38.2367 52.2613 40.6495 52.0491 42.8422 51.2381C45.0349 50.4272 46.9091 49.0539 48.2276 47.292C49.5462 45.53 50.25 43.4585 50.25 41.3394C50.25 38.4978 48.9857 35.7726 46.7353 33.7633C44.4849 31.754 41.4326 30.6251 38.25 30.6251Z" fill="#D23B42"/>
<path d="M41.43 46.6963L36.25 42.0713V34.1963H40.25V40.607L44.25 44.1784L41.43 46.6963Z" fill="#D23B42"/>
</svg>
