<svg width="40" height="50" viewBox="0 0 40 50" fill="none" xmlns="http://www.w3.org/2000/svg">
<path d="M29.1429 50L22.8571 42.5595L25.5086 39.6825L29.1429 43.626L37.3486 34.7222L40 38.2192L29.1429 50ZM4.57143 49.6032C3.35901 49.6032 2.19625 49.0806 1.33894 48.1503C0.481631 47.2201 0 45.9584 0 44.6429V4.96032C0 2.20734 2.03429 0 4.57143 0H6.85714V17.3611L12.5714 13.6409L18.2857 17.3611V0H32C33.2124 0 34.3752 0.522603 35.2325 1.45284C36.0898 2.38308 36.5714 3.64476 36.5714 4.96032V28.125C33.9274 27.1139 31.0614 27.0055 28.3589 27.8145C25.6564 28.6235 23.247 30.311 21.4547 32.6501C19.6624 34.9891 18.5732 37.8677 18.3336 40.8985C18.094 43.9293 18.7154 46.967 20.1143 49.6032H4.57143Z" fill="#D23B42"/>
</svg>
