<svg width="100" height="79" viewBox="0 0 100 79" fill="none" xmlns="http://www.w3.org/2000/svg">
<path d="M49.9988 0C51.2644 0 52.5144 0.246826 53.7018 0.722849L97.5289 18.5825C99.0132 19.1996 99.9976 20.7863 99.9976 22.567C99.9976 24.3477 99.0132 25.9344 97.5289 26.5515L88.4822 30.2363C91.0447 34.7849 92.4978 40.1622 92.4978 45.8216V50.7758C92.4978 55.7828 94.1852 60.9485 95.9821 65.0212C96.9977 67.3131 98.1539 69.5699 99.4976 71.6502C99.9976 72.4084 100.138 73.3957 99.857 74.2948C99.5757 75.194 98.9195 75.8639 98.107 76.0931L88.1073 78.914C87.451 79.1079 86.7479 78.9669 86.1698 78.5614C85.5917 78.1559 85.1855 77.4859 85.0605 76.7278C83.7167 69.182 84.3886 62.4119 85.3886 57.5635C85.8886 55.06 86.5604 52.5036 87.4979 50.1587V45.8216C87.4979 40.4972 85.9042 35.4725 83.1386 31.4528C81.123 28.72 78.5137 26.5162 75.4513 25.1587L50.9207 14.2807C49.6394 13.7165 48.1863 14.4217 47.6864 15.8674C47.1864 17.3131 47.8114 18.9528 49.0926 19.5169L73.6232 30.3949C75.5607 31.2588 77.2638 32.5811 78.6544 34.2031L53.7175 44.3583C52.53 44.8343 51.28 45.0811 50.0144 45.0811C48.7488 45.0811 47.4989 44.8343 46.3114 44.3583L2.46869 26.5515C0.98435 25.9521 -1.66893e-06 24.3477 -1.66893e-06 22.567C-1.66893e-06 20.7863 0.98435 19.1996 2.46869 18.5825L46.2958 0.722849C47.4832 0.246826 48.7332 0 49.9988 0ZM79.9981 66.2906C79.9981 72.5141 66.5609 78.9845 49.9988 78.9845C33.4367 78.9845 19.9995 72.5141 19.9995 66.2906L22.3901 40.6559L44.6083 49.7179C46.3426 50.4232 48.1707 50.7758 49.9988 50.7758C51.8269 50.7758 53.6706 50.4232 55.3893 49.7179L77.6075 40.6559L79.9981 66.2906Z" fill="#D23B42"/>
</svg>
