<svg width="29" height="29" viewBox="0 0 29 29" fill="none" xmlns="http://www.w3.org/2000/svg">
<path d="M9.75 27.25H1V22C1 21.5359 1.18437 21.0908 1.51256 20.7626C1.84075 20.4344 2.28587 20.25 2.75 20.25H9.75V27.25ZM9.75 27.25V15C9.75 14.5359 9.93437 14.0908 10.2626 13.7626C10.5908 13.4344 11.0359 13.25 11.5 13.25H16.75C17.2141 13.25 17.6592 13.4344 17.9874 13.7626C18.3156 14.0908 18.5 14.5359 18.5 15V27.25M9.75 27.25H18.5M18.5 27.25V20.25H25.5C25.9641 20.25 26.4092 20.4344 26.7374 20.7626C27.0656 21.0908 27.25 21.5359 27.25 22V27.25H18.5ZM17.9155 9.75C17.448 9.20085 16.8669 8.75979 16.2122 8.45732C15.5576 8.15486 14.845 7.99821 14.1238 7.99821C13.4027 7.99821 12.6901 8.15486 12.0354 8.45732C11.3808 8.75979 10.7996 9.20085 10.3322 9.75M27.25 17.625C26.6203 16.8846 25.7874 16.3452 24.8543 16.0733C23.9211 15.8015 22.9288 15.8092 22 16.0955M1 17.625C1.46873 17.0775 2.05019 16.6377 2.7046 16.3357C3.359 16.0336 4.07092 15.8765 4.79167 15.875C5.284 15.875 5.774 15.9497 6.24417 16.0943M11.0625 4.0625C11.0625 4.87473 11.3852 5.65368 11.9595 6.22801C12.5338 6.80234 13.3128 7.125 14.125 7.125C14.9372 7.125 15.7162 6.80234 16.2905 6.22801C16.8648 5.65368 17.1875 4.87473 17.1875 4.0625C17.1875 3.25027 16.8648 2.47132 16.2905 1.89699C15.7162 1.32266 14.9372 1 14.125 1C13.3128 1 12.5338 1.32266 11.9595 1.89699C11.3852 2.47132 11.0625 3.25027 11.0625 4.0625ZM20.397 11.9375C20.397 12.3397 20.4762 12.7379 20.6301 13.1095C20.784 13.481 21.0096 13.8186 21.294 14.103C21.5784 14.3874 21.916 14.613 22.2875 14.7669C22.6591 14.9208 23.0573 15 23.4595 15C23.8617 15 24.2599 14.9208 24.6315 14.7669C25.003 14.613 25.3406 14.3874 25.625 14.103C25.9094 13.8186 26.135 13.481 26.2889 13.1095C26.4428 12.7379 26.522 12.3397 26.522 11.9375C26.522 11.1253 26.1993 10.3463 25.625 9.77199C25.0507 9.19765 24.2717 8.875 23.4595 8.875C22.6473 8.875 21.8683 9.19765 21.294 9.77199C20.7197 10.3463 20.397 11.1253 20.397 11.9375ZM1.728 11.9375C1.728 12.7497 2.05066 13.5287 2.62499 14.103C3.19932 14.6773 3.97827 15 4.7905 15C5.60273 15 6.38168 14.6773 6.95601 14.103C7.53034 13.5287 7.853 12.7497 7.853 11.9375C7.853 11.1253 7.53034 10.3463 6.95601 9.77199C6.38168 9.19765 5.60273 8.875 4.7905 8.875C3.97827 8.875 3.19932 9.19765 2.62499 9.77199C2.05066 10.3463 1.728 11.1253 1.728 11.9375Z" stroke="black" stroke-width="1.75" stroke-linecap="round" stroke-linejoin="round"/>
</svg>
