<svg width="48" height="34" viewBox="0 0 48 34" fill="none" xmlns="http://www.w3.org/2000/svg">
<path d="M24.2267 0.550049C23.6319 0.550049 23.0444 0.652861 22.4862 0.851142L1.88703 8.29036C1.18937 8.54739 0.726716 9.20833 0.726716 9.95005C0.726716 10.6918 1.18937 11.3527 1.88703 11.6097L6.13906 13.1446C4.93469 15.0393 4.25172 17.2791 4.25172 19.6365V21.7C4.25172 23.7857 3.45859 25.9374 2.61406 27.6338C2.13672 28.5885 1.59328 29.5285 0.961716 30.395C0.726716 30.7108 0.660623 31.1221 0.79281 31.4966C0.924998 31.8711 1.23344 32.1502 1.61531 32.2457L6.31531 33.4207C6.62375 33.5015 6.95422 33.4427 7.22594 33.2738C7.49765 33.1049 7.68859 32.8258 7.74734 32.51C8.3789 29.3669 8.06312 26.5469 7.59312 24.5274C7.35812 23.4846 7.04234 22.4197 6.60172 21.443V19.6365C6.60172 17.4186 7.35078 15.3257 8.65062 13.6513C9.59797 12.513 10.8244 11.595 12.2638 11.0296L23.7934 6.49849C24.3956 6.26349 25.0786 6.55724 25.3136 7.15942C25.5486 7.76161 25.2548 8.44458 24.6527 8.67958L13.123 13.2107C12.2123 13.5705 11.4119 14.1213 10.7583 14.7969L22.4789 19.0269C23.037 19.2252 23.6245 19.328 24.2194 19.328C24.8142 19.328 25.4017 19.2252 25.9598 19.0269L46.5664 11.6097C47.2641 11.36 47.7267 10.6918 47.7267 9.95005C47.7267 9.20833 47.2641 8.54739 46.5664 8.29036L25.9672 0.851142C25.4091 0.652861 24.8216 0.550049 24.2267 0.550049ZM10.1267 28.1625C10.1267 30.7549 16.4423 33.45 24.2267 33.45C32.0111 33.45 38.3267 30.7549 38.3267 28.1625L37.2031 17.4847L26.7603 21.2594C25.9452 21.5532 25.0859 21.7 24.2267 21.7C23.3675 21.7 22.5009 21.5532 21.6931 21.2594L11.2503 17.4847L10.1267 28.1625Z" fill="#D23B42"/>
</svg>
