<svg width="60" height="50" viewBox="0 0 60 50" fill="none" xmlns="http://www.w3.org/2000/svg">
<path d="M55.3846 0H4.61538C3.39131 0 2.21737 0.478895 1.35181 1.33133C0.486262 2.18377 0 3.33993 0 4.54545V45.4545C0 46.6601 0.486262 47.8162 1.35181 48.6687C2.21737 49.5211 3.39131 50 4.61538 50H8.47788C8.91463 50.0001 9.34246 49.8782 9.71164 49.6484C10.0808 49.4186 10.3762 49.0903 10.5635 48.7017C11.6856 46.3684 13.4573 44.3968 15.6725 43.0161C17.8877 41.6355 20.4554 40.9025 23.0769 40.9025C25.6985 40.9025 28.2661 41.6355 30.4813 43.0161C32.6965 44.3968 34.4682 46.3684 35.5904 48.7017C35.7776 49.0903 36.073 49.4186 36.4422 49.6484C36.8114 49.8782 37.2392 50.0001 37.676 50H55.3846C56.6087 50 57.7826 49.5211 58.6482 48.6687C59.5137 47.8162 60 46.6601 60 45.4545V4.54545C60 3.33993 59.5137 2.18377 58.6482 1.33133C57.7826 0.478895 56.6087 0 55.3846 0ZM16.1538 29.5455C16.1538 28.1969 16.5599 26.8787 17.3206 25.7575C18.0813 24.6362 19.1625 23.7623 20.4276 23.2463C21.6926 22.7302 23.0846 22.5952 24.4275 22.8583C25.7705 23.1214 27.0041 23.7707 27.9723 24.7243C28.9405 25.6778 29.5998 26.8927 29.867 28.2153C30.1341 29.5379 29.997 30.9088 29.473 32.1547C28.949 33.4005 28.0617 34.4654 26.9232 35.2146C25.7847 35.9638 24.4462 36.3636 23.0769 36.3636C21.2408 36.3636 19.4799 35.6453 18.1816 34.3666C16.8832 33.088 16.1538 31.3537 16.1538 29.5455ZM55.3846 45.4545H39.0663C37.1391 42.1917 34.2342 39.5957 30.75 38.0227C32.4969 36.4908 33.7298 34.4723 34.2853 32.2346C34.8408 29.9969 34.6926 27.6458 33.8604 25.4929C33.0283 23.3401 31.5514 21.4871 29.6256 20.1797C27.6997 18.8723 25.4159 18.1722 23.0769 18.1722C20.7379 18.1722 18.4541 18.8723 16.5283 20.1797C14.6025 21.4871 13.1256 23.3401 12.2934 25.4929C11.4612 27.6458 11.3131 29.9969 11.8686 32.2346C12.4241 34.4723 13.657 36.4908 15.4038 38.0227C11.9196 39.5957 9.01476 42.1917 7.0875 45.4545H4.61538V4.54545H55.3846V45.4545ZM9.23077 15.9091V11.3636C9.23077 10.7609 9.4739 10.1828 9.90668 9.75658C10.3395 9.33036 10.9264 9.09091 11.5385 9.09091H48.4615C49.0736 9.09091 49.6605 9.33036 50.0933 9.75658C50.5261 10.1828 50.7692 10.7609 50.7692 11.3636V38.6364C50.7692 39.2391 50.5261 39.8172 50.0933 40.2434C49.6605 40.6696 49.0736 40.9091 48.4615 40.9091H43.8462C43.2341 40.9091 42.6471 40.6696 42.2144 40.2434C41.7816 39.8172 41.5385 39.2391 41.5385 38.6364C41.5385 38.0336 41.7816 37.4555 42.2144 37.0293C42.6471 36.6031 43.2341 36.3636 43.8462 36.3636H46.1538V13.6364H13.8462V15.9091C13.8462 16.5119 13.603 17.0899 13.1702 17.5162C12.7375 17.9424 12.1505 18.1818 11.5385 18.1818C10.9264 18.1818 10.3395 17.9424 9.90668 17.5162C9.4739 17.0899 9.23077 16.5119 9.23077 15.9091Z" fill="#D23B42"/>
</svg>
