<svg width="24" height="26" viewBox="0 0 24 26" fill="none" xmlns="http://www.w3.org/2000/svg">
<path d="M10.9252 10.9403C13.5126 10.9403 15.6101 8.82563 15.6101 6.217C15.6101 3.60837 13.5126 1.49365 10.9252 1.49365C8.33775 1.49365 6.24023 3.60837 6.24023 6.217C6.24023 8.82563 8.33775 10.9403 10.9252 10.9403Z" stroke="#D23B42" stroke-width="1.75"/>
<path d="M14.4393 14.8691C13.2859 14.6094 12.1074 14.4799 10.9256 14.483C5.75103 14.483 1.55566 16.8624 1.55566 19.7967C1.55566 22.7311 1.55566 25.1105 10.9256 25.1105C17.5864 25.1105 19.5119 23.9084 20.0694 22.1584" stroke="#D23B42" stroke-width="1.75"/>
<path d="M21.2667 14.6847C21.7017 15.1234 22.0468 15.6441 22.2822 16.2171C22.5177 16.7902 22.6389 17.4044 22.6389 18.0247C22.6389 18.645 22.5177 19.2593 22.2822 19.8323C22.0468 20.4054 21.7017 20.9261 21.2667 21.3647C20.8316 21.8033 20.3151 22.1513 19.7467 22.3887C19.1783 22.626 18.5691 22.7482 17.9538 22.7482C17.3386 22.7482 16.7293 22.626 16.1609 22.3887C15.5925 22.1513 15.076 21.8033 14.641 21.3647L21.2655 14.6859M14.6398 21.3647C13.7612 20.4789 13.2676 19.2775 13.2676 18.0247C13.2676 17.4044 13.3888 16.7902 13.6242 16.2171C13.8597 15.6441 14.2048 15.1234 14.6398 14.6847C15.0748 14.2461 15.5913 13.8982 16.1597 13.6608C16.7282 13.4234 17.3374 13.3013 17.9526 13.3013C19.1952 13.3013 20.3869 13.7989 21.2655 14.6847" stroke="#D23B42" stroke-width="1.75" stroke-linejoin="round"/>
</svg>
