<svg width="34" height="23" viewBox="0 0 34 23" fill="none" xmlns="http://www.w3.org/2000/svg">
<path d="M32.8718 9.45683C33.6239 10.3615 34 10.8119 34 11.5C34 12.1881 33.6239 12.6385 32.8718 13.5432C30.1193 16.8475 24.0481 23 17 23C9.95188 23 3.88073 16.8475 1.12816 13.5432C0.376055 12.6385 0 12.1881 0 11.5C0 10.8119 0.376055 10.3615 1.12816 9.45683C3.88073 6.1525 9.95188 0 17 0C24.0481 0 30.1193 6.1525 32.8718 9.45683Z" fill="#FFC3C3"/>
<path d="M17.0028 17.25C20.2145 17.25 22.8181 14.6756 22.8181 11.5C22.8181 8.32436 20.2145 5.75 17.0028 5.75C13.7911 5.75 11.1875 8.32436 11.1875 11.5C11.1875 14.6756 13.7911 17.25 17.0028 17.25Z" fill="#D23B42"/>
</svg>
