<svg width="50" height="50" viewBox="0 0 50 50" fill="none" xmlns="http://www.w3.org/2000/svg">
<path d="M42.0583 22.7792C42.8666 23.7625 43.2708 24.2521 43.2708 25C43.2708 25.7479 42.8666 26.2375 42.0583 27.2208C39.1 30.8125 32.575 37.5 25 37.5C17.425 37.5 10.9 30.8125 7.94163 27.2208C7.13329 26.2375 6.72913 25.7479 6.72913 25C6.72913 24.2521 7.13329 23.7625 7.94163 22.7792C10.9 19.1875 17.425 12.5 25 12.5C32.575 12.5 39.1 19.1875 42.0583 22.7792Z" fill="white"/>
<path d="M25 31.25C28.4518 31.25 31.25 28.4518 31.25 25C31.25 21.5482 28.4518 18.75 25 18.75C21.5482 18.75 18.75 21.5482 18.75 25C18.75 28.4518 21.5482 31.25 25 31.25Z" fill="#9C9C9C"/>
</svg>
