<svg width="74" height="74" viewBox="0 0 74 74" fill="none" xmlns="http://www.w3.org/2000/svg">
<g clip-path="url(#clip0_2264_45723)">
<path d="M46.8667 71.5333H44.4C44.4 71.9914 44.5276 72.4405 44.7684 72.8301C45.0092 73.2198 45.3538 73.5347 45.7635 73.7396C46.1733 73.9445 46.6319 74.0312 47.0882 73.99C47.5444 73.9489 47.9802 73.7815 48.3467 73.5067L46.8667 71.5333ZM56.7333 64.1333L58.2133 62.16C57.7864 61.8398 57.267 61.6667 56.7333 61.6667C56.1996 61.6667 55.6803 61.8398 55.2533 62.16L56.7333 64.1333ZM66.6 71.5333L65.12 73.5067C65.4865 73.7815 65.9222 73.9489 66.3785 73.99C66.8347 74.0312 67.2934 73.9445 67.7031 73.7396C68.1129 73.5347 68.4574 73.2198 68.6983 72.8301C68.9391 72.4405 69.0667 71.9914 69.0667 71.5333H66.6ZM56.7333 54.2667C53.4623 54.2667 50.3253 52.9673 48.0123 50.6543C45.6994 48.3414 44.4 45.2043 44.4 41.9333H39.4667C39.4667 46.5127 41.2858 50.9046 44.524 54.1427C47.7621 57.3808 52.1539 59.2 56.7333 59.2V54.2667ZM69.0667 41.9333C69.0667 45.2043 67.7673 48.3414 65.4543 50.6543C63.1414 52.9673 60.0043 54.2667 56.7333 54.2667V59.2C61.3127 59.2 65.7046 57.3808 68.9427 54.1427C72.1808 50.9046 74 46.5127 74 41.9333H69.0667ZM56.7333 29.6C60.0043 29.6 63.1414 30.8994 65.4543 33.2124C67.7673 35.5253 69.0667 38.6623 69.0667 41.9333H74C74 37.3539 72.1808 32.9621 68.9427 29.724C65.7046 26.4858 61.3127 24.6667 56.7333 24.6667V29.6ZM56.7333 24.6667C52.1539 24.6667 47.7621 26.4858 44.524 29.724C41.2858 32.9621 39.4667 37.3539 39.4667 41.9333H44.4C44.4 38.6623 45.6994 35.5253 48.0123 33.2124C50.3253 30.8994 53.4623 29.6 56.7333 29.6V24.6667ZM44.4 51.8V71.5333H49.3333V51.8H44.4ZM48.3467 73.5067L58.2133 66.1067L55.2533 62.16L45.3867 69.56L48.3467 73.5067ZM55.2533 66.1067L65.12 73.5067L68.08 69.56L58.2133 62.16L55.2533 66.1067ZM69.0667 71.5333V51.8H64.1333V71.5333H69.0667ZM74 24.6667V7.4H69.0667V24.6667H74ZM66.6 0H7.4V4.93333H66.6V0ZM0 7.4V66.6H4.93333V7.4H0ZM7.4 74H39.4667V69.0667H7.4V74ZM0 66.6C0 68.5626 0.779641 70.4448 2.16741 71.8326C3.55518 73.2204 5.4374 74 7.4 74V69.0667C6.7458 69.0667 6.11839 68.8068 5.6558 68.3442C5.19321 67.8816 4.93333 67.2542 4.93333 66.6H0ZM7.4 0C5.4374 0 3.55518 0.779641 2.16741 2.16741C0.779641 3.55518 0 5.4374 0 7.4H4.93333C4.93333 6.7458 5.19321 6.11839 5.6558 5.6558C6.11839 5.19321 6.7458 4.93333 7.4 4.93333V0ZM74 7.4C74 5.4374 73.2204 3.55518 71.8326 2.16741C70.4448 0.779641 68.5626 0 66.6 0V4.93333C67.2542 4.93333 67.8816 5.19321 68.3442 5.6558C68.8068 6.11839 69.0667 6.7458 69.0667 7.4H74ZM14.8 24.6667H39.4667V19.7333H14.8V24.6667ZM14.8 39.4667H29.6V34.5333H14.8V39.4667Z" fill="#C837AB"/>
<path d="M21.7553 48.7871H16.2277C15.8089 48.7871 15.4072 48.9535 15.111 49.2497C14.8148 49.5458 14.6484 49.9475 14.6484 50.3663V61.4209C14.6484 61.8397 14.8148 62.2414 15.111 62.5376C15.4072 62.8337 15.8089 63.0001 16.2277 63.0001H27.2828C27.7016 63.0001 28.1033 62.8337 28.3995 62.5376C28.6957 62.2414 28.8621 61.8397 28.8621 61.4209V55.8936" stroke="#C837AB" stroke-width="2.33333" stroke-linecap="round" stroke-linejoin="round"/>
<path d="M26.7895 48.4906C27.1036 48.1765 27.5297 48 27.974 48C28.4182 48 28.8443 48.1765 29.1584 48.4906C29.4726 48.8047 29.649 49.2308 29.649 49.675C29.649 50.1193 29.4726 50.5453 29.1584 50.8594L22.0413 57.977C21.8538 58.1643 21.6222 58.3015 21.3678 58.3758L19.0991 59.039C19.0312 59.0588 18.9591 59.06 18.8906 59.0425C18.822 59.0249 18.7594 58.9892 18.7094 58.9392C18.6593 58.8891 18.6237 58.8266 18.6061 58.758C18.5885 58.6894 18.5897 58.6174 18.6095 58.5495L19.2728 56.2809C19.3475 56.0267 19.4849 55.7953 19.6724 55.6082L26.7895 48.4906Z" stroke="#C837AB" stroke-width="2.33333" stroke-linecap="round" stroke-linejoin="round"/>
</g>
<defs>
<clipPath id="clip0_2264_45723">
<rect width="74" height="74" fill="white"/>
</clipPath>
</defs>
</svg>
