<svg width="40" height="40" viewBox="0 0 40 40" fill="none" xmlns="http://www.w3.org/2000/svg">
<path d="M38.6582 17.2992C32.4945 11.6811 21.3018 1.21457 21.1909 1.10827L20 0L18.8145 1.10827C18.7018 1.2126 7.50364 11.6752 1.25091 17.3445C0.861911 17.7172 0.549554 18.1742 0.334066 18.6859C0.118579 19.1976 0.00476659 19.7526 0 20.315C0 21.3591 0.383116 22.3605 1.06507 23.0988C1.74702 23.8372 2.67194 24.252 3.63636 24.252H5.45455V36.063C5.45455 37.1072 5.83766 38.1085 6.51961 38.8469C7.20156 39.5852 8.12649 40 9.09091 40H30.9091C31.8735 40 32.7984 39.5852 33.4804 38.8469C34.1623 38.1085 34.5455 37.1072 34.5455 36.063V24.252H36.3636C37.3281 24.252 38.253 23.8372 38.9349 23.0988C39.6169 22.3605 40 21.3591 40 20.315C40 19.1378 39.5 18.0295 38.6582 17.2992ZM23.6364 36.063H16.3636V26.2205H23.6364V36.063ZM30.9091 20.315L30.9127 36.063H25.4545V24.252H14.5455V36.063H9.09091V20.315H3.63455C8.66182 15.7638 16.9345 8.05709 20 5.19685C23.0655 8.05709 31.3345 15.7618 36.3636 20.3169L30.9091 20.315Z" fill="black"/>
</svg>
