<svg width="40" height="40" viewBox="0 0 40 40" fill="none" xmlns="http://www.w3.org/2000/svg">
<path d="M35.5556 35.5556H4.44444V4.44444H35.5556M35.5556 0H4.44444C3.2657 0 2.13524 0.468252 1.30175 1.30175C0.468252 2.13524 0 3.2657 0 4.44444V35.5556C0 36.7343 0.468252 37.8648 1.30175 38.6983C2.13524 39.5317 3.2657 40 4.44444 40H35.5556C36.7343 40 37.8648 39.5317 38.6983 38.6983C39.5317 37.8648 40 36.7343 40 35.5556V4.44444C40 3.2657 39.5317 2.13524 38.6983 1.30175C37.8648 0.468252 36.7343 0 35.5556 0ZM30 29.4444C30 26.1111 23.3333 24.4444 20 24.4444C16.6667 24.4444 10 26.1111 10 29.4444V31.1111H30M20 20.5556C21.3261 20.5556 22.5979 20.0288 23.5355 19.0911C24.4732 18.1534 25 16.8816 25 15.5556C25 14.2295 24.4732 12.9577 23.5355 12.02C22.5979 11.0823 21.3261 10.5556 20 10.5556C18.6739 10.5556 17.4021 11.0823 16.4645 12.02C15.5268 12.9577 15 14.2295 15 15.5556C15 16.8816 15.5268 18.1534 16.4645 19.0911C17.4021 20.0288 18.6739 20.5556 20 20.5556Z" fill="black"/>
</svg>
