<svg width="22" height="23" viewBox="0 0 22 23" fill="none" xmlns="http://www.w3.org/2000/svg">
<path fill-rule="evenodd" clip-rule="evenodd" d="M2.61788 0H6.36888C6.52144 0 6.67036 0.0503032 6.79579 0.144198C6.92122 0.238092 7.01718 0.371113 7.07088 0.525512L8.52688 4.71015C8.57487 4.84853 8.58697 4.99847 8.56188 5.14375L7.83188 9.3738C8.72888 11.6532 10.2099 13.1854 12.6649 14.5597L16.5299 13.7487C16.6672 13.7201 16.8092 13.7336 16.9399 13.7877L20.8219 15.388C20.9638 15.4464 21.086 15.5501 21.1722 15.6853C21.2584 15.8204 21.3047 15.9807 21.3049 16.1449V20.0203C21.3049 21.7785 19.8729 23.2047 18.1969 22.81C15.1439 22.0921 9.48688 20.2657 5.52488 15.9816C1.72888 11.8781 0.456884 6.20991 0.0298836 3.14658C-0.215116 1.39704 1.08188 0 2.61788 0Z" fill="#FA7B20"/>
</svg>
