<svg width="1298" height="338" viewBox="0 0 1298 338" fill="none" xmlns="http://www.w3.org/2000/svg">
<rect x="700.25" y="54.25" width="64.5" height="138.5" rx="32.25" fill="url(#paint0_linear_5120_13964)" stroke="#F1F1F1" stroke-width="21.5"/>
<rect x="786.25" y="54.25" width="64.5" height="196.5" rx="32.25" fill="url(#paint1_linear_5120_13964)" stroke="#F1F1F1" stroke-width="21.5"/>
<rect x="872.25" y="54.25" width="64.5" height="272.5" rx="32.25" fill="url(#paint2_linear_5120_13964)" stroke="#F1F1F1" stroke-width="21.5"/>
<rect x="958.25" y="54.25" width="64.5" height="196.5" rx="32.25" fill="url(#paint3_linear_5120_13964)" stroke="#F1F1F1" stroke-width="21.5"/>
<rect x="1044.25" y="54.25" width="64.5" height="138.5" rx="32.25" fill="url(#paint4_linear_5120_13964)" stroke="#F1F1F1" stroke-width="21.5"/>
<rect x="1130.25" y="54.25" width="64.5" height="226.5" rx="32.25" fill="url(#paint5_linear_5120_13964)" stroke="#F1F1F1" stroke-width="21.5"/>
<rect x="1216.25" y="54.25" width="70.5" height="196.5" rx="35.25" fill="url(#paint6_linear_5120_13964)" stroke="#F1F1F1" stroke-width="21.5"/>
<path d="M625 0H1276V107L1103.85 140L1034.5 149.5L1013 140L991.007 200L803 153L715 93L696.5 74.5L625 86V0Z" fill="#4F46E5"/>
<path d="M668 60.5C668 48.6259 677.626 39 689.5 39C701.374 39 711 48.6259 711 60.5V81.5266C711 89.5895 702.148 94.5204 695.293 90.2764C692.039 88.2621 687.936 88.2198 684.641 90.1667L684.355 90.3358C677.129 94.6058 668 89.3967 668 81.0032V60.5Z" fill="#F1F1F1"/>
<rect x="754" y="22" width="43" height="160" rx="21.5" fill="#F1F1F1"/>
<rect x="840" y="128" width="43" height="78" rx="21.5" fill="#F1F1F1"/>
<rect x="926" y="80" width="43" height="126" rx="21.5" fill="#F1F1F1"/>
<rect x="1012" y="65" width="43" height="97" rx="21.5" fill="#F1F1F1"/>
<rect x="1098" y="108" width="43" height="58" rx="21.5" fill="#F1F1F1"/>
<rect x="1184" y="45" width="43" height="150" rx="21.5" fill="#F1F1F1"/>
<rect x="1276" width="22" height="90" fill="#F1F1F1"/>
<rect x="97.25" y="54.25" width="64.5" height="138.5" rx="32.25" fill="url(#paint7_linear_5120_13964)" stroke="#F1F1F1" stroke-width="21.5"/>
<path d="M43.5 28.25C61.3112 28.25 75.75 42.6888 75.75 60.5V144.5C75.75 162.311 61.3112 176.75 43.5 176.75C25.6888 176.75 11.25 162.311 11.25 144.5V60.5C11.25 42.6888 25.6888 28.25 43.5 28.25Z" fill="url(#paint8_linear_5120_13964)" stroke="#F1F1F1" stroke-width="21.5"/>
<rect x="183.25" y="54.25" width="64.5" height="196.5" rx="32.25" fill="url(#paint9_linear_5120_13964)" stroke="#F1F1F1" stroke-width="21.5"/>
<rect x="269.25" y="54.25" width="64.5" height="272.5" rx="32.25" fill="url(#paint10_linear_5120_13964)" stroke="#F1F1F1" stroke-width="21.5"/>
<rect x="355.25" y="54.25" width="64.5" height="196.5" rx="32.25" fill="url(#paint11_linear_5120_13964)" stroke="#F1F1F1" stroke-width="21.5"/>
<rect x="441.25" y="54.25" width="64.5" height="138.5" rx="32.25" fill="url(#paint12_linear_5120_13964)" stroke="#F1F1F1" stroke-width="21.5"/>
<rect x="527.25" y="54.25" width="64.5" height="226.5" rx="32.25" fill="url(#paint13_linear_5120_13964)" stroke="#F1F1F1" stroke-width="21.5"/>
<rect x="613.25" y="54.25" width="70.5" height="196.5" rx="35.25" fill="url(#paint14_linear_5120_13964)" stroke="#F1F1F1" stroke-width="21.5"/>
<path d="M22 0H673V107L500.847 140L431.5 149.5L410 140L388.007 200L200 153L112 93L93.5 74.5L22 86V0Z" fill="#4F46E5"/>
<path d="M65 60.5C65 48.6259 74.6259 39 86.5 39C98.3741 39 108 48.6259 108 60.5V81.5266C108 89.5895 99.1483 94.5204 92.2927 90.2764C89.0387 88.2621 84.9357 88.2198 81.6409 90.1667L81.3548 90.3358C74.1286 94.6058 65 89.3967 65 81.0032V60.5Z" fill="#F1F1F1"/>
<rect x="151" y="22" width="43" height="160" rx="21.5" fill="#F1F1F1"/>
<rect x="237" y="128" width="43" height="78" rx="21.5" fill="#F1F1F1"/>
<rect x="323" y="80" width="43" height="126" rx="21.5" fill="#F1F1F1"/>
<rect x="409" y="65" width="43" height="97" rx="21.5" fill="#F1F1F1"/>
<rect x="495" y="108" width="43" height="58" rx="21.5" fill="#F1F1F1"/>
<rect x="581" y="45" width="43" height="150" rx="21.5" fill="#F1F1F1"/>
<rect width="22" height="90" fill="#F1F1F1"/>
<defs>
<linearGradient id="paint0_linear_5120_13964" x1="730.188" y1="165.236" x2="753.962" y2="183.853" gradientUnits="userSpaceOnUse">
<stop stop-color="#4F46E5"/>
<stop offset="1" stop-color="#321C84"/>
</linearGradient>
<linearGradient id="paint1_linear_5120_13964" x1="816.188" y1="214.925" x2="846.289" y2="230.685" gradientUnits="userSpaceOnUse">
<stop stop-color="#4F46E5"/>
<stop offset="1" stop-color="#321C84"/>
</linearGradient>
<linearGradient id="paint2_linear_5120_13964" x1="902.188" y1="280.036" x2="936.031" y2="292.389" gradientUnits="userSpaceOnUse">
<stop stop-color="#4F46E5"/>
<stop offset="1" stop-color="#321C84"/>
</linearGradient>
<linearGradient id="paint3_linear_5120_13964" x1="988.188" y1="214.925" x2="1018.29" y2="230.685" gradientUnits="userSpaceOnUse">
<stop stop-color="#4F46E5"/>
<stop offset="1" stop-color="#321C84"/>
</linearGradient>
<linearGradient id="paint4_linear_5120_13964" x1="1074.19" y1="165.236" x2="1097.96" y2="183.853" gradientUnits="userSpaceOnUse">
<stop stop-color="#4F46E5"/>
<stop offset="1" stop-color="#321C84"/>
</linearGradient>
<linearGradient id="paint5_linear_5120_13964" x1="1160.19" y1="240.627" x2="1192.15" y2="254.914" gradientUnits="userSpaceOnUse">
<stop stop-color="#4F46E5"/>
<stop offset="1" stop-color="#321C84"/>
</linearGradient>
<linearGradient id="paint6_linear_5120_13964" x1="1248.87" y1="214.925" x2="1281.1" y2="234.155" gradientUnits="userSpaceOnUse">
<stop stop-color="#4F46E5"/>
<stop offset="1" stop-color="#321C84"/>
</linearGradient>
<linearGradient id="paint7_linear_5120_13964" x1="127.188" y1="165.236" x2="150.962" y2="183.853" gradientUnits="userSpaceOnUse">
<stop stop-color="#4F46E5"/>
<stop offset="1" stop-color="#321C84"/>
</linearGradient>
<linearGradient id="paint8_linear_5120_13964" x1="41.1882" y1="147.803" x2="66.4121" y2="166" gradientUnits="userSpaceOnUse">
<stop stop-color="#4F46E5"/>
<stop offset="1" stop-color="#321C84"/>
</linearGradient>
<linearGradient id="paint9_linear_5120_13964" x1="213.188" y1="214.925" x2="243.289" y2="230.685" gradientUnits="userSpaceOnUse">
<stop stop-color="#4F46E5"/>
<stop offset="1" stop-color="#321C84"/>
</linearGradient>
<linearGradient id="paint10_linear_5120_13964" x1="299.188" y1="280.036" x2="333.031" y2="292.389" gradientUnits="userSpaceOnUse">
<stop stop-color="#4F46E5"/>
<stop offset="1" stop-color="#321C84"/>
</linearGradient>
<linearGradient id="paint11_linear_5120_13964" x1="385.188" y1="214.925" x2="415.289" y2="230.685" gradientUnits="userSpaceOnUse">
<stop stop-color="#4F46E5"/>
<stop offset="1" stop-color="#321C84"/>
</linearGradient>
<linearGradient id="paint12_linear_5120_13964" x1="471.188" y1="165.236" x2="494.962" y2="183.853" gradientUnits="userSpaceOnUse">
<stop stop-color="#4F46E5"/>
<stop offset="1" stop-color="#321C84"/>
</linearGradient>
<linearGradient id="paint13_linear_5120_13964" x1="557.188" y1="240.627" x2="589.155" y2="254.914" gradientUnits="userSpaceOnUse">
<stop stop-color="#4F46E5"/>
<stop offset="1" stop-color="#321C84"/>
</linearGradient>
<linearGradient id="paint14_linear_5120_13964" x1="645.866" y1="214.925" x2="678.097" y2="234.155" gradientUnits="userSpaceOnUse">
<stop stop-color="#4F46E5"/>
<stop offset="1" stop-color="#321C84"/>
</linearGradient>
</defs>
</svg>
