<svg width="30" height="26" viewBox="0 0 30 26" fill="none" xmlns="http://www.w3.org/2000/svg">
<path d="M18.2044 16.9478L22.871 12.9478M22.871 12.9478L18.2044 8.94775M22.871 12.9478H1.09326M11.9822 7.61442V4.14775C11.9822 3.72752 12.0787 3.31141 12.2663 2.92317C12.454 2.53493 12.7289 2.18216 13.0756 1.88501C13.7758 1.2849 14.7253 0.947754 15.7155 0.947754H25.3599C26.3501 0.947754 27.2997 1.2849 27.9998 1.88501C28.6999 2.48513 29.0933 3.29906 29.0933 4.14775V21.7478C29.0933 22.5964 28.6999 23.4104 27.9998 24.0105C27.2997 24.6106 26.3501 24.9478 25.3599 24.9478H15.7155C14.7253 24.9478 13.7758 24.6106 13.0756 24.0105C12.3755 23.4104 11.9822 22.5964 11.9822 21.7478V18.2811" stroke="black" stroke-width="1.8" stroke-miterlimit="10" stroke-linecap="round" stroke-linejoin="round"/>
</svg>
