<svg width="20" height="18" viewBox="0 0 20 18" fill="none" xmlns="http://www.w3.org/2000/svg">
<path fill-rule="evenodd" clip-rule="evenodd" d="M3 17.3008C2.20435 17.3008 1.44129 16.959 0.87868 16.3507C0.316071 15.7423 0 14.9172 0 14.0569V3.2439C0 2.38357 0.316071 1.55847 0.87868 0.950117C1.44129 0.341767 2.20435 0 3 0H17C17.7956 0 18.5587 0.341767 19.1213 0.950117C19.6839 1.55847 20 2.38357 20 3.2439V14.0569C20 14.9172 19.6839 15.7423 19.1213 16.3507C18.5587 16.959 17.7956 17.3008 17 17.3008H3ZM5.625 4.56309C5.52313 4.46904 5.40483 4.39807 5.27711 4.3544C5.1494 4.31073 5.01487 4.29526 4.88151 4.30889C4.74816 4.32252 4.61869 4.36499 4.50081 4.43376C4.38292 4.50254 4.27901 4.59622 4.19525 4.70925C4.11149 4.82228 4.04959 4.95235 4.01321 5.09175C3.97684 5.23115 3.96673 5.37703 3.9835 5.52073C4.00026 5.66443 4.04356 5.80303 4.11081 5.92829C4.17806 6.05355 4.2679 6.16292 4.375 6.24992L8.125 9.4949C8.65709 9.95555 9.31838 10.2065 10 10.2065C10.6816 10.2065 11.3429 9.95555 11.875 9.4949L15.625 6.251C15.7276 6.16225 15.813 6.05253 15.8763 5.92809C15.9396 5.80366 15.9797 5.66695 15.9942 5.52578C16.0087 5.38461 15.9973 5.24173 15.9607 5.10531C15.9241 4.96889 15.8631 4.84159 15.781 4.73069C15.6989 4.61979 15.5974 4.52746 15.4824 4.45896C15.3673 4.39046 15.2409 4.34715 15.1103 4.33148C14.9798 4.31582 14.8476 4.32812 14.7215 4.36767C14.5953 4.40722 14.4776 4.47326 14.375 4.56201L10.625 7.80591C10.4476 7.95946 10.2272 8.04312 10 8.04312C9.77279 8.04312 9.55236 7.95946 9.375 7.80591L5.625 4.56309Z" fill="#FA7B20"/>
</svg>
