<svg width="25" height="26" viewBox="0 0 25 26" fill="none" xmlns="http://www.w3.org/2000/svg">
<path d="M12.5 25.5234C8.84792 25.5234 5.85156 25.0583 3.51094 24.1281C1.17031 23.1979 0 22 0 20.5344V5.21094C0 3.91302 1.21875 2.80729 3.65625 1.89375C6.09375 0.980208 9.04167 0.523438 12.5 0.523438C15.9583 0.523438 18.9062 0.980208 21.3438 1.89375C23.7812 2.80729 25 3.91302 25 5.21094V20.5359C25 21.9995 23.8297 23.1969 21.4891 24.1281C19.1484 25.0594 16.1521 25.5245 12.5 25.5234ZM12.5 8.16406C14.7375 8.16406 16.9927 7.85208 19.2656 7.22812C21.5406 6.60417 22.901 5.92448 23.3469 5.18906C22.9198 4.41406 21.5812 3.70312 19.3312 3.05625C17.0812 2.40937 14.8042 2.08594 12.5 2.08594C10.2302 2.08594 7.95625 2.39792 5.67812 3.02187C3.4 3.64583 2.03802 4.32812 1.59219 5.06875C2.01719 5.85 3.35885 6.56146 5.61719 7.20312C7.87552 7.84479 10.1698 8.16406 12.5 8.16406ZM12.5 16.0281C13.5729 16.0281 14.6276 15.976 15.6641 15.8719C16.7005 15.7677 17.6906 15.613 18.6344 15.4078C19.5781 15.2026 20.4557 14.9469 21.2672 14.6406C22.0786 14.3344 22.8021 13.988 23.4375 13.6016V7.20312C22.801 7.58854 22.0771 7.93437 21.2656 8.24062C20.4563 8.54687 19.5792 8.80208 18.6344 9.00625C17.6896 9.2125 16.6995 9.36771 15.6641 9.47187C14.6286 9.57604 13.574 9.62812 12.5 9.62812C11.3854 9.62812 10.3026 9.57083 9.25156 9.45625C8.20052 9.34167 7.20781 9.18229 6.27344 8.97812C5.33906 8.77396 4.47292 8.52292 3.675 8.225C2.87708 7.92708 2.17292 7.58646 1.5625 7.20312V13.6031C2.17396 13.9885 2.87813 14.3292 3.675 14.625C4.47188 14.9208 5.33802 15.1719 6.27344 15.3781C7.20677 15.5833 8.19948 15.7432 9.25156 15.8578C10.3036 15.9724 11.3865 16.0292 12.5 16.0281ZM12.5 23.9609C13.8385 23.9609 15.1109 23.8849 16.3172 23.7328C17.5234 23.5807 18.6078 23.3651 19.5703 23.0859C20.5328 22.8068 21.3505 22.4729 22.0234 22.0844C22.6964 21.6958 23.1677 21.2766 23.4375 20.8266V15.1656C22.801 15.551 22.0771 15.8969 21.2656 16.2031C20.4563 16.5094 19.5792 16.7651 18.6344 16.9703C17.6896 17.1755 16.6995 17.3302 15.6641 17.4344C14.6286 17.5385 13.574 17.5906 12.5 17.5906C11.3854 17.5906 10.3026 17.5333 9.25156 17.4187C8.20052 17.3042 7.20781 17.1448 6.27344 16.9406C5.33906 16.7365 4.47292 16.4854 3.675 16.1875C2.87708 15.8917 2.17292 15.551 1.5625 15.1656V20.8359C1.83333 21.3068 2.30365 21.7297 2.97344 22.1047C3.64323 22.4797 4.45885 22.8062 5.42031 23.0844C6.38177 23.3625 7.46771 23.5786 8.67812 23.7328C9.88854 23.887 11.1625 23.963 12.5 23.9609Z" fill="black"/>
</svg>
