<svg width="39" height="31" viewBox="0 0 39 31" fill="none" xmlns="http://www.w3.org/2000/svg">
<path d="M26.5643 26.8226H11.2018C5.05676 26.8226 3.52051 25.5873 3.52051 20.6462V10.764C3.52051 5.82292 5.05676 4.58765 11.2018 4.58765H26.5643C32.7093 4.58765 34.2456 5.82292 34.2456 10.764V20.6462C34.2456 25.5873 32.7093 26.8226 26.5643 26.8226Z" stroke="#0C0C0D" stroke-width="1.75" stroke-linecap="round" stroke-linejoin="round"/>
<path d="M21.9556 10.7642H29.6368" stroke="#0C0C0D" stroke-width="1.75" stroke-linecap="round" stroke-linejoin="round"/>
<path d="M23.4917 15.7051H29.6367" stroke="#0C0C0D" stroke-width="1.75" stroke-linecap="round" stroke-linejoin="round"/>
<path d="M26.564 20.6462H29.6365" stroke="#0C0C0D" stroke-width="1.75" stroke-linecap="round" stroke-linejoin="round"/>
<path d="M13.5067 14.8279C15.0424 14.8279 16.2873 13.8269 16.2873 12.5921C16.2873 11.3572 15.0424 10.3562 13.5067 10.3562C11.971 10.3562 10.7261 11.3572 10.7261 12.5921C10.7261 13.8269 11.971 14.8279 13.5067 14.8279Z" stroke="#0C0C0D" stroke-width="1.75" stroke-linecap="round" stroke-linejoin="round"/>
<path d="M18.8827 21.0535C18.6676 19.2623 16.9009 17.8541 14.6734 17.6935C13.9052 17.6318 13.1217 17.6318 12.3382 17.6935C10.1107 17.8665 8.34398 19.2623 8.12891 21.0535" stroke="#0C0C0D" stroke-width="1.75" stroke-linecap="round" stroke-linejoin="round"/>
</svg>
