<svg width="28" height="31" viewBox="0 0 28 31" fill="none" xmlns="http://www.w3.org/2000/svg">
<path d="M9.98202 28.6079H5.52832C3.31249 28.6079 2.24316 27.4414 2.24316 25.0332V5.21557C2.24316 2.80735 3.32352 1.64087 5.52832 1.64087H9.98202C12.1978 1.64087 13.2672 2.80735 13.2672 5.21557V25.0332C13.2672 27.4414 12.1868 28.6079 9.98202 28.6079ZM5.52832 3.52229C4.12827 3.52229 3.89677 3.94874 3.89677 5.21557V25.0332C3.89677 26.3 4.12827 26.7265 5.52832 26.7265H9.98202C11.3821 26.7265 11.6136 26.3 11.6136 25.0332V5.21557C11.6136 3.94874 11.3821 3.52229 9.98202 3.52229H5.52832Z" fill="#0C0C0D"/>
<path d="M22.6593 17.3194H18.2056C15.9897 17.3194 14.9204 16.1529 14.9204 13.7447V5.21557C14.9204 2.80735 16.0008 1.64087 18.2056 1.64087H22.6593C24.8751 1.64087 25.9444 2.80735 25.9444 5.21557V13.7447C25.9444 16.1529 24.8641 17.3194 22.6593 17.3194ZM18.2056 3.52229C16.8055 3.52229 16.574 3.94874 16.574 5.21557V13.7447C16.574 15.0115 16.8055 15.438 18.2056 15.438H22.6593C24.0593 15.438 24.2908 15.0115 24.2908 13.7447V5.21557C24.2908 3.94874 24.0593 3.52229 22.6593 3.52229H18.2056Z" fill="#0C0C0D"/>
<path d="M22.6593 28.6073H18.2056C15.9897 28.6073 14.9204 27.4408 14.9204 25.0326V22.7749C14.9204 20.3667 16.0008 19.2002 18.2056 19.2002H22.6593C24.8751 19.2002 25.9444 20.3667 25.9444 22.7749V25.0326C25.9444 27.4408 24.8641 28.6073 22.6593 28.6073ZM18.2056 21.0816C16.8055 21.0816 16.574 21.5081 16.574 22.7749V25.0326C16.574 26.2994 16.8055 26.7259 18.2056 26.7259H22.6593C24.0593 26.7259 24.2908 26.2994 24.2908 25.0326V22.7749C24.2908 21.5081 24.0593 21.0816 22.6593 21.0816H18.2056Z" fill="#0C0C0D"/>
</svg>
