<svg width="20" height="16" viewBox="0 0 20 16" fill="none" xmlns="http://www.w3.org/2000/svg">
<path d="M10 0C5.41667 0 0 1.33333 0 4H5C5 1.33333 15 1.33333 15 4H20C20 1.33333 14.5833 0 10 0ZM6.77167 4.91733L5.31333 8.37333L2.605 9.45733C2.32422 9.5699 2.08791 9.74249 1.92228 9.95596C1.75665 10.1694 1.66818 10.4154 1.66667 10.6667V14.6667C1.66667 15.3653 2.46 16 3.33333 16H16.6667C17.54 16 18.3333 15.3653 18.3333 14.6667V10.6667C18.3317 10.4158 18.2433 10.1702 18.078 9.95697C17.9127 9.74377 17.6769 9.57131 17.3967 9.45867L14.6867 8.37467L13.23 4.916C13.115 4.65513 12.9043 4.4281 12.6253 4.26466C12.3464 4.10122 12.0122 4.00897 11.6667 4H8.33333C7.73833 3.98533 7.00833 4.32667 6.77167 4.91733ZM0 5.33333C0 6.072 0.743333 6.66667 1.66667 6.66667H3.33333C4.25667 6.66667 5 6.072 5 5.33333H0ZM15 5.33333C15 6.072 15.7433 6.66667 16.6667 6.66667H18.3333C19.2567 6.66667 20 6.072 20 5.33333H15ZM10 8C10.8841 8 11.7319 8.28095 12.357 8.78105C12.9821 9.28115 13.3333 9.95942 13.3333 10.6667C13.3333 11.3739 12.9821 12.0522 12.357 12.5523C11.7319 13.0524 10.8841 13.3333 10 13.3333C9.11595 13.3333 8.2681 13.0524 7.64298 12.5523C7.01786 12.0522 6.66667 11.3739 6.66667 10.6667C6.66667 9.95942 7.01786 9.28115 7.64298 8.78105C8.2681 8.28095 9.11595 8 10 8Z" fill="#FA7B20"/>
</svg>
