<svg width="65" height="60" viewBox="0 0 65 60" fill="none" xmlns="http://www.w3.org/2000/svg">
<path d="M35.2678 16.0471C34.435 14.9344 33.3015 14.1027 32.0113 13.6576L28.6799 12.5367C28.4241 12.4424 28.2028 12.2686 28.0463 12.039C27.8898 11.8094 27.8058 11.5353 27.8058 11.2543C27.8058 10.9733 27.8898 10.6992 28.0463 10.4696C28.2028 10.24 28.4241 10.0662 28.6799 9.97198L32.0113 8.85103C32.9972 8.49869 33.8925 7.91856 34.6293 7.15466C35.3661 6.39076 35.9251 5.46316 36.2639 4.44229L36.2905 4.35721L37.3736 0.91179C37.4636 0.645349 37.6315 0.414468 37.8539 0.25111C38.0763 0.087753 38.3423 0 38.615 0C38.8877 0 39.1537 0.087753 39.3761 0.25111C39.5985 0.414468 39.7664 0.645349 39.8564 0.91179L40.9371 4.35721C41.2749 5.40446 41.8439 6.35583 42.5988 7.13587C43.3537 7.91591 44.2739 8.50315 45.2864 8.85103L48.6154 9.97198L48.6831 9.98949C48.9388 10.0837 49.1602 10.2576 49.3167 10.4872C49.4732 10.7167 49.5572 10.9908 49.5572 11.2718C49.5572 11.5528 49.4732 11.8269 49.3167 12.0565C49.1602 12.2861 48.9388 12.4599 48.6831 12.5542L45.3516 13.6751C44.3396 14.0233 43.4199 14.6107 42.6654 15.3907C41.9109 16.1708 41.3424 17.122 41.0048 18.1689L39.9217 21.6144L39.8903 21.6994C39.7858 21.9512 39.6104 22.1645 39.3869 22.3114C39.1634 22.4583 38.9023 22.532 38.6377 22.5228C38.3731 22.5136 38.1173 22.4219 37.9039 22.2599C37.6904 22.0978 37.5292 21.8728 37.4413 21.6144L36.3582 18.1689C36.1163 17.4021 35.7482 16.6843 35.2703 16.0471M53.8736 25.5577L52.0218 24.9372C51.4598 24.7427 50.9493 24.4157 50.5306 23.9818C50.1118 23.548 49.7963 23.0193 49.609 22.4375L49.0046 20.5259C48.9546 20.3781 48.8614 20.2501 48.7379 20.1595C48.6145 20.0689 48.4669 20.0202 48.3156 20.0202C48.1643 20.0202 48.0167 20.0689 47.8933 20.1595C47.7698 20.2501 47.6766 20.3781 47.6266 20.5259L47.027 22.4375C46.8431 23.0156 46.5328 23.5419 46.1202 23.9755C45.7075 24.409 45.2038 24.7381 44.6481 24.9372L42.7986 25.5577C42.6558 25.6095 42.5321 25.7059 42.4446 25.8337C42.3571 25.9614 42.31 26.1142 42.31 26.2708C42.31 26.4274 42.3571 26.5802 42.4446 26.7079C42.5321 26.8357 42.6558 26.9321 42.7986 26.9839L44.6481 27.6069C45.2117 27.8015 45.7237 28.1294 46.1434 28.5646C46.5631 28.9998 46.8789 29.5304 47.0657 30.1141L47.6653 32.0257C47.7153 32.1735 47.8085 32.3015 47.9319 32.3921C48.0554 32.4827 48.2029 32.5314 48.3543 32.5314C48.5056 32.5314 48.6532 32.4827 48.7766 32.3921C48.9 32.3015 48.9932 32.1735 49.0433 32.0257L49.6453 30.1141C49.8328 29.532 50.1487 29.0032 50.5679 28.5693C50.9871 28.1355 51.4981 27.8085 52.0604 27.6144L53.9099 26.9939C54.0527 26.9421 54.1764 26.8457 54.264 26.7179C54.3515 26.5902 54.3985 26.4374 54.3985 26.2808C54.3985 26.1242 54.3515 25.9715 54.264 25.8437C54.1764 25.716 54.0527 25.6195 53.9099 25.5677L53.8736 25.5577ZM20.3295 9.26137C22.348 7.9207 24.7868 7.43344 27.1423 7.90022C26.725 8.1746 26.3589 8.52466 26.0616 8.9336C25.5683 9.6805 25.334 10.5783 25.3968 11.4808C24.2946 11.4813 23.2154 11.8068 22.2854 12.4191L5.14947 23.7887L22.2443 35.3485C24.1542 36.6371 26.6177 36.6371 28.5252 35.3485L40.0087 27.5844C40.1022 27.828 40.2239 28.0582 40.3738 28.275C40.7485 28.828 41.2828 29.2483 41.8969 29.476L43.2024 29.9039L42.3079 30.5119V44.4162C42.3079 44.8222 42.1806 45.2173 41.9452 45.5422L41.9428 45.5447L41.9404 45.5497L41.9331 45.5597L41.9114 45.5847L41.8751 45.6347L41.851 45.6673L41.643 45.92C41.3999 46.2072 41.1442 46.4827 40.8767 46.7457C40.207 47.4137 39.2085 48.282 37.8547 49.1427C35.1446 50.8692 31.0395 52.5481 25.3847 52.5481C19.73 52.5481 15.6273 50.8717 12.9124 49.1427C11.8256 48.458 10.8126 47.6553 9.89037 46.7482C9.6237 46.4851 9.36878 46.2096 9.12641 45.9225C9.02259 45.8008 8.92261 45.6756 8.82663 45.5472L8.82421 45.5422C8.58882 45.2173 8.46158 44.8222 8.46158 44.4162V30.5119L3.62639 27.2416V40.663C3.62639 41.1607 3.43536 41.638 3.09532 41.99C2.75528 42.3419 2.29408 42.5396 1.8132 42.5396C1.33231 42.5396 0.871113 42.3419 0.531073 41.99C0.191033 41.638 5.74601e-07 41.1607 5.74601e-07 40.663V23.7737C-0.000246524 23.4524 0.079206 23.1364 0.23075 22.8561C0.382294 22.5757 0.600853 22.3402 0.865499 22.1723L20.3295 9.26137ZM30.5076 38.4887C28.9837 39.5169 27.2038 40.0643 25.3847 40.0643C23.5656 40.0643 21.7857 39.5169 20.2618 38.4887L12.088 32.9615V43.7131C12.1766 43.8098 12.2814 43.9183 12.4023 44.0384C12.9124 44.5463 13.7078 45.2419 14.8126 45.945C17.0102 47.3462 20.4625 48.7949 25.3847 48.7949C30.3069 48.7949 33.7593 47.3437 35.9569 45.945C36.9482 45.3167 37.863 44.5674 38.6815 43.7131V32.9615L30.5076 38.4887Z" fill="#197AFF"/>
<path d="M59.8948 38.9348C60.989 38.0606 60.416 35.7331 58.6166 33.7367C56.8164 31.742 54.4721 30.8338 53.3794 31.7089M59.8948 38.9348C58.802 39.8099 56.4589 38.9014 54.6587 36.9066C52.8594 34.9103 52.2867 32.584 53.3794 31.7089M59.8948 38.9348L45.2626 55.8371C44.1698 56.7122 41.8255 55.804 40.0253 53.8093C38.226 51.8129 37.6529 49.4854 38.7456 48.6103L53.3794 31.7089" stroke="#FFD700" stroke-width="1.75" stroke-linecap="round" stroke-linejoin="round"/>
<path d="M53.8812 45.8552C52.0378 45.6667 48.0147 44.1237 46.6677 39.4636M50.4645 49.7917C48.8606 49.5484 45.1819 47.9196 43.2929 43.3515M54.5416 46.1776C55.6761 47.3492 57.5118 50.8114 56.0789 55.1915L54.3727 53.8145L51.7569 56.3161C51.7569 56.3161 53.2308 53.2332 51.1177 49.9888" stroke="#FFD700" stroke-width="1.75" stroke-linecap="round" stroke-linejoin="round"/>
</svg>
