<svg width="67" height="62" viewBox="0 0 67 62" fill="none" xmlns="http://www.w3.org/2000/svg">
<path d="M43.4074 18.7216C42.3823 17.4234 40.9873 16.4531 39.3994 15.9338L35.299 14.626C34.9842 14.5161 34.7118 14.3133 34.5192 14.0454C34.3266 13.7776 34.2232 13.4578 34.2232 13.13C34.2232 12.8022 34.3266 12.4824 34.5192 12.2145C34.7118 11.9467 34.9842 11.7438 35.299 11.6339L39.3994 10.3261C40.6127 9.91509 41.7146 9.23827 42.6215 8.34706C43.5284 7.45584 44.2164 6.37366 44.6334 5.18264L44.6661 5.08339L45.9991 1.06375C46.11 0.752903 46.3165 0.483543 46.5903 0.292961C46.864 0.102378 47.1914 0 47.5271 0C47.8628 0 48.1901 0.102378 48.4639 0.292961C48.7376 0.483543 48.9442 0.752903 49.055 1.06375L50.3851 5.08339C50.8009 6.30517 51.5011 7.4151 52.4303 8.32514C53.3595 9.23518 54.4921 9.92029 55.7382 10.3261L59.8355 11.6339L59.9188 11.6543C60.2336 11.7643 60.506 11.9671 60.6986 12.2349C60.8913 12.5028 60.9947 12.8226 60.9947 13.1504C60.9947 13.4782 60.8913 13.798 60.6986 14.0659C60.506 14.3337 60.2336 14.5365 59.9188 14.6465L55.8185 15.9542C54.5729 16.3605 53.441 17.0458 52.5123 17.9558C51.5837 18.8658 50.8839 19.9755 50.4684 21.197L49.1354 25.2166L49.0967 25.3159C48.9681 25.6096 48.7522 25.8584 48.4771 26.0298C48.2021 26.2012 47.8807 26.2871 47.555 26.2764C47.2294 26.2657 46.9146 26.1588 46.6518 25.9697C46.3891 25.7806 46.1907 25.5182 46.0825 25.2166L44.7494 21.197C44.4517 20.3024 43.9987 19.4649 43.4104 18.7216M66.3073 29.8172L64.028 29.0932C63.3364 28.8664 62.7081 28.4848 62.1927 27.9787C61.6773 27.4726 61.289 26.8557 61.0584 26.177L60.3146 23.9468C60.253 23.7744 60.1382 23.625 59.9863 23.5193C59.8344 23.4136 59.6528 23.3568 59.4665 23.3568C59.2803 23.3568 59.0986 23.4136 58.9467 23.5193C58.7948 23.625 58.6801 23.7744 58.6185 23.9468L57.8805 26.177C57.6542 26.8514 57.2723 27.4654 56.7644 27.9712C56.2565 28.477 55.6365 28.861 54.9526 29.0932L52.6763 29.8172C52.5005 29.8776 52.3483 29.9901 52.2405 30.1392C52.1328 30.2882 52.0749 30.4664 52.0749 30.6491C52.0749 30.8318 52.1328 31.01 52.2405 31.1591C52.3483 31.3081 52.5005 31.4206 52.6763 31.4811L54.9526 32.2079C55.6463 32.4349 56.2764 32.8174 56.793 33.3252C57.3095 33.833 57.6982 34.4519 57.9282 35.1329L58.6661 37.3631C58.7277 37.5355 58.8424 37.6849 58.9943 37.7906C59.1462 37.8963 59.3279 37.9531 59.5141 37.9531C59.7004 37.9531 59.882 37.8963 60.0339 37.7906C60.1859 37.6849 60.3006 37.5355 60.3622 37.3631L61.1031 35.1329C61.3339 34.4539 61.7227 33.8368 62.2386 33.3307C62.7545 32.8245 63.3835 32.4431 64.0757 32.2167L66.352 31.4927C66.5277 31.4323 66.68 31.3198 66.7877 31.1707C66.8955 31.0217 66.9533 30.8435 66.9533 30.6608C66.9533 30.4781 66.8955 30.2999 66.7877 30.1508C66.68 30.0018 66.5277 29.8893 66.352 29.8288L66.3073 29.8172ZM25.0215 10.8049C27.5057 9.24077 30.5074 8.6723 33.4066 9.21688C32.8929 9.53698 32.4423 9.94539 32.0765 10.4225C31.4693 11.2939 31.1809 12.3413 31.2582 13.3941C29.9016 13.3948 28.5733 13.7745 27.4287 14.4888L6.33794 27.7533L27.3781 41.2397C29.7288 42.7431 32.7609 42.7431 35.1086 41.2397L49.2425 32.1817C49.3576 32.4658 49.5073 32.7343 49.6918 32.9873C50.153 33.6325 50.8106 34.1229 51.5664 34.3885L53.1732 34.8877L52.0723 35.597V51.8186C52.0723 52.2923 51.9156 52.7533 51.6259 53.1322L51.623 53.1352L51.62 53.141L51.611 53.1527L51.5843 53.1819L51.5396 53.2402L51.5099 53.2782L51.254 53.573C50.9547 53.9081 50.64 54.2295 50.3107 54.5363C49.4865 55.3158 48.2576 56.3287 46.5913 57.3329C43.2557 59.3471 38.2032 61.3058 31.2434 61.3058C24.2835 61.3058 19.234 59.35 15.8925 57.3329C14.5549 56.5341 13.308 55.5976 12.173 54.5393C11.8448 54.2324 11.531 53.9109 11.2327 53.576C11.1049 53.4339 10.9819 53.2879 10.8638 53.1381L10.8608 53.1322C10.5711 52.7533 10.4145 52.2923 10.4145 51.8186V35.597L4.46334 31.7817V47.4399C4.46334 48.0206 4.22822 48.5775 3.8097 48.988C3.39118 49.3986 2.82354 49.6293 2.23167 49.6293C1.63979 49.6293 1.07216 49.3986 0.653641 48.988C0.235122 48.5775 7.07215e-07 48.0206 7.07215e-07 47.4399V27.7358C-0.00030342 27.361 0.0974863 26.9924 0.284005 26.6653C0.470525 26.3382 0.739527 26.0635 1.06525 25.8676L25.0215 10.8049ZM37.5486 44.9032C35.673 46.1028 33.4823 46.7415 31.2434 46.7415C29.0044 46.7415 26.8137 46.1028 24.9381 44.9032L14.8778 38.4549V50.9984C14.9869 51.1112 15.1158 51.2377 15.2646 51.3778C15.8925 51.9704 16.8714 52.7819 18.2312 53.6022C20.936 55.2369 25.1851 56.9271 31.2434 56.9271C37.3016 56.9271 41.5507 55.234 44.2555 53.6022C45.4756 52.8692 46.6015 51.995 47.6089 50.9984V38.4549L37.5486 44.9032Z" fill="#197AFF"/>
</svg>
