<svg width="30" height="25" viewBox="0 0 30 25" fill="none" xmlns="http://www.w3.org/2000/svg">
<path d="M5.37113 23.9168C5.22488 24.6567 6.04611 25.235 6.76985 24.905L15.001 21.1453L23.2302 24.905C23.9539 25.235 24.7751 24.6567 24.6289 23.9184L23.0727 16.0357L29.6763 10.4428C30.295 9.91948 29.9763 8.96289 29.1476 8.85957L19.964 7.69965L15.8691 0.488536C15.7911 0.342362 15.668 0.218861 15.5141 0.132384C15.3603 0.0459056 15.182 0 15 0C14.818 0 14.6397 0.0459056 14.4859 0.132384C14.332 0.218861 14.209 0.342362 14.131 0.488536L10.036 7.70132L0.85246 8.86123C0.0255997 8.96456 -0.295019 9.92115 0.321844 10.4444L6.92735 16.0374L5.37113 23.9201V23.9168ZM14.5678 19.3054L7.65671 22.4619L8.95794 15.8674C8.98926 15.7156 8.97774 15.5592 8.9244 15.4123C8.87106 15.2655 8.77758 15.1326 8.65232 15.0258L3.20367 10.4094L10.801 9.44952C10.9581 9.42773 11.107 9.37278 11.2352 9.28926C11.3634 9.20575 11.4672 9.09611 11.5379 8.96956L14.9972 2.87335L18.4603 8.96956C18.5309 9.09611 18.6347 9.20575 18.763 9.28926C18.8912 9.37278 19.0401 9.42773 19.1971 9.44952L26.7945 10.4078L21.3458 15.0241C21.2203 15.1311 21.1266 15.2642 21.0733 15.4114C21.0199 15.5586 21.0086 15.7153 21.0402 15.8674L22.3414 22.4619L15.4303 19.3054C15.2968 19.2438 15.1486 19.2116 14.9981 19.2116C14.8477 19.2116 14.7013 19.2438 14.5678 19.3054Z" fill="#292D32"/>
</svg>
