<svg width="35" height="25" viewBox="0 0 35 25" fill="none" xmlns="http://www.w3.org/2000/svg">
<path d="M33.8387 10.2792C34.6129 11.2625 35 11.7521 35 12.5C35 13.2479 34.6129 13.7375 33.8387 14.7208C31.0051 18.3125 24.7554 25 17.5 25C10.2446 25 3.99487 18.3125 1.16135 14.7208C0.387115 13.7375 0 13.2479 0 12.5C0 11.7521 0.387115 11.2625 1.16135 10.2792C3.99487 6.6875 10.2446 0 17.5 0C24.7554 0 31.0051 6.6875 33.8387 10.2792Z" fill="white"/>
<path d="M17.5 18.75C20.8061 18.75 23.4863 15.9518 23.4863 12.5C23.4863 9.04822 20.8061 6.25 17.5 6.25C14.1938 6.25 11.5137 9.04822 11.5137 12.5C11.5137 15.9518 14.1938 18.75 17.5 18.75Z" fill="#5932EA"/>
</svg>
