<svg width="53" height="44" viewBox="0 0 53 44" fill="none" xmlns="http://www.w3.org/2000/svg">
<path d="M48.9137 7.99398H27.3382L20.3807 1.17164C20.0036 0.798866 19.5546 0.503324 19.06 0.30219C18.5654 0.101056 18.0349 -0.00165735 17.4994 2.02221e-05H4.07614C2.99508 2.02221e-05 1.9583 0.421129 1.19387 1.17071C0.429449 1.92029 0 2.93694 0 3.997V40.1222C0.000673927 41.1412 0.413617 42.1184 1.1482 42.8391C1.88279 43.5599 2.879 43.9655 3.91819 43.9668H24.5995C25.14 43.9668 25.6584 43.7563 26.0407 43.3815C26.4229 43.0067 26.6376 42.4984 26.6376 41.9683C26.6376 41.4383 26.4229 40.93 26.0407 40.5552C25.6584 40.1804 25.14 39.9698 24.5995 39.9698H4.07614V11.991H48.9137V19.9849C48.9137 20.515 49.1284 21.0233 49.5106 21.3981C49.8929 21.7729 50.4112 21.9834 50.9518 21.9834C51.4923 21.9834 52.0107 21.7729 52.3929 21.3981C52.7751 21.0233 52.9898 20.515 52.9898 19.9849V11.991C52.9898 10.9309 52.5604 9.91425 51.796 9.16467C51.0315 8.41509 49.9948 7.99398 48.9137 7.99398ZM17.4994 3.997L21.5755 7.99398H4.07614V3.997H17.4994Z" fill="#C837AB"/>
<path opacity="0.4" d="M50.0406 25.5977L38.5022 29.2759L26.9639 25.5977L38.5022 21.9194L50.0406 25.5977Z" fill="#C837AB"/>
<path d="M50.3423 24.7254L38.804 21.0472C38.6066 20.9843 38.3932 20.9843 38.1958 21.0472L26.6574 24.7254C26.4829 24.7817 26.329 24.8848 26.2139 25.0223C26.0989 25.1599 26.0275 25.3261 26.0084 25.5013C26.0028 25.5332 26 25.5655 26 25.5979V34.7934C26 35.0373 26.1013 35.2712 26.2816 35.4436C26.4619 35.6161 26.7065 35.713 26.9615 35.713C27.2165 35.713 27.4611 35.6161 27.6414 35.4436C27.8218 35.2712 27.9231 35.0373 27.9231 34.7934V26.8737L31.9603 28.16C30.8876 29.8172 30.5466 31.8139 31.0119 33.7114C31.4772 35.609 32.711 37.2524 34.4422 38.2808C32.2788 39.0923 30.4086 40.5602 29.0408 42.5671C28.9697 42.6682 28.9203 42.7818 28.8955 42.9014C28.8707 43.0209 28.8709 43.144 28.8963 43.2634C28.9217 43.3828 28.9716 43.4962 29.0432 43.5971C29.1148 43.6979 29.2066 43.7841 29.3133 43.8507C29.42 43.9172 29.5396 43.9629 29.6649 43.9849C29.7902 44.0069 29.9189 44.0049 30.0434 43.9789C30.1679 43.953 30.2857 43.9036 30.3901 43.8337C30.4945 43.7638 30.5833 43.6747 30.6514 43.5717C32.4627 40.9142 35.3232 39.3912 38.4999 39.3912C41.6765 39.3912 44.5371 40.9142 46.3484 43.5717C46.4894 43.7722 46.7073 43.9115 46.9548 43.9596C47.2024 44.0076 47.4598 43.9606 47.6714 43.8286C47.883 43.6966 48.0318 43.4903 48.0856 43.2542C48.1394 43.0182 48.0939 42.7713 47.9589 42.5671C46.5912 40.5602 44.7138 39.0923 42.5576 38.2808C44.2871 37.2525 45.5197 35.6101 45.985 33.7139C46.4502 31.8178 46.1102 29.8225 45.0395 28.1657L50.3423 26.476C50.5338 26.415 50.7004 26.2979 50.8184 26.1414C50.9365 25.9848 51 25.7966 51 25.6036C51 25.4106 50.9365 25.2224 50.8184 25.0658C50.7004 24.9093 50.5338 24.7922 50.3423 24.7312V24.7254ZM44.2691 32.0347C44.2693 32.907 44.0533 33.7669 43.6388 34.5439C43.2243 35.3208 42.623 35.9928 41.8844 36.5045C41.1458 37.0162 40.2908 37.3531 39.3896 37.4876C38.4885 37.6222 37.5668 37.5504 36.7002 37.2783C35.8336 37.0062 35.0469 36.5415 34.4045 35.9223C33.7621 35.3031 33.2823 34.5471 33.0046 33.7162C32.7269 32.8854 32.6592 32.0034 32.8069 31.1427C32.9546 30.2819 33.3136 29.4669 33.8545 28.7646L38.1958 30.1439C38.3932 30.2068 38.6066 30.2068 38.804 30.1439L43.1453 28.7646C43.8757 29.7118 44.2696 30.8578 44.2691 32.0347ZM38.4999 28.3071L30.0024 25.5979L38.4999 22.8886L46.9974 25.5979L38.4999 28.3071Z" fill="#C837AB"/>
</svg>
