<svg width="31" height="31" viewBox="0 0 31 31" fill="none" xmlns="http://www.w3.org/2000/svg">
<path d="M6.92857 22.0077H2.64286V28.4362H6.92857V22.0077ZM17.6429 13.4362H13.3571V28.4362H17.6429V13.4362ZM28.3571 2.72196V28.4362H24.0714V2.72196H28.3571ZM24.0714 0.579102C23.5031 0.579102 22.9581 0.804866 22.5562 1.20673C22.1543 1.60859 21.9286 2.15364 21.9286 2.72196V28.4362C21.9286 29.0046 22.1543 29.5496 22.5562 29.9515C22.9581 30.3533 23.5031 30.5791 24.0714 30.5791H28.3571C28.9255 30.5791 29.4705 30.3533 29.8724 29.9515C30.2742 29.5496 30.5 29.0046 30.5 28.4362V2.72196C30.5 2.15364 30.2742 1.60859 29.8724 1.20673C29.4705 0.804866 28.9255 0.579102 28.3571 0.579102H24.0714ZM11.2143 13.4362C11.2143 12.8679 11.4401 12.3229 11.8419 11.921C12.2438 11.5192 12.7888 11.2934 13.3571 11.2934H17.6429C18.2112 11.2934 18.7562 11.5192 19.1581 11.921C19.5599 12.3229 19.7857 12.8679 19.7857 13.4362V28.4362C19.7857 29.0046 19.5599 29.5496 19.1581 29.9515C18.7562 30.3533 18.2112 30.5791 17.6429 30.5791H13.3571C12.7888 30.5791 12.2438 30.3533 11.8419 29.9515C11.4401 29.5496 11.2143 29.0046 11.2143 28.4362V13.4362ZM0.5 22.0077C0.5 21.4394 0.725765 20.8943 1.12763 20.4924C1.52949 20.0906 2.07454 19.8648 2.64286 19.8648H6.92857C7.49689 19.8648 8.04194 20.0906 8.4438 20.4924C8.84566 20.8943 9.07143 21.4394 9.07143 22.0077V28.4362C9.07143 29.0046 8.84566 29.5496 8.4438 29.9515C8.04194 30.3533 7.49689 30.5791 6.92857 30.5791H2.64286C2.07454 30.5791 1.52949 30.3533 1.12763 29.9515C0.725765 29.5496 0.5 29.0046 0.5 28.4362V22.0077Z" fill="black"/>
</svg>
