<svg width="26" height="31" viewBox="0 0 26 31" fill="none" xmlns="http://www.w3.org/2000/svg">
<path d="M5.0579 21.2424C4.8211 21.2424 4.59399 21.3214 4.42655 21.4621C4.25911 21.6028 4.16504 21.7935 4.16504 21.9924C4.16504 22.1913 4.25911 22.3821 4.42655 22.5228C4.59399 22.6634 4.8211 22.7424 5.0579 22.7424H21.1293C21.3661 22.7424 21.5932 22.6634 21.7607 22.5228C21.9281 22.3821 22.0222 22.1913 22.0222 21.9924C22.0222 21.7935 21.9281 21.6028 21.7607 21.4621C21.5932 21.3214 21.3661 21.2424 21.1293 21.2424H5.0579ZM4.16504 24.9924C4.16504 24.7935 4.25911 24.6028 4.42655 24.4621C4.59399 24.3214 4.8211 24.2424 5.0579 24.2424H15.7722C16.009 24.2424 16.2361 24.3214 16.4035 24.4621C16.571 24.6028 16.665 24.7935 16.665 24.9924C16.665 25.1913 16.571 25.3821 16.4035 25.5228C16.2361 25.6634 16.009 25.7424 15.7722 25.7424H5.0579C4.8211 25.7424 4.59399 25.6634 4.42655 25.5228C4.25911 25.3821 4.16504 25.1913 4.16504 24.9924Z" fill="black"/>
<path fill-rule="evenodd" clip-rule="evenodd" d="M10.3464 8.95383C10.2785 8.81719 10.1641 8.70046 10.0174 8.61835C9.87079 8.53625 9.69849 8.49243 9.52225 8.49243C9.34601 8.49243 9.17371 8.53625 9.02706 8.61835C8.88041 8.70046 8.76596 8.81719 8.69814 8.95383L5.35707 15.6888L5.34189 15.7203L4.23386 17.9538C4.14269 18.1374 4.14208 18.3439 4.23217 18.5279C4.32225 18.7119 4.49565 18.8583 4.71421 18.9348C4.93278 19.0114 5.17861 19.0119 5.39763 18.9363C5.61664 18.8606 5.7909 18.7149 5.88207 18.5313L6.76957 16.7426H12.2749L13.1624 18.5313C13.2536 18.7149 13.4279 18.8606 13.6469 18.9363C13.8659 19.0119 14.1117 19.0114 14.3303 18.9348C14.5489 18.8583 14.7223 18.7119 14.8123 18.5279C14.9024 18.3439 14.9018 18.1374 14.8106 17.9538L13.7026 15.7203L13.6874 15.6888L10.3464 8.95383ZM9.52225 11.1926L11.5312 15.2426H7.51332L9.52225 11.1926Z" fill="black"/>
<path d="M18.4503 12.9927C18.6871 12.9927 18.9142 13.0717 19.0817 13.2123C19.2491 13.353 19.3432 13.5438 19.3432 13.7427V15.2427H21.1289C21.3657 15.2427 21.5928 15.3217 21.7603 15.4623C21.9277 15.603 22.0218 15.7938 22.0218 15.9927C22.0218 16.1916 21.9277 16.3824 21.7603 16.523C21.5928 16.6637 21.3657 16.7427 21.1289 16.7427H19.3432V18.2427C19.3432 18.4416 19.2491 18.6324 19.0817 18.773C18.9142 18.9137 18.6871 18.9927 18.4503 18.9927C18.2135 18.9927 17.9864 18.9137 17.819 18.773C17.6515 18.6324 17.5575 18.4416 17.5575 18.2427V16.7427H15.7718C15.535 16.7427 15.3079 16.6637 15.1404 16.523C14.973 16.3824 14.8789 16.1916 14.8789 15.9927C14.8789 15.7938 14.973 15.603 15.1404 15.4623C15.3079 15.3217 15.535 15.2427 15.7718 15.2427H17.5575V13.7427C17.5575 13.5438 17.6515 13.353 17.819 13.2123C17.9864 13.0717 18.2135 12.9927 18.4503 12.9927Z" fill="black"/>
<path fill-rule="evenodd" clip-rule="evenodd" d="M25.5933 8.49243L16.6647 0.242432H4.16469C3.21749 0.242432 2.30908 0.558502 1.63931 1.12111C0.969536 1.68372 0.593262 2.44678 0.593262 3.24243V27.2424C0.593262 28.0381 0.969536 28.8011 1.63931 29.3638C2.30908 29.9264 3.21749 30.2424 4.16469 30.2424H22.0218C22.969 30.2424 23.8774 29.9264 24.5472 29.3638C25.217 28.8011 25.5933 28.0381 25.5933 27.2424V8.49243ZM15.7718 8.49243C15.7718 8.69134 15.8659 8.88211 16.0333 9.02276C16.2008 9.16341 16.4279 9.24243 16.6647 9.24243H23.8075V27.2424C23.8075 27.6403 23.6194 28.0218 23.2845 28.3031C22.9496 28.5844 22.4954 28.7424 22.0218 28.7424H4.16469C3.69109 28.7424 3.23689 28.5844 2.902 28.3031C2.56711 28.0218 2.37898 27.6403 2.37898 27.2424V3.24243C2.37898 2.84461 2.56711 2.46308 2.902 2.18177C3.23689 1.90047 3.69109 1.74243 4.16469 1.74243H15.7718V8.49243ZM22.3683 7.74243L17.5575 3.29718V7.74243H22.3683Z" fill="black"/>
</svg>
