<svg width="26" height="28" viewBox="0 0 26 28" fill="none" xmlns="http://www.w3.org/2000/svg">
<path d="M21.525 8.75H4.14167C4.06097 8.74974 3.9811 8.76623 3.9071 8.79842C3.83311 8.83061 3.76659 8.8778 3.71177 8.93701C3.65695 8.99622 3.615 9.06616 3.58859 9.14241C3.56218 9.21866 3.55188 9.29956 3.55833 9.38L5.05167 25.8767C5.10423 26.4584 5.37308 26.9993 5.8051 27.3924C6.23712 27.7856 6.80088 28.0024 7.385 28H18.2817C18.8658 28.0024 19.4295 27.7856 19.8616 27.3924C20.2936 26.9993 20.5624 26.4584 20.615 25.8767L22.1667 9.33333C22.1731 9.2529 22.1628 9.172 22.1364 9.09575C22.11 9.01949 22.0681 8.94955 22.0132 8.89034C21.9584 8.83113 21.8919 8.78394 21.8179 8.75175C21.7439 8.71956 21.664 8.70307 21.5833 8.70333L21.525 8.75ZM10.7917 23.9167C10.7917 24.1487 10.6995 24.3713 10.5354 24.5354C10.3713 24.6995 10.1487 24.7917 9.91667 24.7917C9.6846 24.7917 9.46204 24.6995 9.29795 24.5354C9.13385 24.3713 9.04167 24.1487 9.04167 23.9167V13.4167C9.04167 13.1846 9.13385 12.962 9.29795 12.7979C9.46204 12.6339 9.6846 12.5417 9.91667 12.5417C10.1487 12.5417 10.3713 12.6339 10.5354 12.7979C10.6995 12.962 10.7917 13.1846 10.7917 13.4167V23.9167ZM16.625 23.9167C16.625 24.1487 16.5328 24.3713 16.3687 24.5354C16.2046 24.6995 15.9821 24.7917 15.75 24.7917C15.5179 24.7917 15.2954 24.6995 15.1313 24.5354C14.9672 24.3713 14.875 24.1487 14.875 23.9167V13.4167C14.875 13.1846 14.9672 12.962 15.1313 12.7979C15.2954 12.6339 15.5179 12.5417 15.75 12.5417C15.9821 12.5417 16.2046 12.6339 16.3687 12.7979C16.5328 12.962 16.625 13.1846 16.625 13.4167V23.9167ZM24.5 4.66667H18.9583C18.881 4.66667 18.8068 4.63594 18.7521 4.58124C18.6974 4.52654 18.6667 4.45235 18.6667 4.375V2.91667C18.6667 2.14312 18.3594 1.40125 17.8124 0.854272C17.2654 0.307291 16.5235 0 15.75 0L9.91667 0C9.14312 0 8.40125 0.307291 7.85427 0.854272C7.30729 1.40125 7 2.14312 7 2.91667V4.375C7 4.45235 6.96927 4.52654 6.91457 4.58124C6.85987 4.63594 6.78569 4.66667 6.70833 4.66667H1.16667C0.857247 4.66667 0.560501 4.78958 0.341709 5.00838C0.122916 5.22717 0 5.52391 0 5.83333C0 6.14275 0.122916 6.4395 0.341709 6.65829C0.560501 6.87708 0.857247 7 1.16667 7H24.5C24.8094 7 25.1062 6.87708 25.325 6.65829C25.5438 6.4395 25.6667 6.14275 25.6667 5.83333C25.6667 5.52391 25.5438 5.22717 25.325 5.00838C25.1062 4.78958 24.8094 4.66667 24.5 4.66667ZM9.33333 4.375V2.91667C9.33333 2.76196 9.39479 2.61358 9.50419 2.50419C9.61358 2.39479 9.76196 2.33333 9.91667 2.33333H15.75C15.9047 2.33333 16.0531 2.39479 16.1625 2.50419C16.2719 2.61358 16.3333 2.76196 16.3333 2.91667V4.375C16.3333 4.45235 16.3026 4.52654 16.2479 4.58124C16.1932 4.63594 16.119 4.66667 16.0417 4.66667H9.625C9.54765 4.66667 9.47346 4.63594 9.41876 4.58124C9.36406 4.52654 9.33333 4.45235 9.33333 4.375Z" fill="#D23B42"/>
</svg>
