<svg width="46" height="31" viewBox="0 0 46 31" fill="none" xmlns="http://www.w3.org/2000/svg">
<path d="M22.9211 0.494141C23.4929 0.494141 24.0575 0.589011 24.594 0.771974L44.3934 7.6365C45.064 7.87368 45.5087 8.48356 45.5087 9.16797C45.5087 9.8524 45.064 10.4623 44.3934 10.6994L40.3065 12.1157C41.4641 13.864 42.1205 15.9309 42.1205 18.1061V20.0103C42.1205 21.9348 42.8829 23.9203 43.6946 25.4856C44.1534 26.3666 44.6758 27.2339 45.2828 28.0336C45.5087 28.325 45.5722 28.7044 45.4452 29.05C45.3181 29.3956 45.0216 29.6531 44.6546 29.7412L40.1371 30.8255C39.8406 30.9 39.523 30.8458 39.2618 30.6899C39.0006 30.5341 38.8171 30.2766 38.7606 29.9852C38.1536 27.0849 38.4571 24.4827 38.9089 22.6192C39.1347 21.6569 39.4383 20.6744 39.8618 19.7731V18.1061C39.8618 16.0596 39.1418 14.1283 37.8924 12.5833C36.9819 11.533 35.8031 10.6859 34.4196 10.1641L23.3376 5.98305C22.7588 5.76621 22.1023 6.03726 21.8764 6.59293C21.6506 7.1486 21.9329 7.77881 22.5117 7.99565L33.5937 12.1767C34.469 12.5088 35.2384 13.017 35.8666 13.6404L24.6011 17.5436C24.0646 17.7266 23.4999 17.8215 22.9282 17.8215C22.3564 17.8215 21.7917 17.7266 21.2553 17.5436L1.44879 10.6994C0.77822 10.4691 0.333525 9.8524 0.333525 9.16797C0.333525 8.48356 0.77822 7.87368 1.44879 7.6365L21.2482 0.771974C21.7847 0.589011 22.3494 0.494141 22.9211 0.494141ZM36.4736 25.9735C36.4736 28.3656 30.4032 30.8526 22.9211 30.8526C15.439 30.8526 9.36856 28.3656 9.36856 25.9735L10.4485 16.1206L20.4859 19.6037C21.2694 19.8747 22.0952 20.0103 22.9211 20.0103C23.747 20.0103 24.5799 19.8747 25.3563 19.6037L35.3937 16.1206L36.4736 25.9735Z" fill="#197AFF"/>
</svg>
