<svg width="29" height="20" viewBox="0 0 29 20" fill="none" xmlns="http://www.w3.org/2000/svg">
<path d="M27.5567 8.01775C28.1872 8.78475 28.5025 9.16663 28.5025 9.75C28.5025 10.3334 28.1872 10.7153 27.5567 11.4823C25.2492 14.2837 20.1597 19.5 14.2512 19.5C8.34275 19.5 3.25325 14.2837 0.94575 11.4823C0.31525 10.7153 0 10.3334 0 9.75C0 9.16663 0.31525 8.78475 0.94575 8.01775C3.25325 5.21625 8.34275 0 14.2512 0C20.1597 0 25.2492 5.21625 27.5567 8.01775Z" fill="#91BFFF"/>
<path d="M14.2512 14.625C16.9436 14.625 19.1262 12.4424 19.1262 9.75C19.1262 7.05761 16.9436 4.875 14.2512 4.875C11.5588 4.875 9.37622 7.05761 9.37622 9.75C9.37622 12.4424 11.5588 14.625 14.2512 14.625Z" fill="#197AFF"/>
</svg>
