<svg width="30" height="30" viewBox="0 0 30 30" fill="none" xmlns="http://www.w3.org/2000/svg">
<path d="M25.2366 13.6675C25.7216 14.2575 25.9641 14.5512 25.9641 15C25.9641 15.4488 25.7216 15.7425 25.2366 16.3325C23.4616 18.4875 19.5466 22.5 15.0016 22.5C10.4566 22.5 6.54156 18.4875 4.76656 16.3325C4.28156 15.7425 4.03906 15.4488 4.03906 15C4.03906 14.5512 4.28156 14.2575 4.76656 13.6675C6.54156 11.5125 10.4566 7.5 15.0016 7.5C19.5466 7.5 23.4616 11.5125 25.2366 13.6675Z" fill="#4EA24E" fill-opacity="0.5"/>
<path d="M15 18.75C17.0711 18.75 18.75 17.0711 18.75 15C18.75 12.9289 17.0711 11.25 15 11.25C12.9289 11.25 11.25 12.9289 11.25 15C11.25 17.0711 12.9289 18.75 15 18.75Z" fill="#4EA24E"/>
</svg>
