<svg width="32" height="32" viewBox="0 0 32 32" fill="none" xmlns="http://www.w3.org/2000/svg">
<path d="M10.7487 26.75H2.74974C2.21937 26.75 1.71073 26.5393 1.33571 26.1642C0.960686 25.7891 0.75 25.2804 0.75 24.75V2.75C0.75 2.21957 0.960686 1.71086 1.33571 1.33579C1.71073 0.960714 2.21937 0.75 2.74974 0.75H22.7471C23.2775 0.75 23.7861 0.960714 24.1612 1.33579C24.5362 1.71086 24.7469 2.21957 24.7469 2.75V11.75M10.7487 6.75H18.7476M6.74922 12.75H18.7476M6.74922 18.75H16.7479M29.9209 19.5767L19.7528 29.75L14.7535 30.75L15.7534 25.75L25.9267 15.5767C26.4555 15.0478 27.1727 14.7507 27.9204 14.7507C28.6682 14.7507 29.3854 15.0478 29.9142 15.5767L29.9262 15.5873C30.1879 15.8496 30.3953 16.1608 30.5366 16.5032C30.678 16.8457 30.7505 17.2126 30.75 17.5831C30.7495 17.9536 30.676 18.3203 30.5338 18.6624C30.3915 19.0045 30.1832 19.3151 29.9209 19.5767Z" stroke="#197AFF" stroke-width="1.5" stroke-linecap="round" stroke-linejoin="round"/>
</svg>
