<svg width="30" height="29" viewBox="0 0 30 29" fill="none" xmlns="http://www.w3.org/2000/svg">
<path d="M3.75 29C2.71875 29 1.83625 28.6357 1.1025 27.907C0.368749 27.1784 0.00125 26.3014 0 25.2761V21.5522C0 21.0246 0.18 20.5827 0.54 20.2265C0.899999 19.8702 1.345 19.6915 1.875 19.6902C2.405 19.689 2.85062 19.8677 3.21187 20.2265C3.57312 20.5852 3.7525 21.0271 3.75 21.5522V25.2761H26.25V21.5522C26.25 21.0246 26.43 20.5827 26.79 20.2265C27.15 19.8702 27.595 19.6915 28.125 19.6902C28.655 19.689 29.1006 19.8677 29.4618 20.2265C29.8231 20.5852 30.0025 21.0271 30 21.5522V25.2761C30 26.3002 29.6331 27.1771 28.8993 27.907C28.1656 28.6369 27.2825 29.0012 26.25 29H3.75ZM13.125 6.37723L9.60937 9.8684C9.23437 10.2408 8.78937 10.4195 8.27437 10.4046C7.75937 10.3897 7.31374 10.1955 6.93749 9.82185C6.59374 9.44946 6.41374 9.015 6.39749 8.51848C6.38124 8.02196 6.56124 7.5875 6.93749 7.21511L13.6875 0.512066C13.875 0.32587 14.0781 0.194292 14.2969 0.117331C14.5156 0.0403705 14.75 0.00126995 15 2.86458e-05C15.25 -0.00121266 15.4844 0.0378879 15.7031 0.117331C15.9219 0.196775 16.125 0.328353 16.3125 0.512066L23.0625 7.21511C23.4375 7.5875 23.6175 8.02196 23.6025 8.51848C23.5875 9.015 23.4075 9.44946 23.0625 9.82185C22.6875 10.1942 22.2425 10.3885 21.7275 10.4046C21.2125 10.4208 20.7669 10.242 20.3906 9.8684L16.875 6.37723V19.6902C16.875 20.2178 16.695 20.6603 16.335 21.0178C15.975 21.3753 15.53 21.5534 15 21.5522C14.47 21.5509 14.025 21.3722 13.665 21.0159C13.305 20.6597 13.125 20.2178 13.125 19.6902V6.37723Z" fill="white"/>
</svg>
