<svg width="74" height="74" viewBox="0 0 74 74" fill="none" xmlns="http://www.w3.org/2000/svg">
<g clip-path="url(#clip0_3304_15893)">
<path d="M46.8667 71.5333H44.4C44.4 71.9914 44.5276 72.4405 44.7684 72.8301C45.0092 73.2198 45.3538 73.5347 45.7635 73.7396C46.1733 73.9445 46.6319 74.0312 47.0882 73.99C47.5444 73.9489 47.9802 73.7815 48.3467 73.5067L46.8667 71.5333ZM56.7333 64.1333L58.2133 62.16C57.7864 61.8398 57.267 61.6667 56.7333 61.6667C56.1996 61.6667 55.6803 61.8398 55.2533 62.16L56.7333 64.1333ZM66.6 71.5333L65.12 73.5067C65.4865 73.7815 65.9222 73.9489 66.3785 73.99C66.8347 74.0312 67.2934 73.9445 67.7031 73.7396C68.1129 73.5347 68.4574 73.2198 68.6983 72.8301C68.9391 72.4405 69.0667 71.9914 69.0667 71.5333H66.6ZM56.7333 54.2667C53.4623 54.2667 50.3253 52.9673 48.0123 50.6543C45.6994 48.3414 44.4 45.2043 44.4 41.9333H39.4667C39.4667 46.5127 41.2858 50.9046 44.524 54.1427C47.7621 57.3808 52.1539 59.2 56.7333 59.2V54.2667ZM69.0667 41.9333C69.0667 45.2043 67.7673 48.3414 65.4543 50.6543C63.1414 52.9673 60.0043 54.2667 56.7333 54.2667V59.2C61.3127 59.2 65.7046 57.3808 68.9427 54.1427C72.1808 50.9046 74 46.5127 74 41.9333H69.0667ZM56.7333 29.6C60.0043 29.6 63.1414 30.8994 65.4543 33.2124C67.7673 35.5253 69.0667 38.6623 69.0667 41.9333H74C74 37.3539 72.1808 32.9621 68.9427 29.724C65.7046 26.4858 61.3127 24.6667 56.7333 24.6667V29.6ZM56.7333 24.6667C52.1539 24.6667 47.7621 26.4858 44.524 29.724C41.2858 32.9621 39.4667 37.3539 39.4667 41.9333H44.4C44.4 38.6623 45.6994 35.5253 48.0123 33.2124C50.3253 30.8994 53.4623 29.6 56.7333 29.6V24.6667ZM44.4 51.8V71.5333H49.3333V51.8H44.4ZM48.3467 73.5067L58.2133 66.1067L55.2533 62.16L45.3867 69.56L48.3467 73.5067ZM55.2533 66.1067L65.12 73.5067L68.08 69.56L58.2133 62.16L55.2533 66.1067ZM69.0667 71.5333V51.8H64.1333V71.5333H69.0667ZM74 24.6667V7.4H69.0667V24.6667H74ZM66.6 0H7.4V4.93333H66.6V0ZM0 7.4V66.6H4.93333V7.4H0ZM7.4 74H39.4667V69.0667H7.4V74ZM0 66.6C0 68.5626 0.779641 70.4448 2.16741 71.8326C3.55518 73.2204 5.4374 74 7.4 74V69.0667C6.7458 69.0667 6.11839 68.8068 5.6558 68.3442C5.19321 67.8816 4.93333 67.2542 4.93333 66.6H0ZM7.4 0C5.4374 0 3.55518 0.779641 2.16741 2.16741C0.779641 3.55518 0 5.4374 0 7.4H4.93333C4.93333 6.7458 5.19321 6.11839 5.6558 5.6558C6.11839 5.19321 6.7458 4.93333 7.4 4.93333V0ZM74 7.4C74 5.4374 73.2204 3.55518 71.8326 2.16741C70.4448 0.779641 68.5626 0 66.6 0V4.93333C67.2542 4.93333 67.8816 5.19321 68.3442 5.6558C68.8068 6.11839 69.0667 6.7458 69.0667 7.4H74ZM14.8 24.6667H39.4667V19.7333H14.8V24.6667ZM14.8 39.4667H29.6V34.5333H14.8V39.4667Z" fill="#FBBC05"/>
<path d="M16.6497 61.2619C16.0925 61.2619 15.6157 61.0637 15.2192 60.6672C14.8228 60.2707 14.6242 59.7936 14.6235 59.2357V57.2095C14.6235 56.9225 14.7208 56.682 14.9153 56.4882C15.1098 56.2943 15.3503 56.1971 15.6366 56.1964C15.923 56.1957 16.1638 56.293 16.359 56.4882C16.5542 56.6834 16.6511 56.9238 16.6497 57.2095V59.2357H28.8069V57.2095C28.8069 56.9225 28.9041 56.682 29.0986 56.4882C29.2932 56.2943 29.5336 56.1971 29.82 56.1964C30.1063 56.1957 30.3471 56.293 30.5423 56.4882C30.7375 56.6834 30.8344 56.9238 30.8331 57.2095V59.2357C30.8331 59.7929 30.6348 60.2701 30.2384 60.6672C29.8419 61.0643 29.3647 61.2626 28.8069 61.2619H16.6497ZM21.7152 48.9528L19.8156 50.8523C19.613 51.0549 19.3726 51.1522 19.0943 51.1441C18.8161 51.136 18.5753 51.0303 18.372 50.827C18.1863 50.6244 18.089 50.388 18.0802 50.1178C18.0714 49.8477 18.1687 49.6113 18.372 49.4087L22.0191 45.7615C22.1204 45.6602 22.2302 45.5886 22.3484 45.5468C22.4666 45.5049 22.5932 45.4836 22.7283 45.4829C22.8634 45.4823 22.99 45.5035 23.1082 45.5468C23.2264 45.59 23.3362 45.6616 23.4375 45.7615L27.0846 49.4087C27.2872 49.6113 27.3845 49.8477 27.3764 50.1178C27.3683 50.388 27.271 50.6244 27.0846 50.827C26.882 51.0296 26.6415 51.1353 26.3633 51.1441C26.085 51.1529 25.8442 51.0556 25.6409 50.8523L23.7414 48.9528V56.1964C23.7414 56.4835 23.6441 56.7242 23.4496 56.9187C23.2551 57.1133 23.0147 57.2102 22.7283 57.2095C22.4419 57.2088 22.2015 57.1116 22.007 56.9177C21.8125 56.7239 21.7152 56.4835 21.7152 56.1964V48.9528Z" fill="#FBBC05"/>
</g>
<defs>
<clipPath id="clip0_3304_15893">
<rect width="74" height="74" fill="white"/>
</clipPath>
</defs>
</svg>
