<svg width="100" height="60" viewBox="0 0 100 60" fill="none" xmlns="http://www.w3.org/2000/svg">
<path d="M42.5312 0.0933217L34.5469 8.04124C32.1562 8.69449 29.9375 9.89212 28.0625 11.5408L23.9062 15.227C22.3125 16.6424 20.2344 17.4201 18.0938 17.4201H15V37.3288C18.1875 37.4221 21.2188 38.713 23.4844 40.9683L29.0469 46.5054L30.1406 47.5942L34.3594 51.7936C35.3281 52.758 36.9219 52.758 37.8906 51.7936C38.1562 51.5292 38.3594 51.2182 38.4688 50.8915C38.9062 49.6939 39.9219 48.7918 41.1719 48.5118C42.4219 48.2319 43.7344 48.6052 44.6406 49.5228L46.3281 51.1715C48.1406 52.9757 51.0781 52.9757 52.875 51.1715C53.7187 50.3316 54.1719 49.2584 54.2188 48.1541C54.2812 46.7854 55.0938 45.5722 56.3438 44.9812C57.5938 44.3901 59.0469 44.5145 60.1562 45.3078C61.625 46.3499 63.6719 46.2099 64.9844 44.9034C66.4531 43.4413 66.4531 41.0772 64.9844 39.6307L53.1406 27.841L47.5469 32.9737C43.2812 36.8933 36.7344 36.9555 32.3906 33.1137C27.4375 28.7276 27.3281 21.0752 32.1406 16.5491L43.0937 6.25257C47.375 2.23973 53.0312 0 58.9219 0C64.5625 0 70.0156 2.06863 74.2188 5.78596L78.9219 9.95434H97.5C98.875 9.95434 100 11.0742 100 12.4429V44.7945C100 47.5475 97.7656 49.7717 95 49.7717H90C88.1562 49.7717 86.5312 48.7762 85.6719 47.2831H72.4062C71.875 48.3252 71.1719 49.3206 70.2969 50.1916C67.625 52.8513 63.9219 53.8934 60.4531 53.3179C59.8906 54.4533 59.125 55.511 58.1719 56.4597C53.9062 60.7059 47.2344 61.1258 42.4844 57.7196C38.5625 60.9547 32.7188 60.7525 29.0469 57.0819L24.8438 52.8824L23.75 51.7936L18.1875 46.2565C17.3281 45.4011 16.2031 44.9034 15 44.8101C15 47.5475 12.75 49.7717 10 49.7717H5C2.23437 49.7717 0 47.5475 0 44.7945V12.4429C0 11.0742 1.125 9.95434 2.5 9.95434H18.0938C18.4062 9.95434 18.7031 9.84546 18.9219 9.64326L23.0625 5.9726C27.4219 2.13085 33.0312 0 38.8594 0H40.4688C41.1562 0 41.8594 0.0311071 42.5312 0.0933217ZM85 39.8173V17.4201H77.5C76.5781 17.4201 75.6875 17.0779 75.0156 16.4713L69.25 11.3697C66.4062 8.85003 62.7344 7.46575 58.9219 7.46575C54.9531 7.46575 51.1406 8.97446 48.25 11.6808L37.2969 21.9773C35.6875 23.5016 35.7187 26.0679 37.375 27.53C38.8281 28.8209 41.0313 28.7898 42.4531 27.4833L53.6875 17.1557C55.2031 15.7558 57.5781 15.8492 58.9844 17.3734C60.3906 18.8977 60.2969 21.2463 58.7656 22.6461L58.6406 22.7705L70.2656 34.3425C71.8281 35.8978 72.8438 37.8109 73.2969 39.8018H84.9844L85 39.8173ZM10 42.3059C10 41.6459 9.73661 41.0129 9.26777 40.5462C8.79893 40.0795 8.16304 39.8173 7.5 39.8173C6.83696 39.8173 6.20107 40.0795 5.73223 40.5462C5.26339 41.0129 5 41.6459 5 42.3059C5 42.9659 5.26339 43.5989 5.73223 44.0656C6.20107 44.5323 6.83696 44.7945 7.5 44.7945C8.16304 44.7945 8.79893 44.5323 9.26777 44.0656C9.73661 43.5989 10 42.9659 10 42.3059ZM92.5 44.7945C93.163 44.7945 93.7989 44.5323 94.2678 44.0656C94.7366 43.5989 95 42.9659 95 42.3059C95 41.6459 94.7366 41.0129 94.2678 40.5462C93.7989 40.0795 93.163 39.8173 92.5 39.8173C91.837 39.8173 91.2011 40.0795 90.7322 40.5462C90.2634 41.0129 90 41.6459 90 42.3059C90 42.9659 90.2634 43.5989 90.7322 44.0656C91.2011 44.5323 91.837 44.7945 92.5 44.7945Z" fill="#D23B42"/>
</svg>
