<svg width="47" height="33" viewBox="0 0 47 33" fill="none" xmlns="http://www.w3.org/2000/svg">
<path d="M23.4998 0C24.0947 0 24.6822 0.102812 25.2403 0.301094L45.8395 7.74031C46.5372 7.99734 46.9998 8.65828 46.9998 9.4C46.9998 10.1417 46.5372 10.8027 45.8395 11.0597L41.5875 12.5945C42.7919 14.4892 43.4748 16.7291 43.4748 19.0864V21.15C43.4748 23.2356 44.268 25.3873 45.1125 27.0837C45.5898 28.0384 46.1333 28.9784 46.7648 29.845C46.9998 30.1608 47.0659 30.572 46.9338 30.9466C46.8016 31.3211 46.4931 31.6002 46.1113 31.6956L41.4113 32.8706C41.1028 32.9514 40.7723 32.8927 40.5006 32.7237C40.2289 32.5548 40.038 32.2758 39.9792 31.96C39.3477 28.8169 39.6634 25.9969 40.1334 23.9773C40.3684 22.9345 40.6842 21.8697 41.1248 20.893V19.0864C41.1248 16.8686 40.3758 14.7756 39.0759 13.1012C38.1286 11.963 36.9022 11.045 35.4628 10.4795L23.9331 5.94844C23.3309 5.71344 22.648 6.00719 22.413 6.60937C22.178 7.21156 22.4717 7.89453 23.0739 8.12953L34.6036 12.6606C35.5142 13.0205 36.3147 13.5712 36.9683 14.2469L25.2477 18.4769C24.6895 18.6752 24.102 18.778 23.5072 18.778C22.9123 18.778 22.3248 18.6752 21.7667 18.4769L1.16015 11.0597C0.462497 10.81 -0.00016123 10.1417 -0.00016123 9.4C-0.00016123 8.65828 0.462497 7.99734 1.16015 7.74031L21.7594 0.301094C22.3175 0.102812 22.905 0 23.4998 0ZM37.5998 27.6125C37.5998 30.2048 31.2842 32.9 23.4998 32.9C15.7155 32.9 9.39984 30.2048 9.39984 27.6125L10.5234 16.9347L20.9662 20.7094C21.7814 21.0031 22.6406 21.15 23.4998 21.15C24.3591 21.15 25.2256 21.0031 26.0334 20.7094L36.4763 16.9347L37.5998 27.6125Z" fill="white"/>
</svg>
