<svg width="74" height="74" viewBox="0 0 74 74" fill="none" xmlns="http://www.w3.org/2000/svg">
<g clip-path="url(#clip0_2264_44668)">
<path d="M46.8667 71.5333H44.4C44.4 71.9914 44.5276 72.4405 44.7684 72.8301C45.0092 73.2198 45.3538 73.5347 45.7635 73.7396C46.1733 73.9445 46.6319 74.0312 47.0882 73.99C47.5444 73.9489 47.9802 73.7815 48.3467 73.5067L46.8667 71.5333ZM56.7333 64.1333L58.2133 62.16C57.7864 61.8398 57.267 61.6667 56.7333 61.6667C56.1996 61.6667 55.6803 61.8398 55.2533 62.16L56.7333 64.1333ZM66.6 71.5333L65.12 73.5067C65.4865 73.7815 65.9222 73.9489 66.3785 73.99C66.8347 74.0312 67.2934 73.9445 67.7031 73.7396C68.1129 73.5347 68.4574 73.2198 68.6983 72.8301C68.9391 72.4405 69.0667 71.9914 69.0667 71.5333H66.6ZM56.7333 54.2667C53.4623 54.2667 50.3253 52.9673 48.0123 50.6543C45.6994 48.3414 44.4 45.2043 44.4 41.9333H39.4667C39.4667 46.5127 41.2858 50.9046 44.524 54.1427C47.7621 57.3808 52.1539 59.2 56.7333 59.2V54.2667ZM69.0667 41.9333C69.0667 45.2043 67.7673 48.3414 65.4543 50.6543C63.1414 52.9673 60.0043 54.2667 56.7333 54.2667V59.2C61.3127 59.2 65.7046 57.3808 68.9427 54.1427C72.1808 50.9046 74 46.5127 74 41.9333H69.0667ZM56.7333 29.6C60.0043 29.6 63.1414 30.8994 65.4543 33.2124C67.7673 35.5253 69.0667 38.6623 69.0667 41.9333H74C74 37.3539 72.1808 32.9621 68.9427 29.724C65.7046 26.4858 61.3127 24.6667 56.7333 24.6667V29.6ZM56.7333 24.6667C52.1539 24.6667 47.7621 26.4858 44.524 29.724C41.2858 32.9621 39.4667 37.3539 39.4667 41.9333H44.4C44.4 38.6623 45.6994 35.5253 48.0123 33.2124C50.3253 30.8994 53.4623 29.6 56.7333 29.6V24.6667ZM44.4 51.8V71.5333H49.3333V51.8H44.4ZM48.3467 73.5067L58.2133 66.1067L55.2533 62.16L45.3867 69.56L48.3467 73.5067ZM55.2533 66.1067L65.12 73.5067L68.08 69.56L58.2133 62.16L55.2533 66.1067ZM69.0667 71.5333V51.8H64.1333V71.5333H69.0667ZM74 24.6667V7.4H69.0667V24.6667H74ZM66.6 0H7.4V4.93333H66.6V0ZM0 7.4V66.6H4.93333V7.4H0ZM7.4 74H39.4667V69.0667H7.4V74ZM0 66.6C0 68.5626 0.779641 70.4448 2.16741 71.8326C3.55518 73.2204 5.4374 74 7.4 74V69.0667C6.7458 69.0667 6.11839 68.8068 5.6558 68.3442C5.19321 67.8816 4.93333 67.2542 4.93333 66.6H0ZM7.4 0C5.4374 0 3.55518 0.779641 2.16741 2.16741C0.779641 3.55518 0 5.4374 0 7.4H4.93333C4.93333 6.7458 5.19321 6.11839 5.6558 5.6558C6.11839 5.19321 6.7458 4.93333 7.4 4.93333V0ZM74 7.4C74 5.4374 73.2204 3.55518 71.8326 2.16741C70.4448 0.779641 68.5626 0 66.6 0V4.93333C67.2542 4.93333 67.8816 5.19321 68.3442 5.6558C68.8068 6.11839 69.0667 6.7458 69.0667 7.4H74ZM14.8 24.6667H39.4667V19.7333H14.8V24.6667ZM14.8 39.4667H29.6V34.5333H14.8V39.4667Z" fill="#FBBC05"/>
<path fill-rule="evenodd" clip-rule="evenodd" d="M33.8031 48.3312C34.3456 48.8107 34.3963 49.6402 33.9168 50.1862L23.8543 61.5612C23.7381 61.6926 23.5968 61.7994 23.4386 61.8752C23.2804 61.951 23.1086 61.9944 22.9334 62.0027C22.7582 62.011 22.5831 61.9842 22.4185 61.9237C22.2538 61.8632 22.103 61.7703 21.9748 61.6505L15.4123 55.5255C15.1599 55.2875 15.0119 54.9594 15.0007 54.6126C14.9895 54.2659 15.116 53.9289 15.3526 53.6752C15.5892 53.4215 15.9166 53.2717 16.2633 53.2587C16.6099 53.2457 16.9476 53.3705 17.2026 53.6057L22.7851 58.8032L31.9551 48.4432C32.0694 48.3139 32.2081 48.2084 32.3633 48.1327C32.5185 48.0571 32.687 48.0128 32.8594 48.0024C33.0317 47.992 33.2043 48.0157 33.3675 48.0721C33.5306 48.1285 33.681 48.2166 33.8101 48.3312H33.8031Z" fill="#FBBC05"/>
</g>
<defs>
<clipPath id="clip0_2264_44668">
<rect width="74" height="74" fill="white"/>
</clipPath>
</defs>
</svg>
