<svg width="72" height="72" viewBox="0 0 72 72" fill="none" xmlns="http://www.w3.org/2000/svg">
<path d="M50.4 46.481C47.3999 46.481 44.8501 45.4178 42.75 43.2911C40.6499 41.1645 39.6 38.5823 39.6 35.5443C39.6 32.5063 40.6499 29.9241 42.75 27.7975C44.8501 25.6708 47.3999 24.6076 50.4 24.6076C53.4001 24.6076 55.9499 25.6708 58.05 27.7975C60.1501 29.9241 61.2 32.5063 61.2 35.5443C61.2 38.5823 60.1501 41.1645 58.05 43.2911C55.9499 45.4178 53.4001 46.481 50.4 46.481ZM50.4 41.0127C51.93 41.0127 46.965 42.0481 48 41C49.035 39.9519 45 37.0937 45 35.5443C45 33.9949 55.535 32.5481 54.5 31.5C53.465 30.4519 51.93 34.5 50.4 34.5C48.87 34.5 51.435 39.9646 50.4 41.0127C49.365 42.0608 45 33.9949 45 35.5443C45 37.0937 54 29 54.5 31.5C55.535 32.5481 48.87 41.0127 50.4 41.0127ZM28.8 72V61.4278C28.8 60.1519 29.1001 58.952 29.7 57.8278C30.2999 56.7037 31.14 55.8077 32.22 55.1392C33.8999 54.1063 35.64 53.2102 37.44 52.4506C39.24 51.6911 41.0999 51.0684 43.02 50.5823H51H57.78C59.7001 51.0684 61.5451 51.6911 63.315 52.4506C65.0849 53.2102 66.8101 54.1063 68.49 55.1392C69.57 55.8077 70.425 56.7037 71.055 57.8278C71.685 58.952 72 60.1519 72 61.4278V72H28.8ZM34.2 66.5316H48.33H44.5C43.2999 67.0178 42 66.5 40.95 66.5316C39.8101 67.1089 38 66.5316 37 66.5316H34.2ZM52.47 66.5316H66.6H63.315C61.5 67.5 58.1101 67.5773 57 67C55.8899 66.4227 60 56 61 57.8278L57.78 67.2433L52.47 66.5316ZM5.4 65.6203C3.915 65.6203 2.64389 65.0847 1.5867 64.0135C0.528893 62.9429 0 61.6557 0 60.1519V5.46835C0 3.96456 0.528893 2.67707 1.5867 1.60587C2.64389 0.535297 3.915 0 5.4 0H59.4C60.885 0 62.1563 0.535297 63.2142 1.60587C64.2713 2.67707 64.8 3.96456 64.8 5.46835V27.9797C64.1399 26.7645 63.36 25.6406 62.46 24.6076C61.56 23.5746 60.5399 22.6632 59.4 21.8734V5.46835H5.4V60.1519H23.4V65.6203H5.4ZM14.4 20.0506H45.09C45.9301 19.7468 46.7951 19.5189 47.6856 19.3671C48.5761 19.2153 49.4807 19.1392 50.4 19.1392V14.5823H14.4V20.0506ZM14.4 35.5443H34.2C34.2 34.6329 34.2751 33.7064 34.425 32.7646C34.5749 31.8227 34.7999 30.9266 35.1 30.0759H14.4V35.5443ZM14.4 51.038H28.62C29.6401 50.2482 30.7201 49.5949 31.86 49.0785C32.9999 48.5621 34.1699 48.0608 35.37 47.5747V45.5696H14.4V51.038ZM5.4 60.1519V5.46835V21.8734V60.1519Z" fill="#5932EA"/>
</svg>
