<svg width="80" height="78" viewBox="0 0 80 78" fill="none" xmlns="http://www.w3.org/2000/svg">
<path d="M9.99999 78C7.24999 78 4.89666 77.0201 2.94 75.0603C0.983331 73.1005 0.00333333 70.7417 0 67.984V57.9679C0 56.549 0.48 55.3604 1.44 54.4022C2.4 53.444 3.58666 52.9632 5 52.9599C6.41333 52.9566 7.60166 53.4373 8.56499 54.4022C9.52832 55.3671 10.0067 56.5556 9.99999 57.9679V67.984H69.9999V57.9679C69.9999 56.549 70.4799 55.3604 71.4399 54.4022C72.3999 53.444 73.5866 52.9632 74.9999 52.9599C76.4133 52.9566 77.6016 53.4373 78.5649 54.4022C79.5283 55.3671 80.0066 56.5556 79.9999 57.9679V67.984C79.9999 70.7384 79.0216 73.0971 77.0649 75.0603C75.1083 77.0234 72.7533 78.0033 69.9999 78H9.99999ZM35 17.1525L25.625 26.5426C24.625 27.5442 23.4383 28.025 22.065 27.9849C20.6916 27.9448 19.5033 27.4223 18.5 26.4174C17.5833 25.4158 17.1033 24.2472 17.06 22.9118C17.0167 21.5763 17.4967 20.4078 18.5 19.4062L36.5 1.37728C37 0.876479 37.5416 0.522579 38.125 0.315581C38.7083 0.108583 39.3333 0.00341573 40 7.70474e-05C40.6666 -0.00326163 41.2916 0.101905 41.875 0.315581C42.4583 0.529256 43 0.883156 43.5 1.37728L61.4999 19.4062C62.4999 20.4078 62.9799 21.5763 62.9399 22.9118C62.8999 24.2472 62.4199 25.4158 61.4999 26.4174C60.4999 27.419 59.3133 27.9415 57.94 27.9849C56.5666 28.0283 55.3783 27.5475 54.375 26.5426L45 17.1525V52.9599C45 54.3788 44.52 55.5691 43.56 56.5306C42.6 57.4922 41.4133 57.9712 40 57.9679C38.5866 57.9646 37.4 57.4838 36.44 56.5256C35.48 55.5674 35 54.3788 35 52.9599V17.1525Z" fill="#197AFF"/>
</svg>
