<svg width="30" height="30" viewBox="0 0 30 30" fill="none" xmlns="http://www.w3.org/2000/svg">
<rect width="30" height="30" fill="white"/>
<path d="M25.2346 13.6675C25.7196 14.2575 25.9621 14.5512 25.9621 15C25.9621 15.4488 25.7196 15.7425 25.2346 16.3325C23.4596 18.4875 19.5446 22.5 14.9996 22.5C10.4546 22.5 6.53961 18.4875 4.76461 16.3325C4.27961 15.7425 4.03711 15.4488 4.03711 15C4.03711 14.5512 4.27961 14.2575 4.76461 13.6675C6.53961 11.5125 10.4546 7.5 14.9996 7.5C19.5446 7.5 23.4596 11.5125 25.2346 13.6675Z" fill="#A6D0A6"/>
<path d="M15 18.75C17.0711 18.75 18.75 17.0711 18.75 15C18.75 12.9289 17.0711 11.25 15 11.25C12.9289 11.25 11.25 12.9289 11.25 15C11.25 17.0711 12.9289 18.75 15 18.75Z" fill="#4EA24E"/>
</svg>
