<svg width="100" height="80" viewBox="0 0 100 80" fill="none" xmlns="http://www.w3.org/2000/svg">
<path d="M49.9988 0C51.2644 0 52.5144 0.249951 53.7018 0.731999L97.5289 18.8177C99.0132 19.4426 99.9976 21.0494 99.9976 22.8527C99.9976 24.6559 99.0132 26.2627 97.5289 26.8876L88.4822 30.619C91.0447 35.2252 92.4978 40.6706 92.4978 46.4016V51.4185C92.4978 56.4889 94.1852 61.72 95.9821 65.8442C96.9977 68.1652 98.1539 70.4505 99.4976 72.5572C99.9976 73.3249 100.138 74.3247 99.857 75.2353C99.5757 76.1458 98.9195 76.8242 98.107 77.0563L88.1073 79.9129C87.451 80.1093 86.7479 79.9665 86.1698 79.5558C85.5917 79.1452 85.1855 78.4668 85.0605 77.6991C83.7167 70.0577 84.3886 63.2019 85.3886 58.2921C85.8886 55.7569 86.5604 53.1682 87.4979 50.7936V46.4016C87.4979 41.0098 85.9042 35.9215 83.1386 31.8509C81.123 29.0836 78.5137 26.8519 75.4513 25.4771L50.9207 14.4614C49.6394 13.8901 48.1863 14.6043 47.6864 16.0683C47.1864 17.5323 47.8114 19.1927 49.0926 19.764L73.6232 30.7797C75.5607 31.6545 77.2638 32.9935 78.6544 34.6361L53.7175 44.9198C52.53 45.4018 51.28 45.6518 50.0144 45.6518C48.7488 45.6518 47.4989 45.4018 46.3114 44.9198L2.46869 26.8876C0.984356 26.2806 -1.66893e-06 24.6559 -1.66893e-06 22.8527C-1.66893e-06 21.0494 0.984356 19.4426 2.46869 18.8177L46.2958 0.731999C47.4832 0.249951 48.7332 0 49.9988 0ZM79.9981 67.1297C79.9981 73.432 66.5609 79.9843 49.9988 79.9843C33.4367 79.9843 19.9995 73.432 19.9995 67.1297L22.3901 41.1705L44.6083 50.3473C46.3426 51.0614 48.1707 51.4185 49.9988 51.4185C51.8269 51.4185 53.6706 51.0614 55.3893 50.3473L77.6075 41.1705L79.9981 67.1297Z" fill="#D23B42"/>
</svg>
